Regular.ufo
<glyph name="exclam" format="2">
  <advance width="784"/>
  <unicode hex="0021"/>
  <outline>
    <contour>
      <point x="528" y="2048" type="line"/>
      <point x="508" y="576" type="line"/>
      <point x="276" y="576" type="line"/>
      <point x="256" y="2048" type="line"/>
    </contour>
    <contour>
      <point x="392" y="-16" type="qcurve"/>
      <point x="318" y="-16"/>
      <point x="212" y="90"/>
      <point x="212" y="164" type="qcurve"/>
      <point x="212" y="238"/>
      <point x="318" y="344"/>
      <point x="392" y="344" type="qcurve"/>
      <point x="466" y="344"/>
      <point x="572" y="238"/>
      <point x="572" y="164" type="qcurve"/>
      <point x="572" y="90"/>
      <point x="466" y="-16"/>
    </contour>
  </outline>
</glyph>
<glyph name="numbersign" format="2">
  <advance width="1776"/>
  <unicode hex="0023"/>
  <outline>
    <contour>
      <point x="980" y="0" type="line"/>
      <point x="1316" y="2048" type="line"/>
      <point x="1516" y="2048" type="line"/>
      <point x="1180" y="0" type="line"/>
    </contour>
    <contour>
      <point x="48" y="568" type="line"/>
      <point x="80" y="768" type="line"/>
      <point x="1608" y="768" type="line"/>
      <point x="1576" y="568" type="line"/>
    </contour>
    <contour>
      <point x="260" y="0" type="line"/>
      <point x="596" y="2048" type="line"/>
      <point x="796" y="2048" type="line"/>
      <point x="460" y="0" type="line"/>
    </contour>
    <contour>
      <point x="168" y="1280" type="line"/>
      <point x="200" y="1480" type="line"/>
      <point x="1728" y="1480" type="line"/>
      <point x="1696" y="1280" type="line"/>
    </contour>
  </outline>
</glyph>
<glyph name="percent" format="2">
  <advance width="2288"/>
  <unicode hex="0025"/>
  <outline>
    <contour>
      <point x="1256" y="384" type="qcurve"/>
      <point x="1256" y="492" type="line"/>
      <point x="1256" y="604"/>
      <point x="1349" y="791"/>
      <point x="1528" y="904"/>
      <point x="1656" y="904" type="qcurve"/>
      <point x="1786" y="904"/>
      <point x="1962" y="791"/>
      <point x="2052" y="604"/>
      <point x="2052" y="492" type="qcurve"/>
      <point x="2052" y="384" type="line"/>
      <point x="2052" y="272"/>
      <point x="1961" y="85"/>
      <point x="1784" y="-28"/>
      <point x="1656" y="-28" type="qcurve"/>
      <point x="1526" y="-28"/>
      <point x="1348" y="85"/>
      <point x="1256" y="272"/>
    </contour>
    <contour>
      <point x="1460" y="492" type="qcurve"/>
      <point x="1460" y="384" type="line"/>
      <point x="1460" y="291"/>
      <point x="1548" y="144"/>
      <point x="1656" y="144" type="qcurve"/>
      <point x="1761" y="144"/>
      <point x="1848" y="291"/>
      <point x="1848" y="384" type="qcurve"/>
      <point x="1848" y="492" type="line"/>
      <point x="1848" y="585"/>
      <point x="1764" y="732"/>
      <point x="1656" y="732" type="qcurve"/>
      <point x="1551" y="732"/>
      <point x="1460" y="585"/>
    </contour>
    <contour>
      <point x="236" y="1556" type="qcurve"/>
      <point x="236" y="1664" type="line"/>
      <point x="236" y="1776"/>
      <point x="329" y="1963"/>
      <point x="508" y="2076"/>
      <point x="636" y="2076" type="qcurve"/>
      <point x="766" y="2076"/>
      <point x="942" y="1963"/>
      <point x="1032" y="1776"/>
      <point x="1032" y="1664" type="qcurve"/>
      <point x="1032" y="1556" type="line"/>
      <point x="1032" y="1444"/>
      <point x="941" y="1257"/>
      <point x="764" y="1144"/>
      <point x="636" y="1144" type="qcurve"/>
      <point x="506" y="1144"/>
      <point x="328" y="1257"/>
      <point x="236" y="1444"/>
    </contour>
    <contour>
      <point x="440" y="1664" type="qcurve"/>
      <point x="440" y="1556" type="line"/>
      <point x="440" y="1463"/>
      <point x="528" y="1316"/>
      <point x="636" y="1316" type="qcurve"/>
      <point x="741" y="1316"/>
      <point x="828" y="1463"/>
      <point x="828" y="1556" type="qcurve"/>
      <point x="828" y="1664" type="line"/>
      <point x="828" y="1757"/>
      <point x="744" y="1904"/>
      <point x="636" y="1904" type="qcurve"/>
      <point x="531" y="1904"/>
      <point x="440" y="1757"/>
    </contour>
    <contour>
      <point x="312" y="0" type="line"/>
      <point x="1720" y="2048" type="line"/>
      <point x="1948" y="2048" type="line"/>
      <point x="540" y="0" type="line"/>
    </contour>
  </outline>
</glyph>
<glyph name="ampersand" format="2">
  <advance width="1800"/>
  <unicode hex="0026"/>
  <outline>
    <contour>
      <point x="796" y="-28" type="qcurve"/>
      <point x="594" y="-28"/>
      <point x="302" y="120"/>
      <point x="144" y="378"/>
      <point x="144" y="544" type="qcurve"/>
      <point x="144" y="672"/>
      <point x="253" y="871"/>
      <point x="446" y="1042"/>
      <point x="572" y="1128" type="qcurve"/>
      <point x="868" y="1348" type="line"/>
      <point x="955" y="1405"/>
      <point x="1060" y="1535"/>
      <point x="1060" y="1640" type="qcurve"/>
      <point x="1060" y="1718"/>
      <point x="923" y="1864"/>
      <point x="812" y="1864" type="qcurve"/>
      <point x="734" y="1864"/>
      <point x="615" y="1785"/>
      <point x="548" y="1664"/>
      <point x="548" y="1600" type="qcurve"/>
      <point x="548" y="1528"/>
      <point x="627" y="1381"/>
      <point x="750" y="1228"/>
      <point x="816" y="1148" type="qcurve"/>
      <point x="1756" y="0" type="line"/>
      <point x="1472" y="0" type="line"/>
      <point x="696" y="936" type="line"/>
      <point x="588" y="1066"/>
      <point x="412" y="1278"/>
      <point x="308" y="1484"/>
      <point x="308" y="1604" type="qcurve"/>
      <point x="308" y="1742"/>
      <point x="431" y="1951"/>
      <point x="654" y="2068"/>
      <point x="804" y="2068" type="qcurve"/>
      <point x="958" y="2068"/>
      <point x="1180" y="1949"/>
      <point x="1300" y="1754"/>
      <point x="1300" y="1640" type="qcurve"/>
      <point x="1300" y="1493"/>
      <point x="1154" y="1277"/>
      <point x="1028" y="1184" type="qcurve"/>
      <point x="620" y="880" type="line"/>
      <point x="482" y="778"/>
      <point x="384" y="586"/>
      <point x="384" y="544" type="qcurve"/>
      <point x="384" y="448"/>
      <point x="484" y="282"/>
      <point x="666" y="180"/>
      <point x="788" y="180" type="qcurve"/>
      <point x="904" y="180"/>
      <point x="1124" y="279"/>
      <point x="1303" y="467"/>
      <point x="1408" y="731"/>
      <point x="1408" y="896" type="qcurve"/>
      <point x="1636" y="896" type="line"/>
      <point x="1636" y="692"/>
      <point x="1542" y="434"/>
      <point x="1424" y="288"/>
      <point x="1388" y="252" type="qcurve"/>
      <point x="1376" y="237"/>
      <point x="1356" y="207"/>
      <point x="1344" y="192" type="qcurve"/>
      <point x="1245" y="81"/>
      <point x="943" y="-28"/>
    </contour>
  </outline>
</glyph>
<glyph name="quotesingle" format="2">
  <advance width="624"/>
  <unicode hex="0027"/>
  <outline>
    <contour>
      <point x="420" y="2048" type="line"/>
      <point x="420" y="1344" type="line"/>
      <point x="200" y="1344" type="line"/>
      <point x="200" y="2048" type="line"/>
    </contour>
  </outline>
</glyph>
<glyph name="parenleft" format="2">
  <advance width="1020"/>
  <unicode hex="0028"/>
  <outline>
    <contour>
      <point x="300" y="864" type="qcurve"/>
      <point x="300" y="1242"/>
      <point x="497" y="1877"/>
      <point x="680" y="2144" type="qcurve"/>
      <point x="888" y="2144" type="line"/>
      <point x="792" y="2012"/>
      <point x="636" y="1592"/>
      <point x="544" y="1102"/>
      <point x="544" y="864" type="qcurve"/>
      <point x="544" y="626"/>
      <point x="636" y="136"/>
      <point x="792" y="-284"/>
      <point x="888" y="-416" type="qcurve"/>
      <point x="680" y="-416" type="line"/>
      <point x="497" y="-149"/>
      <point x="300" y="486"/>
    </contour>
  </outline>
</glyph>
<glyph name="parenright" format="2">
  <advance width="1020"/>
  <unicode hex="0029"/>
  <outline>
    <contour>
      <point x="720" y="864" type="qcurve"/>
      <point x="720" y="486"/>
      <point x="523" y="-149"/>
      <point x="340" y="-416" type="qcurve"/>
      <point x="132" y="-416" type="line"/>
      <point x="228" y="-284"/>
      <point x="384" y="136"/>
      <point x="476" y="626"/>
      <point x="476" y="864" type="qcurve"/>
      <point x="476" y="1102"/>
      <point x="384" y="1592"/>
      <point x="228" y="2012"/>
      <point x="132" y="2144" type="qcurve"/>
      <point x="340" y="2144" type="line"/>
      <point x="523" y="1877"/>
      <point x="720" y="1242"/>
    </contour>
  </outline>
</glyph>
<glyph name="asterisk" format="2">
  <advance width="1408"/>
  <unicode hex="002A"/>
  <outline>
    <contour>
      <point x="608" y="896" type="line"/>
      <point x="624" y="1336" type="line"/>
      <point x="252" y="1100" type="line"/>
      <point x="156" y="1268" type="line"/>
      <point x="548" y="1472" type="line"/>
      <point x="156" y="1676" type="line"/>
      <point x="252" y="1844" type="line"/>
      <point x="624" y="1608" type="line"/>
      <point x="608" y="2048" type="line"/>
      <point x="800" y="2048" type="line"/>
      <point x="784" y="1608" type="line"/>
      <point x="1156" y="1844" type="line"/>
      <point x="1252" y="1676" type="line"/>
      <point x="860" y="1472" type="line"/>
      <point x="1252" y="1268" type="line"/>
      <point x="1156" y="1100" type="line"/>
      <point x="784" y="1336" type="line"/>
      <point x="800" y="896" type="line"/>
    </contour>
  </outline>
</glyph>
<glyph name="plus" format="2">
  <advance width="1856"/>
  <unicode hex="002B"/>
  <outline>
    <contour>
      <point x="816" y="140" type="line"/>
      <point x="816" y="1460" type="line"/>
      <point x="1040" y="1460" type="line"/>
      <point x="1040" y="140" type="line"/>
    </contour>
    <contour>
      <point x="268" y="688" type="line"/>
      <point x="268" y="912" type="line"/>
      <point x="1588" y="912" type="line"/>
      <point x="1588" y="688" type="line"/>
    </contour>
  </outline>
</glyph>
<glyph name="comma" format="2">
  <advance width="788"/>
  <unicode hex="002C"/>
  <outline>
    <contour>
      <point x="568" y="280" type="line"/>
      <point x="552" y="172" type="line"/>
      <point x="535" y="58"/>
      <point x="466" y="-202"/>
      <point x="392" y="-432"/>
      <point x="368" y="-500" type="qcurve"/>
      <point x="188" y="-500" type="line"/>
      <point x="201" y="-436"/>
      <point x="243" y="-226"/>
      <point x="286" y="33"/>
      <point x="300" y="168" type="qcurve"/>
      <point x="312" y="280" type="line"/>
    </contour>
  </outline>
</glyph>
<glyph name="period" format="2">
  <advance width="776"/>
  <unicode hex="002E"/>
  <outline>
    <contour>
      <point x="388" y="-16" type="qcurve"/>
      <point x="314" y="-16"/>
      <point x="208" y="90"/>
      <point x="208" y="164" type="qcurve"/>
      <point x="208" y="238"/>
      <point x="314" y="344"/>
      <point x="388" y="344" type="qcurve"/>
      <point x="462" y="344"/>
      <point x="568" y="238"/>
      <point x="568" y="164" type="qcurve"/>
      <point x="568" y="90"/>
      <point x="462" y="-16"/>
    </contour>
  </outline>
</glyph>
<glyph name="slash" format="2">
  <advance width="1004"/>
  <unicode hex="002F"/>
  <outline>
    <contour>
      <point x="940" y="2144" type="line"/>
      <point x="280" y="-308" type="line"/>
      <point x="64" y="-308" type="line"/>
      <point x="724" y="2144" type="line"/>
    </contour>
  </outline>
</glyph>
<glyph name="zero" format="2">
  <advance width="1760"/>
  <unicode hex="0030"/>
  <outline>
    <contour>
      <point x="880" y="-28" type="qcurve"/>
      <point x="654" y="-28"/>
      <point x="336" y="219"/>
      <point x="168" y="690"/>
      <point x="168" y="1024" type="qcurve"/>
      <point x="168" y="1356"/>
      <point x="337" y="1827"/>
      <point x="656" y="2076"/>
      <point x="880" y="2076" type="qcurve"/>
      <point x="1104" y="2076"/>
      <point x="1423" y="1827"/>
      <point x="1592" y="1356"/>
      <point x="1592" y="1024" type="qcurve"/>
      <point x="1592" y="690"/>
      <point x="1424" y="219"/>
      <point x="1106" y="-28"/>
    </contour>
    <contour>
      <point x="880" y="192" type="qcurve"/>
      <point x="1104" y="192"/>
      <point x="1352" y="624"/>
      <point x="1352" y="1024" type="qcurve"/>
      <point x="1352" y="1423"/>
      <point x="1102" y="1860"/>
      <point x="880" y="1860" type="qcurve"/>
      <point x="658" y="1860"/>
      <point x="408" y="1423"/>
      <point x="408" y="1024" type="qcurve"/>
      <point x="408" y="624"/>
      <point x="657" y="192"/>
    </contour>
  </outline>
</glyph>
<glyph name="one" format="2">
  <advance width="1244"/>
  <unicode hex="0031"/>
  <unicode hex="E06C"/>
  <outline>
    <contour>
      <point x="868" y="2048" type="line"/>
      <point x="868" y="0" type="line"/>
      <point x="620" y="0" type="line"/>
      <point x="620" y="1688" type="line"/>
      <point x="604" y="1688" type="line"/>
      <point x="590" y="1660"/>
      <point x="474" y="1589"/>
      <point x="290" y="1536"/>
      <point x="172" y="1536" type="qcurve"/>
      <point x="172" y="1744" type="line"/>
      <point x="291" y="1744"/>
      <point x="465" y="1830"/>
      <point x="582" y="1946"/>
      <point x="643" y="2040"/>
      <point x="648" y="2048" type="qcurve"/>
    </contour>
  </outline>
</glyph>
<glyph name="two" format="2">
  <advance width="1704"/>
  <unicode hex="0032"/>
  <outline>
    <contour>
      <point x="212" y="0" type="line"/>
      <point x="212" y="180" type="line"/>
      <point x="888" y="920" type="line"/>
      <point x="1007" y="1050"/>
      <point x="1161" y="1243"/>
      <point x="1236" y="1414"/>
      <point x="1236" y="1508" type="qcurve"/>
      <point x="1236" y="1616"/>
      <point x="1133" y="1774"/>
      <point x="955" y="1860"/>
      <point x="844" y="1860" type="qcurve"/>
      <point x="726" y="1860"/>
      <point x="551" y="1763"/>
      <point x="456" y="1589"/>
      <point x="456" y="1472" type="qcurve"/>
      <point x="220" y="1472" type="line"/>
      <point x="220" y="1652"/>
      <point x="386" y="1924"/>
      <point x="673" y="2076"/>
      <point x="852" y="2076" type="qcurve"/>
      <point x="1032" y="2076"/>
      <point x="1310" y="1924"/>
      <point x="1468" y="1666"/>
      <point x="1468" y="1508" type="qcurve"/>
      <point x="1468" y="1395"/>
      <point x="1387" y="1180"/>
      <point x="1188" y="917"/>
      <point x="1012" y="728" type="qcurve"/>
      <point x="552" y="236" type="line"/>
      <point x="552" y="220" type="line"/>
      <point x="1504" y="220" type="line"/>
      <point x="1504" y="0" type="line"/>
    </contour>
  </outline>
</glyph>
<glyph name="four" format="2">
  <advance width="1808"/>
  <unicode hex="0034"/>
  <unicode hex="E06E"/>
  <outline>
    <contour>
      <point x="164" y="420" type="line"/>
      <point x="164" y="624" type="line"/>
      <point x="984" y="2048" type="line"/>
      <point x="1228" y="2048" type="line"/>
      <point x="428" y="656" type="line"/>
      <point x="428" y="640" type="line"/>
      <point x="1644" y="640" type="line"/>
      <point x="1644" y="420" type="line"/>
    </contour>
    <contour>
      <point x="1128" y="0" type="line"/>
      <point x="1128" y="480" type="line"/>
      <point x="1128" y="577" type="line"/>
      <point x="1128" y="1280" type="line"/>
      <point x="1364" y="1280" type="line"/>
      <point x="1364" y="0" type="line"/>
    </contour>
  </outline>
</glyph>
<glyph name="six" format="2">
  <advance width="1616"/>
  <unicode hex="0036"/>
  <unicode hex="E06F"/>
  <outline>
    <contour>
      <point x="164" y="648" type="qcurve"/>
      <point x="166" y="744"/>
      <point x="220" y="950"/>
      <point x="348" y="1202"/>
      <point x="460" y="1368" type="qcurve"/>
      <point x="920" y="2048" type="line"/>
      <point x="1192" y="2048" type="line"/>
      <point x="652" y="1260" type="line"/>
      <point x="688" y="1272"/>
      <point x="765" y="1288"/>
      <point x="804" y="1288" type="qcurve"/>
      <point x="990" y="1288"/>
      <point x="1283" y="1116"/>
      <point x="1452" y="818"/>
      <point x="1452" y="628" type="qcurve"/>
      <point x="1452" y="438"/>
      <point x="1285" y="142"/>
      <point x="994" y="-28"/>
      <point x="808" y="-28" type="qcurve"/>
      <point x="620" y="-28"/>
      <point x="328" y="147"/>
      <point x="162" y="452"/>
    </contour>
    <contour>
      <point x="400" y="632" type="qcurve"/>
      <point x="400" y="502"/>
      <point x="504" y="302"/>
      <point x="688" y="188"/>
      <point x="808" y="188" type="qcurve"/>
      <point x="928" y="188"/>
      <point x="1112" y="301"/>
      <point x="1216" y="500"/>
      <point x="1216" y="628" type="qcurve"/>
      <point x="1216" y="758"/>
      <point x="1112" y="956"/>
      <point x="928" y="1068"/>
      <point x="808" y="1068" type="qcurve"/>
      <point x="688" y="1068"/>
      <point x="504" y="957"/>
      <point x="400" y="760"/>
    </contour>
  </outline>
</glyph>
<glyph name="seven" format="2">
  <advance width="1608"/>
  <unicode hex="0037"/>
  <outline>
    <contour>
      <point x="276" y="0" type="line"/>
      <point x="1192" y="1812" type="line"/>
      <point x="1192" y="1828" type="line"/>
      <point x="136" y="1828" type="line"/>
      <point x="136" y="2048" type="line"/>
      <point x="1448" y="2048" type="line"/>
      <point x="1448" y="1816" type="line"/>
      <point x="536" y="0" type="line"/>
    </contour>
  </outline>
</glyph>
<glyph name="eight" format="2">
  <advance width="1736"/>
  <unicode hex="0038"/>
  <outline>
    <contour>
      <point x="868" y="-28" type="qcurve"/>
      <point x="662" y="-28"/>
      <point x="347" y="119"/>
      <point x="171" y="378"/>
      <point x="172" y="544" type="qcurve"/>
      <point x="171" y="674"/>
      <point x="275" y="895"/>
      <point x="456" y="1044"/>
      <point x="568" y="1064" type="qcurve"/>
      <point x="568" y="1076" type="line"/>
      <point x="421" y="1114"/>
      <point x="247" y="1369"/>
      <point x="248" y="1532" type="qcurve"/>
      <point x="247" y="1688"/>
      <point x="407" y="1934"/>
      <point x="688" y="2076"/>
      <point x="868" y="2076" type="qcurve"/>
      <point x="1046" y="2076"/>
      <point x="1326" y="1934"/>
      <point x="1487" y="1688"/>
      <point x="1488" y="1532" type="qcurve"/>
      <point x="1487" y="1369"/>
      <point x="1312" y="1114"/>
      <point x="1168" y="1076" type="qcurve"/>
      <point x="1168" y="1064" type="line"/>
      <point x="1279" y="1044"/>
      <point x="1457" y="895"/>
      <point x="1563" y="674"/>
      <point x="1564" y="544" type="qcurve"/>
      <point x="1563" y="378"/>
      <point x="1386" y="119"/>
      <point x="1073" y="-28"/>
    </contour>
    <contour>
      <point x="868" y="192" type="qcurve"/>
      <point x="1007" y="192"/>
      <point x="1209" y="282"/>
      <point x="1319" y="446"/>
      <point x="1320" y="556" type="qcurve"/>
      <point x="1319" y="672"/>
      <point x="1201" y="850"/>
      <point x="998" y="952"/>
      <point x="868" y="952" type="qcurve"/>
      <point x="737" y="952"/>
      <point x="532" y="850"/>
      <point x="415" y="672"/>
      <point x="416" y="556" type="qcurve"/>
      <point x="415" y="446"/>
      <point x="524" y="282"/>
      <point x="728" y="192"/>
    </contour>
    <contour>
      <point x="868" y="1164" type="qcurve"/>
      <point x="978" y="1164"/>
      <point x="1149" y="1252"/>
      <point x="1247" y="1410"/>
      <point x="1248" y="1516" type="qcurve"/>
      <point x="1247" y="1620"/>
      <point x="1151" y="1775"/>
      <point x="981" y="1860"/>
      <point x="868" y="1860" type="qcurve"/>
      <point x="753" y="1860"/>
      <point x="581" y="1775"/>
      <point x="487" y="1620"/>
      <point x="488" y="1516" type="qcurve"/>
      <point x="487" y="1410"/>
      <point x="584" y="1252"/>
      <point x="756" y="1164"/>
    </contour>
  </outline>
</glyph>
<glyph name="nine" format="2">
  <advance width="1616"/>
  <unicode hex="0039"/>
  <unicode hex="E070"/>
  <outline>
    <contour>
      <point x="164" y="1420" type="qcurve"/>
      <point x="164" y="1610"/>
      <point x="331" y="1906"/>
      <point x="622" y="2076"/>
      <point x="808" y="2076" type="qcurve"/>
      <point x="996" y="2076"/>
      <point x="1288" y="1901"/>
      <point x="1454" y="1596"/>
      <point x="1452" y="1400" type="qcurve"/>
      <point x="1450" y="1304"/>
      <point x="1396" y="1098"/>
      <point x="1268" y="846"/>
      <point x="1156" y="680" type="qcurve"/>
      <point x="696" y="0" type="line"/>
      <point x="424" y="0" type="line"/>
      <point x="964" y="788" type="line"/>
      <point x="928" y="776"/>
      <point x="851" y="760"/>
      <point x="812" y="760" type="qcurve"/>
      <point x="626" y="760"/>
      <point x="333" y="932"/>
      <point x="164" y="1230"/>
    </contour>
    <contour>
      <point x="400" y="1420" type="qcurve"/>
      <point x="400" y="1290"/>
      <point x="504" y="1092"/>
      <point x="688" y="980"/>
      <point x="808" y="980" type="qcurve"/>
      <point x="928" y="980"/>
      <point x="1112" y="1091"/>
      <point x="1216" y="1288"/>
      <point x="1216" y="1416" type="qcurve"/>
      <point x="1216" y="1546"/>
      <point x="1112" y="1746"/>
      <point x="928" y="1860"/>
      <point x="808" y="1860" type="qcurve"/>
      <point x="688" y="1860"/>
      <point x="504" y="1747"/>
      <point x="400" y="1548"/>
    </contour>
  </outline>
</glyph>
<glyph name="colon" format="2">
  <advance width="776"/>
  <unicode hex="003A"/>
  <outline>
    <contour>
      <point x="388" y="-16" type="qcurve"/>
      <point x="314" y="-16"/>
      <point x="208" y="90"/>
      <point x="208" y="164" type="qcurve"/>
      <point x="208" y="238"/>
      <point x="314" y="344"/>
      <point x="388" y="344" type="qcurve"/>
      <point x="462" y="344"/>
      <point x="568" y="238"/>
      <point x="568" y="164" type="qcurve"/>
      <point x="568" y="90"/>
      <point x="462" y="-16"/>
    </contour>
    <contour>
      <point x="388" y="1124" type="qcurve"/>
      <point x="314" y="1124"/>
      <point x="208" y="1230"/>
      <point x="208" y="1304" type="qcurve"/>
      <point x="208" y="1378"/>
      <point x="314" y="1484"/>
      <point x="388" y="1484" type="qcurve"/>
      <point x="462" y="1484"/>
      <point x="568" y="1378"/>
      <point x="568" y="1304" type="qcurve"/>
      <point x="568" y="1230"/>
      <point x="462" y="1124"/>
    </contour>
  </outline>
</glyph>
<glyph name="less" format="2">
  <advance width="1856"/>
  <unicode hex="003C"/>
  <outline>
    <contour>
      <point x="284" y="720" type="line"/>
      <point x="284" y="880" type="line"/>
      <point x="1572" y="1536" type="line"/>
      <point x="1572" y="1280" type="line"/>
      <point x="584" y="804" type="line"/>
      <point x="592" y="820" type="line"/>
      <point x="592" y="780" type="line"/>
      <point x="584" y="796" type="line"/>
      <point x="1572" y="320" type="line"/>
      <point x="1572" y="64" type="line"/>
    </contour>
  </outline>
</glyph>
<glyph name="equal" format="2">
  <advance width="1856"/>
  <unicode hex="003D"/>
  <outline>
    <contour>
      <point x="312" y="988" type="line"/>
      <point x="312" y="1204" type="line"/>
      <point x="1544" y="1204" type="line"/>
      <point x="1544" y="988" type="line"/>
    </contour>
    <contour>
      <point x="312" y="396" type="line"/>
      <point x="312" y="612" type="line"/>
      <point x="1544" y="612" type="line"/>
      <point x="1544" y="396" type="line"/>
    </contour>
  </outline>
</glyph>
<glyph name="greater" format="2">
  <advance width="1856"/>
  <unicode hex="003E"/>
  <outline>
    <contour>
      <point x="1572" y="720" type="line"/>
      <point x="284" y="64" type="line"/>
      <point x="284" y="320" type="line"/>
      <point x="1272" y="796" type="line"/>
      <point x="1264" y="780" type="line"/>
      <point x="1264" y="820" type="line"/>
      <point x="1272" y="804" type="line"/>
      <point x="284" y="1280" type="line"/>
      <point x="284" y="1536" type="line"/>
      <point x="1572" y="880" type="line"/>
    </contour>
  </outline>
</glyph>
<glyph name="question" format="2">
  <advance width="1428"/>
  <unicode hex="003F"/>
  <outline>
    <contour>
      <point x="524" y="576" type="line"/>
      <point x="524" y="588" type="line"/>
      <point x="526" y="779"/>
      <point x="602" y="1005"/>
      <point x="742" y="1145"/>
      <point x="840" y="1204" type="qcurve"/>
      <point x="928" y="1257"/>
      <point x="1048" y="1429"/>
      <point x="1048" y="1548" type="qcurve"/>
      <point x="1048" y="1646"/>
      <point x="956" y="1790"/>
      <point x="802" y="1868"/>
      <point x="708" y="1868" type="qcurve"/>
      <point x="626" y="1868"/>
      <point x="474" y="1800"/>
      <point x="372" y="1654"/>
      <point x="364" y="1536" type="qcurve"/>
      <point x="112" y="1536" type="line"/>
      <point x="120" y="1706"/>
      <point x="281" y="1948"/>
      <point x="546" y="2076"/>
      <point x="708" y="2076" type="qcurve"/>
      <point x="884" y="2076"/>
      <point x="1145" y="1936"/>
      <point x="1288" y="1692"/>
      <point x="1288" y="1536" type="qcurve"/>
      <point x="1288" y="1370"/>
      <point x="1140" y="1134"/>
      <point x="1008" y="1054" type="qcurve"/>
      <point x="920" y="999"/>
      <point x="814" y="878"/>
      <point x="766" y="712"/>
      <point x="764" y="588" type="qcurve"/>
      <point x="764" y="576" type="line"/>
    </contour>
    <contour>
      <point x="652" y="-16" type="qcurve"/>
      <point x="578" y="-16"/>
      <point x="472" y="90"/>
      <point x="472" y="164" type="qcurve"/>
      <point x="472" y="238"/>
      <point x="578" y="344"/>
      <point x="652" y="344" type="qcurve"/>
      <point x="726" y="344"/>
      <point x="832" y="238"/>
      <point x="832" y="164" type="qcurve"/>
      <point x="832" y="90"/>
      <point x="726" y="-16"/>
    </contour>
  </outline>
</glyph>
<glyph name="at" format="2">
  <advance width="2636"/>
  <unicode hex="0040"/>
  <outline>
    <contour>
      <point x="1396" y="-540" type="qcurve"/>
      <point x="1090" y="-540"/>
      <point x="620" y="-373"/>
      <point x="300" y="-49"/>
      <point x="136" y="421"/>
      <point x="136" y="724" type="qcurve"/>
      <point x="136" y="1017"/>
      <point x="303" y="1479"/>
      <point x="622" y="1802"/>
      <point x="1079" y="1972"/>
      <point x="1368" y="1972" type="qcurve"/>
      <point x="1649" y="1972"/>
      <point x="2072" y="1789"/>
      <point x="2357" y="1478"/>
      <point x="2500" y="1090"/>
      <point x="2500" y="884" type="qcurve"/>
      <point x="2500" y="739"/>
      <point x="2472" y="441"/>
      <point x="2382" y="192"/>
      <point x="2195" y="40"/>
      <point x="2036" y="40" type="qcurve"/>
      <point x="1966" y="40"/>
      <point x="1798" y="84"/>
      <point x="1668" y="186"/>
      <point x="1656" y="272" type="qcurve"/>
      <point x="1644" y="272" type="line"/>
      <point x="1620" y="214"/>
      <point x="1521" y="110"/>
      <point x="1362" y="48"/>
      <point x="1248" y="52" type="qcurve"/>
      <point x="1118" y="57"/>
      <point x="920" y="164"/>
      <point x="787" y="349"/>
      <point x="720" y="594"/>
      <point x="720" y="736" type="qcurve"/>
      <point x="720" y="871"/>
      <point x="800" y="1095"/>
      <point x="943" y="1263"/>
      <point x="1136" y="1364"/>
      <point x="1248" y="1376" type="qcurve"/>
      <point x="1348" y="1386"/>
      <point x="1512" y="1349"/>
      <point x="1618" y="1276"/>
      <point x="1632" y="1232" type="qcurve"/>
      <point x="1644" y="1232" type="line"/>
      <point x="1644" y="1344" type="line"/>
      <point x="1856" y="1344" type="line"/>
      <point x="1856" y="440" type="line"/>
      <point x="1856" y="356"/>
      <point x="1950" y="228"/>
      <point x="2040" y="228" type="qcurve"/>
      <point x="2142" y="228"/>
      <point x="2251" y="368"/>
      <point x="2292" y="660"/>
      <point x="2292" y="888" type="qcurve"/>
      <point x="2292" y="1022"/>
      <point x="2219" y="1283"/>
      <point x="2072" y="1511"/>
      <point x="1848" y="1685"/>
      <point x="1547" y="1784"/>
      <point x="1356" y="1784" type="qcurve"/>
      <point x="1121" y="1784"/>
      <point x="750" y="1639"/>
      <point x="491" y="1362"/>
      <point x="356" y="967"/>
      <point x="356" y="716" type="qcurve"/>
      <point x="356" y="461"/>
      <point x="491" y="65"/>
      <point x="756" y="-207"/>
      <point x="1148" y="-348"/>
      <point x="1404" y="-348" type="qcurve"/>
      <point x="1514" y="-348"/>
      <point x="1728" y="-306"/>
      <point x="1892" y="-256"/>
      <point x="1928" y="-244" type="qcurve"/>
      <point x="1984" y="-428" type="line"/>
      <point x="1922" y="-454"/>
      <point x="1723" y="-506"/>
      <point x="1498" y="-540"/>
    </contour>
    <contour>
      <point x="1280" y="256" type="qcurve"/>
      <point x="1414" y="256"/>
      <point x="1580" y="364"/>
      <point x="1656" y="582"/>
      <point x="1656" y="748" type="qcurve"/>
      <point x="1656" y="916"/>
      <point x="1572" y="1104"/>
      <point x="1408" y="1180"/>
      <point x="1288" y="1180" type="qcurve"/>
      <point x="1174" y="1180"/>
      <point x="1013" y="1061"/>
      <point x="928" y="864"/>
      <point x="928" y="748" type="qcurve"/>
      <point x="928" y="620"/>
      <point x="996" y="395"/>
      <point x="1150" y="256"/>
    </contour>
  </outline>
</glyph>
<glyph name="A" format="2">
  <advance width="1904"/>
  <unicode hex="0041"/>
  <outline>
    <contour>
      <point x="332" y="0" type="line"/>
      <point x="72" y="0" type="line"/>
      <point x="824" y="2048" type="line"/>
      <point x="1080" y="2048" type="line"/>
      <point x="1832" y="0" type="line"/>
      <point x="1572" y="0" type="line"/>
      <point x="960" y="1724" type="line"/>
      <point x="944" y="1724" type="line"/>
    </contour>
    <contour>
      <point x="428" y="800" type="line"/>
      <point x="1476" y="800" type="line"/>
      <point x="1476" y="580" type="line"/>
      <point x="428" y="580" type="line"/>
    </contour>
  </outline>
</glyph>
<glyph name="C" format="2">
  <advance width="2048"/>
  <unicode hex="0043"/>
  <outline>
    <contour>
      <point x="1896" y="1408" type="qcurve"/>
      <point x="1648" y="1408" type="line"/>
      <point x="1626" y="1515"/>
      <point x="1517" y="1677"/>
      <point x="1362" y="1788"/>
      <point x="1174" y="1844"/>
      <point x="1072" y="1844" type="qcurve"/>
      <point x="886" y="1844"/>
      <point x="585" y="1656"/>
      <point x="408" y="1290"/>
      <point x="408" y="1024" type="qcurve"/>
      <point x="408" y="758"/>
      <point x="585" y="392"/>
      <point x="886" y="204"/>
      <point x="1072" y="204" type="qcurve"/>
      <point x="1174" y="204"/>
      <point x="1362" y="260"/>
      <point x="1517" y="371"/>
      <point x="1626" y="534"/>
      <point x="1648" y="640" type="qcurve"/>
      <point x="1896" y="640" type="line"/>
      <point x="1868" y="483"/>
      <point x="1720" y="235"/>
      <point x="1500" y="62"/>
      <point x="1227" y="-28"/>
      <point x="1072" y="-28" type="qcurve"/>
      <point x="810" y="-28"/>
      <point x="402" y="228"/>
      <point x="168" y="700"/>
      <point x="168" y="1024" type="qcurve"/>
      <point x="168" y="1348"/>
      <point x="402" y="1820"/>
      <point x="810" y="2076"/>
      <point x="1072" y="2076" type="qcurve"/>
      <point x="1227" y="2076"/>
      <point x="1500" y="1986"/>
      <point x="1720" y="1813"/>
      <point x="1868" y="1566"/>
    </contour>
  </outline>
</glyph>
<glyph name="D" format="2">
  <advance width="2024"/>
  <unicode hex="0044"/>
  <outline>
    <contour>
      <point x="880" y="0" type="qcurve"/>
      <point x="248" y="0" type="line"/>
      <point x="248" y="2048" type="line"/>
      <point x="908" y="2048" type="line"/>
      <point x="1206" y="2048"/>
      <point x="1630" y="1803"/>
      <point x="1856" y="1346"/>
      <point x="1856" y="1028" type="qcurve"/>
      <point x="1856" y="708"/>
      <point x="1628" y="247"/>
      <point x="1192" y="0"/>
    </contour>
    <contour>
      <point x="496" y="220" type="line"/>
      <point x="864" y="220" type="line"/>
      <point x="1118" y="220"/>
      <point x="1452" y="416"/>
      <point x="1616" y="778"/>
      <point x="1616" y="1028" type="qcurve"/>
      <point x="1616" y="1276"/>
      <point x="1454" y="1635"/>
      <point x="1132" y="1828"/>
      <point x="892" y="1828" type="qcurve"/>
      <point x="496" y="1828" type="line"/>
    </contour>
  </outline>
</glyph>
<glyph name="E" format="2">
  <advance width="1684"/>
  <unicode hex="0045"/>
  <outline>
    <contour>
      <point x="248" y="0" type="line"/>
      <point x="248" y="2048" type="line"/>
      <point x="1484" y="2048" type="line"/>
      <point x="1484" y="1828" type="line"/>
      <point x="496" y="1828" type="line"/>
      <point x="496" y="1136" type="line"/>
      <point x="1420" y="1136" type="line"/>
      <point x="1420" y="916" type="line"/>
      <point x="496" y="916" type="line"/>
      <point x="496" y="220" type="line"/>
      <point x="1500" y="220" type="line"/>
      <point x="1500" y="0" type="line"/>
    </contour>
  </outline>
</glyph>
<glyph name="F" format="2">
  <advance width="1652"/>
  <unicode hex="0046"/>
  <outline>
    <contour>
      <point x="248" y="0" type="line"/>
      <point x="248" y="2048" type="line"/>
      <point x="1476" y="2048" type="line"/>
      <point x="1476" y="1828" type="line"/>
      <point x="496" y="1828" type="line"/>
      <point x="496" y="1136" type="line"/>
      <point x="1384" y="1136" type="line"/>
      <point x="1384" y="916" type="line"/>
      <point x="496" y="916" type="line"/>
      <point x="496" y="0" type="line"/>
    </contour>
  </outline>
</glyph>
<glyph name="G" format="2">
  <advance width="2112"/>
  <unicode hex="0047"/>
  <unicode hex="E002"/>
  <outline>
    <contour>
      <point x="1080" y="-28" type="qcurve"/>
      <point x="808" y="-28"/>
      <point x="397" y="228"/>
      <point x="168" y="700"/>
      <point x="168" y="1024" type="qcurve"/>
      <point x="168" y="1267"/>
      <point x="302" y="1656"/>
      <point x="545" y="1930"/>
      <point x="876" y="2076"/>
      <point x="1072" y="2076" type="qcurve"/>
      <point x="1234" y="2076"/>
      <point x="1518" y="1979"/>
      <point x="1745" y="1802"/>
      <point x="1896" y="1557"/>
      <point x="1924" y="1408" type="qcurve"/>
      <point x="1668" y="1408" type="line"/>
      <point x="1637" y="1509"/>
      <point x="1527" y="1670"/>
      <point x="1373" y="1784"/>
      <point x="1183" y="1844"/>
      <point x="1072" y="1844" type="qcurve"/>
      <point x="890" y="1844"/>
      <point x="588" y="1656"/>
      <point x="408" y="1290"/>
      <point x="408" y="1024" type="qcurve"/>
      <point x="408" y="758"/>
      <point x="586" y="392"/>
      <point x="890" y="204"/>
      <point x="1080" y="204" type="qcurve"/>
      <point x="1263" y="204"/>
      <point x="1540" y="365"/>
      <point x="1696" y="648"/>
      <point x="1696" y="830" type="qcurve"/>
      <point x="1728" y="804" type="line"/>
      <point x="1136" y="804" type="line"/>
      <point x="1136" y="1024" type="line"/>
      <point x="1936" y="1024" type="line"/>
      <point x="1936" y="0" type="line"/>
      <point x="1728" y="0" type="line"/>
      <point x="1698" y="250" type="line"/>
      <point x="1688" y="250" type="line"/>
      <point x="1571" y="116"/>
      <point x="1283" y="-28"/>
    </contour>
  </outline>
</glyph>
<glyph name="H" format="2">
  <advance width="2084"/>
  <unicode hex="0048"/>
  <outline>
    <contour>
      <point x="248" y="0" type="line"/>
      <point x="248" y="2048" type="line"/>
      <point x="496" y="2048" type="line"/>
      <point x="496" y="1136" type="line"/>
      <point x="1588" y="1136" type="line"/>
      <point x="1588" y="2048" type="line"/>
      <point x="1836" y="2048" type="line"/>
      <point x="1836" y="0" type="line"/>
      <point x="1588" y="0" type="line"/>
      <point x="1588" y="916" type="line"/>
      <point x="496" y="916" type="line"/>
      <point x="496" y="0" type="line"/>
    </contour>
  </outline>
</glyph>
<glyph name="I" format="2">
  <advance width="1248"/>
  <unicode hex="0049"/>
  <unicode hex="E00C"/>
  <outline>
    <contour>
      <point x="136" y="1828" type="line"/>
      <point x="136" y="2048" type="line"/>
      <point x="1112" y="2048" type="line"/>
      <point x="1112" y="1828" type="line"/>
    </contour>
    <contour>
      <point x="136" y="0" type="line"/>
      <point x="136" y="220" type="line"/>
      <point x="1112" y="220" type="line"/>
      <point x="1112" y="0" type="line"/>
    </contour>
    <contour>
      <point x="748" y="2048" type="line"/>
      <point x="748" y="0" type="line"/>
      <point x="500" y="0" type="line"/>
      <point x="500" y="2048" type="line"/>
    </contour>
  </outline>
</glyph>
<glyph name="J" format="2">
  <advance width="1528"/>
  <unicode hex="004A"/>
  <outline>
    <contour>
      <point x="1032" y="2048" type="line"/>
      <point x="1280" y="2048" type="line"/>
      <point x="1280" y="584" type="line"/>
      <point x="1280" y="388"/>
      <point x="1136" y="114"/>
      <point x="874" y="-28"/>
      <point x="696" y="-28" type="qcurve"/>
      <point x="528" y="-28"/>
      <point x="266" y="95"/>
      <point x="116" y="323"/>
      <point x="116" y="480" type="qcurve"/>
      <point x="360" y="480" type="line"/>
      <point x="360" y="393"/>
      <point x="447" y="264"/>
      <point x="599" y="192"/>
      <point x="696" y="192" type="qcurve"/>
      <point x="803" y="192"/>
      <point x="953" y="282"/>
      <point x="1032" y="457"/>
      <point x="1032" y="584" type="qcurve"/>
    </contour>
    <contour>
      <point x="580" y="2048" type="line"/>
      <point x="1211" y="2048" type="line"/>
      <point x="1211" y="1814" type="line"/>
      <point x="580" y="1814" type="line"/>
    </contour>
  </outline>
</glyph>
<glyph name="K" format="2">
  <advance width="1836"/>
  <unicode hex="004B"/>
  <outline>
    <contour>
      <point x="248" y="0" type="line"/>
      <point x="248" y="2048" type="line"/>
      <point x="496" y="2048" type="line"/>
      <point x="496" y="1032" type="line"/>
      <point x="520" y="1032" type="line"/>
      <point x="1440" y="2048" type="line"/>
      <point x="1764" y="2048" type="line"/>
      <point x="904" y="1124" type="line"/>
      <point x="1764" y="0" type="line"/>
      <point x="1464" y="0" type="line"/>
      <point x="752" y="952" type="line"/>
      <point x="496" y="664" type="line"/>
      <point x="496" y="0" type="line"/>
    </contour>
  </outline>
</glyph>
<glyph name="L" format="2">
  <advance width="1584"/>
  <unicode hex="004C"/>
  <outline>
    <contour>
      <point x="248" y="0" type="line"/>
      <point x="248" y="2048" type="line"/>
      <point x="496" y="2048" type="line"/>
      <point x="496" y="220" type="line"/>
      <point x="1448" y="220" type="line"/>
      <point x="1448" y="0" type="line"/>
    </contour>
  </outline>
</glyph>
<glyph name="M" format="2">
  <advance width="2504"/>
  <unicode hex="004D"/>
  <outline>
    <contour>
      <point x="248" y="2048" type="line"/>
      <point x="544" y="2048" type="line"/>
      <point x="1240" y="348" type="line"/>
      <point x="1264" y="348" type="line"/>
      <point x="1960" y="2048" type="line"/>
      <point x="2256" y="2048" type="line"/>
      <point x="2256" y="0" type="line"/>
      <point x="2024" y="0" type="line"/>
      <point x="2024" y="1556" type="line"/>
      <point x="2004" y="1556" type="line"/>
      <point x="1364" y="0" type="line"/>
      <point x="1140" y="0" type="line"/>
      <point x="500" y="1556" type="line"/>
      <point x="480" y="1556" type="line"/>
      <point x="480" y="0" type="line"/>
      <point x="248" y="0" type="line"/>
    </contour>
  </outline>
</glyph>
<glyph name="N" format="2">
  <advance width="2120"/>
  <unicode hex="004E"/>
  <outline>
    <contour>
      <point x="1872" y="2048" type="line"/>
      <point x="1872" y="0" type="line"/>
      <point x="1632" y="0" type="line"/>
      <point x="516" y="1608" type="line"/>
      <point x="496" y="1608" type="line"/>
      <point x="496" y="0" type="line"/>
      <point x="248" y="0" type="line"/>
      <point x="248" y="2048" type="line"/>
      <point x="488" y="2048" type="line"/>
      <point x="1608" y="436" type="line"/>
      <point x="1628" y="436" type="line"/>
      <point x="1628" y="2048" type="line"/>
    </contour>
  </outline>
</glyph>
<glyph name="P" format="2">
  <advance width="1788"/>
  <unicode hex="0050"/>
  <outline>
    <contour>
      <point x="248" y="0" type="line"/>
      <point x="248" y="2048" type="line"/>
      <point x="940" y="2048" type="line"/>
      <point x="1181" y="2048"/>
      <point x="1488" y="1875"/>
      <point x="1636" y="1581"/>
      <point x="1636" y="1400" type="qcurve"/>
      <point x="1636" y="1219"/>
      <point x="1489" y="923"/>
      <point x="1183" y="748"/>
      <point x="944" y="748" type="qcurve"/>
      <point x="448" y="748" type="line"/>
      <point x="448" y="968" type="line"/>
      <point x="936" y="968" type="line"/>
      <point x="1101" y="968"/>
      <point x="1301" y="1082"/>
      <point x="1392" y="1277"/>
      <point x="1392" y="1400" type="qcurve"/>
      <point x="1392" y="1523"/>
      <point x="1301" y="1717"/>
      <point x="1099" y="1828"/>
      <point x="932" y="1828" type="qcurve"/>
      <point x="496" y="1828" type="line"/>
      <point x="496" y="0" type="line"/>
    </contour>
  </outline>
</glyph>
<glyph name="Q" format="2">
  <advance width="2144"/>
  <unicode hex="0051"/>
  <outline>
    <contour>
      <point x="992" y="640" type="line"/>
      <point x="1264" y="640" type="line"/>
      <point x="1492" y="340" type="line"/>
      <point x="1552" y="260" type="line"/>
      <point x="1892" y="-192" type="line"/>
      <point x="1620" y="-192" type="line"/>
      <point x="1396" y="108" type="line"/>
      <point x="1340" y="184" type="line"/>
    </contour>
    <contour>
      <point x="1976" y="1024" type="qcurve"/>
      <point x="1976" y="700"/>
      <point x="1742" y="228"/>
      <point x="1334" y="-28"/>
      <point x="1072" y="-28" type="qcurve"/>
      <point x="810" y="-28"/>
      <point x="402" y="228"/>
      <point x="168" y="700"/>
      <point x="168" y="1024" type="qcurve"/>
      <point x="168" y="1348"/>
      <point x="402" y="1820"/>
      <point x="810" y="2076"/>
      <point x="1072" y="2076" type="qcurve"/>
      <point x="1334" y="2076"/>
      <point x="1742" y="1820"/>
      <point x="1976" y="1348"/>
    </contour>
    <contour>
      <point x="1736" y="1024" type="qcurve"/>
      <point x="1736" y="1290"/>
      <point x="1559" y="1656"/>
      <point x="1258" y="1844"/>
      <point x="1072" y="1844" type="qcurve"/>
      <point x="886" y="1844"/>
      <point x="585" y="1656"/>
      <point x="408" y="1290"/>
      <point x="408" y="1024" type="qcurve"/>
      <point x="408" y="758"/>
      <point x="585" y="392"/>
      <point x="886" y="204"/>
      <point x="1072" y="204" type="qcurve"/>
      <point x="1258" y="204"/>
      <point x="1559" y="392"/>
      <point x="1736" y="758"/>
    </contour>
  </outline>
</glyph>
<glyph name="R" format="2">
  <advance width="1800"/>
  <unicode hex="0052"/>
  <outline>
    <contour>
      <point x="248" y="0" type="line"/>
      <point x="248" y="2048" type="line"/>
      <point x="940" y="2048" type="line"/>
      <point x="1180" y="2048"/>
      <point x="1488" y="1885"/>
      <point x="1636" y="1601"/>
      <point x="1636" y="1420" type="qcurve"/>
      <point x="1636" y="1239"/>
      <point x="1488" y="959"/>
      <point x="1182" y="800"/>
      <point x="944" y="800" type="qcurve"/>
      <point x="384" y="800" type="line"/>
      <point x="384" y="1024" type="line"/>
      <point x="936" y="1024" type="line"/>
      <point x="1100" y="1024"/>
      <point x="1301" y="1120"/>
      <point x="1392" y="1297"/>
      <point x="1392" y="1420" type="qcurve"/>
      <point x="1392" y="1543"/>
      <point x="1300" y="1727"/>
      <point x="1098" y="1828"/>
      <point x="932" y="1828" type="qcurve"/>
      <point x="496" y="1828" type="line"/>
      <point x="496" y="0" type="line"/>
    </contour>
    <contour>
      <point x="1212" y="920" type="line"/>
      <point x="1716" y="0" type="line"/>
      <point x="1428" y="0" type="line"/>
      <point x="932" y="920" type="line"/>
    </contour>
  </outline>
</glyph>
<glyph name="S" format="2">
  <advance width="1796"/>
  <unicode hex="0053"/>
  <outline>
    <contour>
      <point x="1368" y="1536" type="line"/>
      <point x="1350" y="1688"/>
      <point x="1094" y="1856"/>
      <point x="908" y="1856" type="qcurve"/>
      <point x="772" y="1856"/>
      <point x="569" y="1768"/>
      <point x="456" y="1614"/>
      <point x="456" y="1516" type="qcurve"/>
      <point x="456" y="1406"/>
      <point x="591" y="1271"/>
      <point x="776" y="1196"/>
      <point x="852" y="1176" type="qcurve"/>
      <point x="1060" y="1120" type="line"/>
      <point x="1140" y="1099"/>
      <point x="1337" y="1025"/>
      <point x="1518" y="898"/>
      <point x="1636" y="700"/>
      <point x="1636" y="556" type="qcurve"/>
      <point x="1636" y="390"/>
      <point x="1463" y="122"/>
      <point x="1132" y="-36"/>
      <point x="896" y="-36" type="qcurve"/>
      <point x="676" y="-36"/>
      <point x="355" y="106"/>
      <point x="172" y="360"/>
      <point x="160" y="528" type="qcurve"/>
      <point x="416" y="528" type="line"/>
      <point x="426" y="412"/>
      <point x="563" y="261"/>
      <point x="774" y="188"/>
      <point x="896" y="188" type="qcurve"/>
      <point x="1038" y="188"/>
      <point x="1264" y="281"/>
      <point x="1396" y="448"/>
      <point x="1396" y="560" type="qcurve"/>
      <point x="1396" y="662"/>
      <point x="1282" y="790"/>
      <point x="1096" y="870"/>
      <point x="988" y="900" type="qcurve"/>
      <point x="736" y="972" type="line"/>
      <point x="496" y="1041"/>
      <point x="216" y="1297"/>
      <point x="216" y="1504" type="qcurve"/>
      <point x="216" y="1676"/>
      <point x="403" y="1933"/>
      <point x="720" y="2076"/>
      <point x="916" y="2076" type="qcurve"/>
      <point x="1114" y="2076"/>
      <point x="1422" y="1935"/>
      <point x="1603" y="1691"/>
      <point x="1608" y="1536" type="qcurve"/>
    </contour>
  </outline>
</glyph>
<glyph name="T" format="2">
  <advance width="1808"/>
  <unicode hex="0054"/>
  <outline>
    <contour>
      <point x="136" y="1828" type="line"/>
      <point x="136" y="2048" type="line"/>
      <point x="1672" y="2048" type="line"/>
      <point x="1672" y="1828" type="line"/>
      <point x="1028" y="1828" type="line"/>
      <point x="1028" y="0" type="line"/>
      <point x="780" y="0" type="line"/>
      <point x="780" y="1828" type="line"/>
    </contour>
  </outline>
</glyph>
<glyph name="U" format="2">
  <advance width="2088"/>
  <unicode hex="0055"/>
  <outline>
    <contour>
      <point x="1592" y="2048" type="line"/>
      <point x="1840" y="2048" type="line"/>
      <point x="1840" y="692" type="line"/>
      <point x="1840" y="482"/>
      <point x="1643" y="153"/>
      <point x="1285" y="-36"/>
      <point x="1044" y="-36" type="qcurve"/>
      <point x="803" y="-36"/>
      <point x="445" y="153"/>
      <point x="248" y="482"/>
      <point x="248" y="692" type="qcurve"/>
      <point x="248" y="2048" type="line"/>
      <point x="496" y="2048" type="line"/>
      <point x="496" y="712" type="line"/>
      <point x="496" y="562"/>
      <point x="628" y="329"/>
      <point x="873" y="196"/>
      <point x="1044" y="196" type="qcurve"/>
      <point x="1215" y="196"/>
      <point x="1461" y="329"/>
      <point x="1592" y="562"/>
      <point x="1592" y="712" type="qcurve"/>
    </contour>
  </outline>
</glyph>
<glyph name="V" format="2">
  <advance width="1904"/>
  <unicode hex="0056"/>
  <outline>
    <contour>
      <point x="332" y="2048" type="line"/>
      <point x="940" y="324" type="line"/>
      <point x="964" y="324" type="line"/>
      <point x="1572" y="2048" type="line"/>
      <point x="1832" y="2048" type="line"/>
      <point x="1080" y="0" type="line"/>
      <point x="824" y="0" type="line"/>
      <point x="72" y="2048" type="line"/>
    </contour>
  </outline>
</glyph>
<glyph name="X" format="2">
  <advance width="1808"/>
  <unicode hex="0058"/>
  <outline>
    <contour>
      <point x="368" y="2048" type="line"/>
      <point x="896" y="1196" type="line"/>
      <point x="912" y="1196" type="line"/>
      <point x="1440" y="2048" type="line"/>
      <point x="1732" y="2048" type="line"/>
      <point x="1088" y="1024" type="line"/>
      <point x="1732" y="0" type="line"/>
      <point x="1440" y="0" type="line"/>
      <point x="912" y="836" type="line"/>
      <point x="896" y="836" type="line"/>
      <point x="368" y="0" type="line"/>
      <point x="76" y="0" type="line"/>
      <point x="736" y="1024" type="line"/>
      <point x="76" y="2048" type="line"/>
    </contour>
  </outline>
</glyph>
<glyph name="Y" format="2">
  <advance width="1872"/>
  <unicode hex="0059"/>
  <outline>
    <contour>
      <point x="72" y="2048" type="line"/>
      <point x="356" y="2048" type="line"/>
      <point x="924" y="1092" type="line"/>
      <point x="948" y="1092" type="line"/>
      <point x="1516" y="2048" type="line"/>
      <point x="1800" y="2048" type="line"/>
      <point x="1060" y="844" type="line"/>
      <point x="1060" y="0" type="line"/>
      <point x="812" y="0" type="line"/>
      <point x="812" y="844" type="line"/>
    </contour>
  </outline>
</glyph>
<glyph name="Z" format="2">
  <advance width="1760"/>
  <unicode hex="005A"/>
  <outline>
    <contour>
      <point x="180" y="0" type="line"/>
      <point x="180" y="180" type="line"/>
      <point x="1284" y="1828" type="line"/>
      <point x="168" y="1828" type="line"/>
      <point x="168" y="2048" type="line"/>
      <point x="1580" y="2048" type="line"/>
      <point x="1580" y="1868" type="line"/>
      <point x="476" y="220" type="line"/>
      <point x="1592" y="220" type="line"/>
      <point x="1592" y="0" type="line"/>
    </contour>
  </outline>
</glyph>
<glyph name="bracketleft" format="2">
  <advance width="1020"/>
  <unicode hex="005B"/>
  <outline>
    <contour>
      <point x="332" y="-416" type="line"/>
      <point x="332" y="2144" type="line"/>
      <point x="924" y="2144" type="line"/>
      <point x="924" y="1948" type="line"/>
      <point x="556" y="1948" type="line"/>
      <point x="556" y="-220" type="line"/>
      <point x="924" y="-220" type="line"/>
      <point x="924" y="-416" type="line"/>
    </contour>
  </outline>
</glyph>
<glyph name="backslash" format="2">
  <advance width="1004"/>
  <unicode hex="005C"/>
  <outline>
    <contour>
      <point x="724" y="-308" type="line"/>
      <point x="64" y="2144" type="line"/>
      <point x="280" y="2144" type="line"/>
      <point x="940" y="-308" type="line"/>
    </contour>
  </outline>
</glyph>
<glyph name="asciicircum" format="2">
  <advance width="1320"/>
  <unicode hex="005E"/>
  <outline>
    <contour>
      <point x="624" y="1872" type="line"/>
      <point x="696" y="1872" type="line"/>
      <point x="696" y="1772" type="line"/>
      <point x="624" y="1772" type="line"/>
    </contour>
    <contour>
      <point x="112" y="1120" type="line"/>
      <point x="524" y="1984" type="line"/>
      <point x="796" y="1984" type="line"/>
      <point x="1208" y="1120" type="line"/>
      <point x="972" y="1120" type="line"/>
      <point x="648" y="1812" type="line"/>
      <point x="672" y="1812" type="line"/>
      <point x="352" y="1120" type="line"/>
    </contour>
  </outline>
</glyph>
<glyph name="underscore" format="2">
  <advance width="1272"/>
  <unicode hex="005F"/>
  <outline>
    <contour>
      <point x="1276" y="0" type="line"/>
      <point x="1276" y="-220" type="line"/>
      <point x="-4" y="-220" type="line"/>
      <point x="-4" y="0" type="line"/>
    </contour>
  </outline>
</glyph>
<glyph name="grave" format="2">
  <advance width="1400"/>
  <unicode hex="0060"/>
  <outline>
    <contour>
      <point x="752" y="1744" type="line"/>
      <point x="440" y="2208" type="line"/>
      <point x="716" y="2208" type="line"/>
      <point x="960" y="1744" type="line"/>
    </contour>
  </outline>
</glyph>
<glyph name="b" format="2">
  <advance width="1748"/>
  <unicode hex="0062"/>
  <outline>
    <contour>
      <point x="248" y="0" type="line"/>
      <point x="248" y="2048" type="line"/>
      <point x="484" y="2048" type="line"/>
      <point x="484" y="1292" type="line"/>
      <point x="504" y="1292" type="line"/>
      <point x="530" y="1332"/>
      <point x="623" y="1457"/>
      <point x="798" y="1556"/>
      <point x="948" y="1556" type="qcurve"/>
      <point x="1142" y="1556"/>
      <point x="1438" y="1362"/>
      <point x="1604" y="1006"/>
      <point x="1604" y="764" type="qcurve"/>
      <point x="1604" y="520"/>
      <point x="1438" y="163"/>
      <point x="1144" y="-32"/>
      <point x="952" y="-32" type="qcurve"/>
      <point x="804" y="-32"/>
      <point x="626" y="67"/>
      <point x="530" y="194"/>
      <point x="504" y="236" type="qcurve"/>
      <point x="476" y="236" type="line"/>
      <point x="476" y="0" type="line"/>
    </contour>
    <contour>
      <point x="480" y="768" type="qcurve"/>
      <point x="480" y="594"/>
      <point x="582" y="329"/>
      <point x="778" y="180"/>
      <point x="920" y="180" type="qcurve"/>
      <point x="1068" y="180"/>
      <point x="1267" y="337"/>
      <point x="1368" y="604"/>
      <point x="1368" y="768" type="qcurve"/>
      <point x="1368" y="930"/>
      <point x="1269" y="1191"/>
      <point x="1070" y="1344"/>
      <point x="920" y="1344" type="qcurve"/>
      <point x="776" y="1344"/>
      <point x="580" y="1199"/>
      <point x="480" y="940"/>
    </contour>
  </outline>
</glyph>
<glyph name="f" format="2">
  <advance width="1016"/>
  <unicode hex="0066"/>
  <outline>
    <contour>
      <point x="900" y="1536" type="line"/>
      <point x="900" y="1336" type="line"/>
      <point x="72" y="1336" type="line"/>
      <point x="72" y="1536" type="line"/>
    </contour>
    <contour>
      <point x="320" y="0" type="line"/>
      <point x="320" y="1748" type="line"/>
      <point x="320" y="1880"/>
      <point x="444" y="2056"/>
      <point x="642" y="2144"/>
      <point x="752" y="2144" type="qcurve"/>
      <point x="839" y="2144"/>
      <point x="949" y="2116"/>
      <point x="976" y="2104" type="qcurve"/>
      <point x="908" y="1900" type="line"/>
      <point x="890" y="1906"/>
      <point x="827" y="1924"/>
      <point x="776" y="1924" type="qcurve"/>
      <point x="659" y="1924"/>
      <point x="556" y="1806"/>
      <point x="556" y="1692" type="qcurve"/>
      <point x="556" y="0" type="line"/>
    </contour>
  </outline>
</glyph>
<glyph name="g" format="2">
  <advance width="1716"/>
  <unicode hex="0067"/>
  <outline>
    <contour>
      <point x="804" y="-608" type="curve" smooth="yes"/>
      <point x="1175" y="-608"/>
      <point x="1468" y="-440"/>
      <point x="1468" y="-44" type="curve"/>
      <point x="1468" y="1536" type="line"/>
      <point x="1240" y="1536" type="line"/>
      <point x="1240" y="1292" type="line"/>
      <point x="1216" y="1292" type="line"/>
      <point x="1164" y="1372"/>
      <point x="1068" y="1556"/>
      <point x="768" y="1556" type="curve"/>
      <point x="380" y="1556"/>
      <point x="112" y="1260"/>
      <point x="112" y="788" type="curve"/>
      <point x="112" y="308"/>
      <point x="392" y="24"/>
      <point x="764" y="24" type="curve"/>
      <point x="1064" y="24"/>
      <point x="1160" y="200"/>
      <point x="1212" y="284" type="curve"/>
      <point x="1232" y="284" type="line"/>
      <point x="1232" y="-28" type="line"/>
      <point x="1232" y="-284"/>
      <point x="1069" y="-400"/>
      <point x="804" y="-400" type="curve"/>
      <point x="584" y="-400"/>
      <point x="436" y="-321"/>
      <point x="404" y="-162" type="curve"/>
      <point x="156" y="-162" type="line"/>
      <point x="184" y="-448"/>
      <point x="436" y="-608"/>
    </contour>
    <contour>
      <point x="796" y="236" type="curve" smooth="yes"/>
      <point x="500" y="236"/>
      <point x="348" y="460"/>
      <point x="348" y="780" type="curve"/>
      <point x="348" y="1092"/>
      <point x="496" y="1344"/>
      <point x="796" y="1344" type="curve"/>
      <point x="1084" y="1344"/>
      <point x="1236" y="1112"/>
      <point x="1236" y="780" type="curve"/>
      <point x="1236" y="440"/>
      <point x="1080" y="236"/>
    </contour>
  </outline>
</glyph>
<glyph name="h" format="2">
  <advance width="1664"/>
  <unicode hex="0068"/>
  <outline>
    <contour>
      <point x="452" y="924" type="qcurve"/>
      <point x="452" y="0" type="line"/>
      <point x="216" y="0" type="line"/>
      <point x="216" y="2048" type="line"/>
      <point x="452" y="2048" type="line"/>
      <point x="452" y="1296" type="line"/>
      <point x="472" y="1296" type="line"/>
      <point x="526" y="1415"/>
      <point x="743" y="1556"/>
      <point x="924" y="1556" type="qcurve"/>
      <point x="1081" y="1556"/>
      <point x="1317" y="1431"/>
      <point x="1448" y="1174"/>
      <point x="1448" y="976" type="qcurve"/>
      <point x="1448" y="0" type="line"/>
      <point x="1212" y="0" type="line"/>
      <point x="1212" y="960" type="line"/>
      <point x="1212" y="1143"/>
      <point x="1023" y="1344"/>
      <point x="856" y="1344" type="qcurve"/>
      <point x="740" y="1344"/>
      <point x="557" y="1246"/>
      <point x="452" y="1058"/>
    </contour>
  </outline>
</glyph>
<glyph name="i" format="2">
  <advance width="668"/>
  <unicode hex="0069"/>
  <outline>
    <contour>
      <point x="216" y="0" type="line"/>
      <point x="216" y="1536" type="line"/>
      <point x="452" y="1536" type="line"/>
      <point x="452" y="0" type="line"/>
    </contour>
    <contour>
      <point x="336" y="1792" type="qcurve"/>
      <point x="267" y="1792"/>
      <point x="168" y="1886"/>
      <point x="168" y="1952" type="qcurve"/>
      <point x="168" y="2018"/>
      <point x="267" y="2112"/>
      <point x="336" y="2112" type="qcurve"/>
      <point x="405" y="2112"/>
      <point x="504" y="2018"/>
      <point x="504" y="1952" type="qcurve"/>
      <point x="504" y="1886"/>
      <point x="405" y="1792"/>
    </contour>
  </outline>
</glyph>
<glyph name="k" format="2">
  <advance width="1532"/>
  <unicode hex="006B"/>
  <outline>
    <contour>
      <point x="436" y="560" type="line"/>
      <point x="432" y="852" type="line"/>
      <point x="480" y="852" type="line"/>
      <point x="1152" y="1536" type="line"/>
      <point x="1444" y="1536" type="line"/>
      <point x="728" y="812" type="line"/>
      <point x="708" y="812" type="line"/>
    </contour>
    <contour>
      <point x="216" y="0" type="line"/>
      <point x="216" y="2048" type="line"/>
      <point x="452" y="2048" type="line"/>
      <point x="452" y="0" type="line"/>
    </contour>
    <contour>
      <point x="1192" y="0" type="line"/>
      <point x="592" y="760" type="line"/>
      <point x="760" y="924" type="line"/>
      <point x="1492" y="0" type="line"/>
    </contour>
  </outline>
</glyph>
<glyph name="l" format="2">
  <advance width="728"/>
  <unicode hex="006C"/>
  <unicode hex="E050"/>
  <outline>
    <contour>
      <point x="216" y="2048" type="line"/>
      <point x="452" y="2048" type="line"/>
      <point x="452" y="400" type="line"/>
      <point x="452" y="288"/>
      <point x="502" y="198"/>
      <point x="580" y="200" type="qcurve"/>
      <point x="622" y="202"/>
      <point x="663" y="211"/>
      <point x="680" y="216" type="qcurve"/>
      <point x="728" y="12" type="line"/>
      <point x="697" y="3"/>
      <point x="603" y="-12"/>
      <point x="552" y="-12" type="qcurve"/>
      <point x="384" y="-12"/>
      <point x="216" y="172"/>
      <point x="216" y="336" type="qcurve"/>
    </contour>
  </outline>
</glyph>
<glyph name="m" format="2">
  <advance width="2448"/>
  <unicode hex="006D"/>
  <outline>
    <contour>
      <point x="216" y="0" type="line"/>
      <point x="216" y="1536" type="line"/>
      <point x="444" y="1536" type="line"/>
      <point x="444" y="1296" type="line"/>
      <point x="464" y="1296" type="line"/>
      <point x="512" y="1419"/>
      <point x="726" y="1556"/>
      <point x="876" y="1556" type="qcurve"/>
      <point x="1028" y="1556"/>
      <point x="1231" y="1419"/>
      <point x="1288" y="1296" type="qcurve"/>
      <point x="1304" y="1296" type="line"/>
      <point x="1363" y="1415"/>
      <point x="1599" y="1556"/>
      <point x="1764" y="1556" type="qcurve"/>
      <point x="1970" y="1556"/>
      <point x="2232" y="1299"/>
      <point x="2232" y="1028" type="qcurve"/>
      <point x="2232" y="0" type="line"/>
      <point x="1996" y="0" type="line"/>
      <point x="1996" y="1028" type="line"/>
      <point x="1996" y="1198"/>
      <point x="1810" y="1344"/>
      <point x="1684" y="1344" type="qcurve"/>
      <point x="1522" y="1344"/>
      <point x="1344" y="1149"/>
      <point x="1344" y="1000" type="qcurve"/>
      <point x="1344" y="0" type="line"/>
      <point x="1104" y="0" type="line"/>
      <point x="1104" y="1052" type="line"/>
      <point x="1104" y="1183"/>
      <point x="934" y="1344"/>
      <point x="800" y="1344" type="qcurve"/>
      <point x="708" y="1344"/>
      <point x="549" y="1246"/>
      <point x="452" y="1073"/>
      <point x="452" y="960" type="qcurve"/>
      <point x="452" y="0" type="line"/>
    </contour>
  </outline>
</glyph>
<glyph name="n" format="2">
  <advance width="1648"/>
  <unicode hex="006E"/>
  <outline>
    <contour>
      <point x="452" y="924" type="qcurve"/>
      <point x="452" y="0" type="line"/>
      <point x="216" y="0" type="line"/>
      <point x="216" y="1536" type="line"/>
      <point x="444" y="1536" type="line"/>
      <point x="444" y="1296" type="line"/>
      <point x="464" y="1296" type="line"/>
      <point x="518" y="1413"/>
      <point x="738" y="1556"/>
      <point x="912" y="1556" type="qcurve"/>
      <point x="1068" y="1556"/>
      <point x="1302" y="1429"/>
      <point x="1432" y="1172"/>
      <point x="1432" y="976" type="qcurve"/>
      <point x="1432" y="0" type="line"/>
      <point x="1196" y="0" type="line"/>
      <point x="1196" y="960" type="line"/>
      <point x="1196" y="1141"/>
      <point x="1008" y="1344"/>
      <point x="844" y="1344" type="qcurve"/>
      <point x="731" y="1344"/>
      <point x="554" y="1246"/>
      <point x="452" y="1058"/>
    </contour>
  </outline>
</glyph>
<glyph name="q" format="2">
  <advance width="1716"/>
  <unicode hex="0071"/>
  <outline>
    <contour>
      <point x="1264" y="-576" type="line"/>
      <point x="1264" y="236" type="line"/>
      <point x="1244" y="236" type="line"/>
      <point x="1218" y="194"/>
      <point x="1122" y="67"/>
      <point x="944" y="-32"/>
      <point x="796" y="-32" type="qcurve"/>
      <point x="604" y="-32"/>
      <point x="310" y="163"/>
      <point x="144" y="520"/>
      <point x="144" y="764" type="qcurve"/>
      <point x="144" y="1006"/>
      <point x="310" y="1362"/>
      <point x="606" y="1556"/>
      <point x="800" y="1556" type="qcurve"/>
      <point x="950" y="1556"/>
      <point x="1125" y="1457"/>
      <point x="1218" y="1332"/>
      <point x="1244" y="1292" type="qcurve"/>
      <point x="1272" y="1292" type="line"/>
      <point x="1272" y="1536" type="line"/>
      <point x="1500" y="1536" type="line"/>
      <point x="1500" y="-576" type="line"/>
    </contour>
    <contour>
      <point x="828" y="180" type="qcurve"/>
      <point x="970" y="180"/>
      <point x="1166" y="329"/>
      <point x="1268" y="594"/>
      <point x="1268" y="768" type="qcurve"/>
      <point x="1268" y="940"/>
      <point x="1168" y="1199"/>
      <point x="972" y="1344"/>
      <point x="828" y="1344" type="qcurve"/>
      <point x="678" y="1344"/>
      <point x="479" y="1191"/>
      <point x="380" y="930"/>
      <point x="380" y="768" type="qcurve"/>
      <point x="380" y="604"/>
      <point x="481" y="337"/>
      <point x="680" y="180"/>
    </contour>
  </outline>
</glyph>
<glyph name="s" format="2">
  <advance width="1472"/>
  <unicode hex="0073"/>
  <outline>
    <contour>
      <point x="1274" y="1138" type="line"/>
      <point x="1240" y="1387"/>
      <point x="1043" y="1556"/>
      <point x="728" y="1556" type="curve"/>
      <point x="393" y="1556"/>
      <point x="164" y="1366"/>
      <point x="164" y="1106" type="curve"/>
      <point x="164" y="900"/>
      <point x="306" y="754"/>
      <point x="572" y="692" type="curve"/>
      <point x="802" y="638" type="line"/>
      <point x="979" y="597"/>
      <point x="1056" y="525"/>
      <point x="1056" y="416" type="curve"/>
      <point x="1056" y="269"/>
      <point x="917" y="176"/>
      <point x="696" y="176" type="curve"/>
      <point x="501" y="176"/>
      <point x="390" y="249"/>
      <point x="362" y="400" type="curve"/>
      <point x="116" y="400" type="line"/>
      <point x="155" y="121"/>
      <point x="360" y="-32"/>
      <point x="700" y="-32" type="curve"/>
      <point x="1085" y="-32"/>
      <point x="1300" y="163"/>
      <point x="1300" y="428" type="curve"/>
      <point x="1300" y="642"/>
      <point x="1166" y="777"/>
      <point x="892" y="844" type="curve"/>
      <point x="664" y="900" type="line"/>
      <point x="483" y="944"/>
      <point x="400" y="1015"/>
      <point x="400" y="1118" type="curve"/>
      <point x="400" y="1248"/>
      <point x="535" y="1352"/>
      <point x="728" y="1352" type="curve"/>
      <point x="910" y="1352"/>
      <point x="1008" y="1267"/>
      <point x="1040" y="1138" type="curve"/>
    </contour>
  </outline>
</glyph>
<glyph name="u" format="2">
  <advance width="1636"/>
  <unicode hex="0075"/>
  <outline>
    <contour>
      <point x="1184" y="628" type="qcurve"/>
      <point x="1184" y="1536" type="line"/>
      <point x="1420" y="1536" type="line"/>
      <point x="1420" y="0" type="line"/>
      <point x="1184" y="0" type="line"/>
      <point x="1184" y="260" type="line"/>
      <point x="1168" y="260" type="line"/>
      <point x="1114" y="143"/>
      <point x="886" y="-20"/>
      <point x="712" y="-20" type="qcurve"/>
      <point x="568" y="-20"/>
      <point x="344" y="107"/>
      <point x="216" y="364"/>
      <point x="216" y="560" type="qcurve"/>
      <point x="216" y="1536" type="line"/>
      <point x="452" y="1536" type="line"/>
      <point x="452" y="576" type="line"/>
      <point x="452" y="408"/>
      <point x="641" y="208"/>
      <point x="788" y="208" type="qcurve"/>
      <point x="876" y="208"/>
      <point x="1059" y="298"/>
      <point x="1184" y="484"/>
    </contour>
  </outline>
</glyph>
<glyph name="v" format="2">
  <advance width="1568"/>
  <unicode hex="0076"/>
  <outline>
    <contour>
      <point x="1472" y="1536" type="line"/>
      <point x="904" y="0" type="line"/>
      <point x="664" y="0" type="line"/>
      <point x="96" y="1536" type="line"/>
      <point x="352" y="1536" type="line"/>
      <point x="776" y="312" type="line"/>
      <point x="792" y="312" type="line"/>
      <point x="1216" y="1536" type="line"/>
    </contour>
  </outline>
</glyph>
<glyph name="w" format="2">
  <advance width="2288"/>
  <unicode hex="0077"/>
  <outline>
    <contour>
      <point x="564" y="0" type="line"/>
      <point x="96" y="1536" type="line"/>
      <point x="344" y="1536" type="line"/>
      <point x="676" y="360" type="line"/>
      <point x="692" y="360" type="line"/>
      <point x="1020" y="1536" type="line"/>
      <point x="1272" y="1536" type="line"/>
      <point x="1596" y="364" type="line"/>
      <point x="1612" y="364" type="line"/>
      <point x="1944" y="1536" type="line"/>
      <point x="2192" y="1536" type="line"/>
      <point x="1724" y="0" type="line"/>
      <point x="1492" y="0" type="line"/>
      <point x="1156" y="1180" type="line"/>
      <point x="1132" y="1180" type="line"/>
      <point x="796" y="0" type="line"/>
    </contour>
  </outline>
</glyph>
<glyph name="x" format="2">
  <advance width="1520"/>
  <unicode hex="0078"/>
  <outline>
    <contour>
      <point x="392" y="1536" type="line"/>
      <point x="760" y="908" type="line"/>
      <point x="1128" y="1536" type="line"/>
      <point x="1400" y="1536" type="line"/>
      <point x="904" y="768" type="line"/>
      <point x="1400" y="0" type="line"/>
      <point x="1128" y="0" type="line"/>
      <point x="760" y="596" type="line"/>
      <point x="392" y="0" type="line"/>
      <point x="120" y="0" type="line"/>
      <point x="608" y="768" type="line"/>
      <point x="120" y="1536" type="line"/>
    </contour>
  </outline>
</glyph>
<glyph name="z" format="2">
  <advance width="1524"/>
  <unicode hex="007A"/>
  <outline>
    <contour>
      <point x="172" y="0" type="line"/>
      <point x="172" y="180" type="line"/>
      <point x="1044" y="1300" type="line"/>
      <point x="1044" y="1316" type="line"/>
      <point x="200" y="1316" type="line"/>
      <point x="200" y="1536" type="line"/>
      <point x="1348" y="1536" type="line"/>
      <point x="1348" y="1348" type="line"/>
      <point x="500" y="236" type="line"/>
      <point x="500" y="220" type="line"/>
      <point x="1376" y="220" type="line"/>
      <point x="1376" y="0" type="line"/>
    </contour>
  </outline>
</glyph>
<glyph name="braceleft" format="2">
  <advance width="1020"/>
  <unicode hex="007B"/>
  <outline>
    <contour>
      <point x="104" y="860" type="qcurve"/>
      <point x="104" y="984" type="line"/>
      <point x="271" y="984"/>
      <point x="404" y="1124"/>
      <point x="404" y="1288" type="qcurve"/>
      <point x="404" y="1608" type="line"/>
      <point x="404" y="1746"/>
      <point x="457" y="1948"/>
      <point x="577" y="2080"/>
      <point x="777" y="2144"/>
      <point x="924" y="2144" type="qcurve"/>
      <point x="924" y="1948" type="line"/>
      <point x="808" y="1948"/>
      <point x="675" y="1876"/>
      <point x="620" y="1725"/>
      <point x="620" y="1608" type="qcurve"/>
      <point x="620" y="1208" type="line"/>
      <point x="620" y="1130"/>
      <point x="579" y="1002"/>
      <point x="469" y="910"/>
      <point x="266" y="860"/>
    </contour>
    <contour>
      <point x="924" y="-416" type="line"/>
      <point x="777" y="-416"/>
      <point x="577" y="-352"/>
      <point x="457" y="-220"/>
      <point x="404" y="-18"/>
      <point x="404" y="120" type="qcurve"/>
      <point x="404" y="440" type="line"/>
      <point x="404" y="604"/>
      <point x="271" y="744"/>
      <point x="104" y="744" type="qcurve"/>
      <point x="104" y="868" type="line"/>
      <point x="266" y="868"/>
      <point x="469" y="818"/>
      <point x="579" y="726"/>
      <point x="620" y="598"/>
      <point x="620" y="520" type="qcurve"/>
      <point x="620" y="120" type="line"/>
      <point x="620" y="3"/>
      <point x="675" y="-147"/>
      <point x="808" y="-220"/>
      <point x="924" y="-220" type="qcurve"/>
    </contour>
    <contour>
      <point x="104" y="744" type="line"/>
      <point x="104" y="984" type="line"/>
      <point x="340" y="984" type="line"/>
      <point x="340" y="744" type="line"/>
    </contour>
  </outline>
</glyph>
<glyph name="bar" format="2">
  <advance width="920"/>
  <unicode hex="007C"/>
  <outline>
    <contour>
      <point x="560" y="2708" type="line"/>
      <point x="560" y="-660" type="line"/>
      <point x="360" y="-660" type="line"/>
      <point x="360" y="2708" type="line"/>
    </contour>
  </outline>
</glyph>
<glyph name="braceright" format="2">
  <advance width="1020"/>
  <unicode hex="007D"/>
  <outline>
    <contour>
      <point x="916" y="868" type="qcurve"/>
      <point x="916" y="744" type="line"/>
      <point x="749" y="744"/>
      <point x="616" y="604"/>
      <point x="616" y="440" type="qcurve"/>
      <point x="616" y="120" type="line"/>
      <point x="616" y="-18"/>
      <point x="563" y="-220"/>
      <point x="443" y="-352"/>
      <point x="243" y="-416"/>
      <point x="96" y="-416" type="qcurve"/>
      <point x="96" y="-220" type="line"/>
      <point x="212" y="-220"/>
      <point x="345" y="-147"/>
      <point x="400" y="3"/>
      <point x="400" y="120" type="qcurve"/>
      <point x="400" y="520" type="line"/>
      <point x="400" y="598"/>
      <point x="441" y="726"/>
      <point x="551" y="818"/>
      <point x="754" y="868"/>
    </contour>
    <contour>
      <point x="96" y="2144" type="line"/>
      <point x="243" y="2144"/>
      <point x="443" y="2080"/>
      <point x="563" y="1948"/>
      <point x="616" y="1746"/>
      <point x="616" y="1608" type="qcurve"/>
      <point x="616" y="1288" type="line"/>
      <point x="616" y="1124"/>
      <point x="749" y="984"/>
      <point x="916" y="984" type="qcurve"/>
      <point x="916" y="860" type="line"/>
      <point x="754" y="860"/>
      <point x="551" y="910"/>
      <point x="441" y="1002"/>
      <point x="400" y="1130"/>
      <point x="400" y="1208" type="qcurve"/>
      <point x="400" y="1608" type="line"/>
      <point x="400" y="1725"/>
      <point x="345" y="1876"/>
      <point x="212" y="1948"/>
      <point x="96" y="1948" type="qcurve"/>
    </contour>
    <contour>
      <point x="916" y="984" type="line"/>
      <point x="916" y="744" type="line"/>
      <point x="680" y="744" type="line"/>
      <point x="680" y="984" type="line"/>
    </contour>
  </outline>
</glyph>
<glyph name="asciitilde" format="2">
  <advance width="1856"/>
  <unicode hex="007E"/>
  <outline>
    <contour>
      <point x="232" y="608" type="line"/>
      <point x="229" y="774"/>
      <point x="343" y="976"/>
      <point x="526" y="1068"/>
      <point x="628" y="1068" type="qcurve"/>
      <point x="730" y="1068"/>
      <point x="899" y="979"/>
      <point x="1008" y="884" type="qcurve"/>
      <point x="1082" y="820"/>
      <point x="1171" y="768"/>
      <point x="1224" y="768" type="qcurve"/>
      <point x="1310" y="768"/>
      <point x="1410" y="893"/>
      <point x="1408" y="1012" type="qcurve"/>
      <point x="1624" y="1012" type="line"/>
      <point x="1627" y="846"/>
      <point x="1514" y="644"/>
      <point x="1330" y="552"/>
      <point x="1228" y="552" type="qcurve"/>
      <point x="1126" y="552"/>
      <point x="958" y="641"/>
      <point x="848" y="736" type="qcurve"/>
      <point x="775" y="800"/>
      <point x="685" y="852"/>
      <point x="632" y="852" type="qcurve"/>
      <point x="551" y="852"/>
      <point x="446" y="739"/>
      <point x="448" y="608" type="qcurve"/>
    </contour>
  </outline>
</glyph>
<glyph name="exclamdown" format="2">
  <advance width="784"/>
  <unicode hex="00A1"/>
  <outline>
    <contour>
      <point x="528" y="-520" type="line"/>
      <point x="256" y="-520" type="line"/>
      <point x="276" y="952" type="line"/>
      <point x="508" y="952" type="line"/>
    </contour>
    <contour>
      <point x="392" y="1544" type="qcurve"/>
      <point x="466" y="1544"/>
      <point x="572" y="1438"/>
      <point x="572" y="1364" type="qcurve"/>
      <point x="572" y="1290"/>
      <point x="466" y="1184"/>
      <point x="392" y="1184" type="qcurve"/>
      <point x="318" y="1184"/>
      <point x="212" y="1290"/>
      <point x="212" y="1364" type="qcurve"/>
      <point x="212" y="1438"/>
      <point x="318" y="1544"/>
    </contour>
  </outline>
</glyph>
<glyph name="cent" format="2">
  <advance width="1572"/>
  <unicode hex="00A2"/>
  <outline>
    <contour>
      <point x="744" y="0" type="line"/>
      <point x="744" y="2048" type="line"/>
      <point x="908" y="2048" type="line"/>
      <point x="908" y="0" type="line"/>
    </contour>
    <contour>
      <point x="840" y="230" type="qcurve"/>
      <point x="624" y="230"/>
      <point x="312" y="434"/>
      <point x="144" y="792"/>
      <point x="144" y="1022" type="qcurve"/>
      <point x="144" y="1256"/>
      <point x="317" y="1615"/>
      <point x="628" y="1818"/>
      <point x="836" y="1818" type="qcurve"/>
      <point x="998" y="1818"/>
      <point x="1258" y="1698"/>
      <point x="1424" y="1482"/>
      <point x="1444" y="1338" type="qcurve"/>
      <point x="1208" y="1338" type="line"/>
      <point x="1181" y="1443"/>
      <point x="996" y="1606"/>
      <point x="840" y="1606" type="qcurve"/>
      <point x="702" y="1606"/>
      <point x="495" y="1463"/>
      <point x="380" y="1204"/>
      <point x="380" y="1030" type="qcurve"/>
      <point x="380" y="852"/>
      <point x="493" y="588"/>
      <point x="700" y="442"/>
      <point x="840" y="442" type="qcurve"/>
      <point x="978" y="442"/>
      <point x="1175" y="584"/>
      <point x="1208" y="710" type="qcurve"/>
      <point x="1444" y="710" type="line"/>
      <point x="1424" y="574"/>
      <point x="1267" y="357"/>
      <point x="1010" y="230"/>
    </contour>
  </outline>
</glyph>
<glyph name="sterling" format="2">
  <advance width="1776"/>
  <unicode hex="00A3"/>
  <outline>
    <contour>
      <point x="1540" y="0" type="line"/>
      <point x="184" y="0" type="line"/>
      <point x="184" y="220" type="line"/>
      <point x="1540" y="220" type="line"/>
    </contour>
    <contour>
      <point x="1108" y="900" type="line"/>
      <point x="176" y="900" type="line"/>
      <point x="176" y="1128" type="line"/>
      <point x="1108" y="1128" type="line"/>
    </contour>
    <contour>
      <point x="612" y="1428" type="qcurve"/>
      <point x="644" y="560" type="line"/>
      <point x="650" y="434"/>
      <point x="593" y="221"/>
      <point x="512" y="164" type="qcurve"/>
      <point x="264" y="220" type="line"/>
      <point x="324" y="220"/>
      <point x="388" y="340"/>
      <point x="410" y="500"/>
      <point x="408" y="560" type="qcurve"/>
      <point x="380" y="1428" type="line"/>
      <point x="372" y="1646"/>
      <point x="547" y="1934"/>
      <point x="832" y="2076"/>
      <point x="988" y="2076" type="qcurve"/>
      <point x="1131" y="2076"/>
      <point x="1365" y="1973"/>
      <point x="1525" y="1799"/>
      <point x="1589" y="1582"/>
      <point x="1570" y="1532" type="qcurve"/>
      <point x="1328" y="1532" type="line"/>
      <point x="1342" y="1636"/>
      <point x="1251" y="1781"/>
      <point x="1090" y="1856"/>
      <point x="1000" y="1856" type="qcurve"/>
      <point x="904" y="1856"/>
      <point x="726" y="1765"/>
      <point x="612" y="1576"/>
    </contour>
  </outline>
</glyph>
<glyph name="currency" format="2">
  <advance width="2036"/>
  <unicode hex="00A4"/>
  <outline>
    <contour>
      <point x="1012" y="-28" type="qcurve"/>
      <point x="843" y="-28"/>
      <point x="547" y="103"/>
      <point x="322" y="339"/>
      <point x="196" y="653"/>
      <point x="196" y="836" type="qcurve"/>
      <point x="196" y="1019"/>
      <point x="322" y="1332"/>
      <point x="547" y="1566"/>
      <point x="843" y="1696"/>
      <point x="1012" y="1696" type="qcurve"/>
      <point x="1182" y="1696"/>
      <point x="1479" y="1566"/>
      <point x="1704" y="1332"/>
      <point x="1832" y="1019"/>
      <point x="1832" y="836" type="qcurve"/>
      <point x="1832" y="653"/>
      <point x="1704" y="339"/>
      <point x="1479" y="103"/>
      <point x="1182" y="-28"/>
    </contour>
    <contour>
      <point x="1012" y="192" type="qcurve"/>
      <point x="1176" y="192"/>
      <point x="1445" y="367"/>
      <point x="1604" y="660"/>
      <point x="1604" y="836" type="qcurve"/>
      <point x="1604" y="1014"/>
      <point x="1445" y="1306"/>
      <point x="1176" y="1480"/>
      <point x="1012" y="1480" type="qcurve"/>
      <point x="848" y="1480"/>
      <point x="577" y="1306"/>
      <point x="416" y="1014"/>
      <point x="416" y="836" type="qcurve"/>
      <point x="416" y="660"/>
      <point x="577" y="367"/>
      <point x="848" y="192"/>
    </contour>
    <contour>
      <point x="1592" y="1272" type="line"/>
      <point x="1432" y="1440" type="line"/>
      <point x="1708" y="1724" type="line"/>
      <point x="1872" y="1556" type="line"/>
    </contour>
    <contour>
      <point x="1708" y="-20" type="line"/>
      <point x="1432" y="264" type="line"/>
      <point x="1592" y="428" type="line"/>
      <point x="1872" y="148" type="line"/>
    </contour>
    <contour>
      <point x="324" y="-20" type="line"/>
      <point x="164" y="148" type="line"/>
      <point x="440" y="428" type="line"/>
      <point x="604" y="264" type="line"/>
    </contour>
    <contour>
      <point x="440" y="1272" type="line"/>
      <point x="164" y="1556" type="line"/>
      <point x="324" y="1724" type="line"/>
      <point x="604" y="1440" type="line"/>
    </contour>
  </outline>
</glyph>
<glyph name="yen" format="2">
  <advance width="1544"/>
  <unicode hex="00A5"/>
  <outline>
    <contour>
      <point x="316" y="2048" type="line"/>
      <point x="840" y="908" type="line"/>
      <point x="648" y="828" type="line"/>
      <point x="40" y="2048" type="line"/>
    </contour>
    <contour>
      <point x="704" y="908" type="line"/>
      <point x="1228" y="2048" type="line"/>
      <point x="1504" y="2048" type="line"/>
      <point x="896" y="828" type="line"/>
    </contour>
    <contour>
      <point x="896" y="1076" type="line"/>
      <point x="896" y="0" type="line"/>
      <point x="648" y="0" type="line"/>
      <point x="648" y="1076" type="line"/>
    </contour>
    <contour>
      <point x="1344" y="1020" type="line"/>
      <point x="1344" y="840" type="line"/>
      <point x="200" y="840" type="line"/>
      <point x="200" y="1020" type="line"/>
    </contour>
    <contour>
      <point x="1344" y="624" type="line"/>
      <point x="1344" y="444" type="line"/>
      <point x="200" y="444" type="line"/>
      <point x="200" y="624" type="line"/>
    </contour>
  </outline>
</glyph>
<glyph name="brokenbar" format="2">
  <advance width="748"/>
  <unicode hex="00A6"/>
  <outline>
    <contour>
      <point x="264" y="552" type="line"/>
      <point x="484" y="552" type="line"/>
      <point x="484" y="-384" type="line"/>
      <point x="264" y="-384" type="line"/>
    </contour>
    <contour>
      <point x="484" y="2048" type="line"/>
      <point x="484" y="1116" type="line"/>
      <point x="264" y="1116" type="line"/>
      <point x="264" y="2048" type="line"/>
    </contour>
  </outline>
</glyph>
<glyph name="section" format="2">
  <advance width="1552"/>
  <unicode hex="00A7"/>
  <outline>
    <contour>
      <point x="1272" y="1564" type="qcurve"/>
      <point x="1044" y="1564" type="line"/>
      <point x="1044" y="1693"/>
      <point x="913" y="1864"/>
      <point x="772" y="1864" type="qcurve"/>
      <point x="682" y="1864"/>
      <point x="567" y="1798"/>
      <point x="512" y="1698"/>
      <point x="512" y="1648" type="qcurve"/>
      <point x="512" y="1588"/>
      <point x="580" y="1483"/>
      <point x="680" y="1400"/>
      <point x="728" y="1372" type="qcurve"/>
      <point x="1116" y="1144" type="line"/>
      <point x="1155" y="1122"/>
      <point x="1255" y="1048"/>
      <point x="1347" y="941"/>
      <point x="1408" y="797"/>
      <point x="1408" y="704" type="qcurve"/>
      <point x="1408" y="630"/>
      <point x="1331" y="482"/>
      <point x="1204" y="368"/>
      <point x="1128" y="344" type="qcurve"/>
      <point x="1128" y="340" type="line"/>
      <point x="1200" y="277"/>
      <point x="1268" y="112"/>
      <point x="1268" y="16" type="qcurve"/>
      <point x="1268" y="-132"/>
      <point x="1124" y="-323"/>
      <point x="892" y="-416"/>
      <point x="760" y="-416" type="qcurve"/>
      <point x="602" y="-416"/>
      <point x="356" y="-291"/>
      <point x="216" y="-60"/>
      <point x="216" y="100" type="qcurve"/>
      <point x="448" y="100" type="line"/>
      <point x="448" y="-47"/>
      <point x="625" y="-204"/>
      <point x="760" y="-204" type="qcurve"/>
      <point x="871" y="-204"/>
      <point x="1040" y="-95"/>
      <point x="1040" y="16" type="qcurve"/>
      <point x="1040" y="92"/>
      <point x="972" y="194"/>
      <point x="872" y="264"/>
      <point x="824" y="292" type="qcurve"/>
      <point x="436" y="516" type="line"/>
      <point x="397" y="539"/>
      <point x="297" y="613"/>
      <point x="205" y="722"/>
      <point x="144" y="867"/>
      <point x="144" y="960" type="qcurve"/>
      <point x="144" y="1032"/>
      <point x="216" y="1182"/>
      <point x="342" y="1300"/>
      <point x="424" y="1324" type="qcurve"/>
      <point x="424" y="1332" type="line"/>
      <point x="361" y="1395"/>
      <point x="284" y="1552"/>
      <point x="284" y="1648" type="qcurve"/>
      <point x="284" y="1772"/>
      <point x="410" y="1965"/>
      <point x="630" y="2076"/>
      <point x="772" y="2076" type="qcurve"/>
      <point x="926" y="2076"/>
      <point x="1150" y="1945"/>
      <point x="1272" y="1714"/>
    </contour>
    <contour>
      <point x="1188" y="704" type="qcurve"/>
      <point x="1188" y="762"/>
      <point x="1134" y="859"/>
      <point x="1048" y="936"/>
      <point x="1000" y="964" type="qcurve"/>
      <point x="608" y="1192" type="line"/>
      <point x="564" y="1218"/>
      <point x="449" y="1168"/>
      <point x="364" y="1044"/>
      <point x="364" y="960" type="qcurve"/>
      <point x="364" y="864"/>
      <point x="481" y="741"/>
      <point x="556" y="696" type="qcurve"/>
      <point x="928" y="480" type="line"/>
      <point x="970" y="456"/>
      <point x="1093" y="504"/>
      <point x="1188" y="622"/>
    </contour>
  </outline>
</glyph>
<glyph name="dieresis" format="2">
  <advance width="1664"/>
  <unicode hex="00A8"/>
  <outline>
    <contour>
      <point x="544" y="1792" type="qcurve"/>
      <point x="481" y="1792"/>
      <point x="384" y="1889"/>
      <point x="384" y="1952" type="qcurve"/>
      <point x="384" y="2021"/>
      <point x="481" y="2112"/>
      <point x="544" y="2112" type="qcurve"/>
      <point x="613" y="2112"/>
      <point x="704" y="2021"/>
      <point x="704" y="1952" type="qcurve"/>
      <point x="704" y="1889"/>
      <point x="613" y="1792"/>
    </contour>
    <contour>
      <point x="1120" y="1792" type="qcurve"/>
      <point x="1057" y="1792"/>
      <point x="960" y="1889"/>
      <point x="960" y="1952" type="qcurve"/>
      <point x="960" y="2021"/>
      <point x="1057" y="2112"/>
      <point x="1120" y="2112" type="qcurve"/>
      <point x="1189" y="2112"/>
      <point x="1280" y="2021"/>
      <point x="1280" y="1952" type="qcurve"/>
      <point x="1280" y="1889"/>
      <point x="1189" y="1792"/>
    </contour>
  </outline>
</glyph>
<glyph name="copyright" format="2">
  <advance width="2576"/>
  <unicode hex="00A9"/>
  <outline>
    <contour>
      <point x="704" y="1024" type="qcurve"/>
      <point x="704" y="1188"/>
      <point x="864" y="1458"/>
      <point x="1134" y="1618"/>
      <point x="1298" y="1618" type="qcurve"/>
      <point x="1440" y="1618"/>
      <point x="1681" y="1496"/>
      <point x="1839" y="1285"/>
      <point x="1858" y="1152" type="qcurve"/>
      <point x="1616" y="1152" type="line"/>
      <point x="1596" y="1255"/>
      <point x="1414" y="1386"/>
      <point x="1298" y="1386" type="qcurve"/>
      <point x="1198" y="1386"/>
      <point x="1034" y="1288"/>
      <point x="936" y="1124"/>
      <point x="936" y="1024" type="qcurve"/>
      <point x="936" y="924"/>
      <point x="1034" y="760"/>
      <point x="1198" y="662"/>
      <point x="1298" y="662" type="qcurve"/>
      <point x="1414" y="662"/>
      <point x="1575" y="793"/>
      <point x="1596" y="896" type="qcurve"/>
      <point x="1838" y="896" type="line"/>
      <point x="1819" y="763"/>
      <point x="1671" y="552"/>
      <point x="1440" y="430"/>
      <point x="1298" y="430" type="qcurve"/>
      <point x="1134" y="430"/>
      <point x="864" y="590"/>
      <point x="704" y="860"/>
    </contour>
    <contour>
      <point x="1288" y="-32" type="qcurve"/>
      <point x="1070" y="-32"/>
      <point x="687" y="132"/>
      <point x="396" y="423"/>
      <point x="231" y="805"/>
      <point x="232" y="1024" type="qcurve"/>
      <point x="233" y="1243"/>
      <point x="398" y="1625"/>
      <point x="688" y="1916"/>
      <point x="1070" y="2080"/>
      <point x="1288" y="2080" type="qcurve"/>
      <point x="1507" y="2080"/>
      <point x="1890" y="1916"/>
      <point x="2179" y="1625"/>
      <point x="2343" y="1243"/>
      <point x="2344" y="1024" type="qcurve"/>
      <point x="2345" y="805"/>
      <point x="2181" y="423"/>
      <point x="1891" y="132"/>
      <point x="1507" y="-32"/>
    </contour>
    <contour>
      <point x="1288" y="200" type="qcurve"/>
      <point x="1459" y="200"/>
      <point x="1759" y="328"/>
      <point x="1985" y="554"/>
      <point x="2113" y="853"/>
      <point x="2112" y="1023" type="qcurve"/>
      <point x="2111" y="1194"/>
      <point x="1983" y="1494"/>
      <point x="1757" y="1720"/>
      <point x="1459" y="1848"/>
      <point x="1288" y="1848" type="qcurve"/>
      <point x="1118" y="1848"/>
      <point x="820" y="1720"/>
      <point x="594" y="1493"/>
      <point x="465" y="1194"/>
      <point x="464" y="1023" type="qcurve"/>
      <point x="463" y="854"/>
      <point x="591" y="555"/>
      <point x="818" y="329"/>
      <point x="1117" y="200"/>
    </contour>
  </outline>
</glyph>
<glyph name="ordfeminine" format="2">
  <advance width="1264"/>
  <unicode hex="00AA"/>
  <outline>
    <contour>
      <point x="800" y="1184" type="qcurve"/>
      <point x="800" y="1652" type="line"/>
      <point x="800" y="1739"/>
      <point x="721" y="1828"/>
      <point x="640" y="1828" type="qcurve"/>
      <point x="550" y="1828"/>
      <point x="448" y="1758"/>
      <point x="448" y="1692" type="qcurve"/>
      <point x="212" y="1712" type="line"/>
      <point x="212" y="1850"/>
      <point x="445" y="2032"/>
      <point x="640" y="2032" type="qcurve"/>
      <point x="820" y="2032"/>
      <point x="1040" y="1841"/>
      <point x="1040" y="1652" type="qcurve"/>
      <point x="1040" y="1220" type="line"/>
      <point x="1040" y="1154"/>
      <point x="1055" y="1032"/>
      <point x="1076" y="972" type="qcurve"/>
      <point x="832" y="972" type="line"/>
      <point x="817" y="1020"/>
      <point x="800" y="1130"/>
    </contour>
    <contour>
      <point x="860" y="1584" type="line"/>
      <point x="860" y="1424" type="line"/>
      <point x="660" y="1424" type="line"/>
      <point x="540" y="1424"/>
      <point x="432" y="1332"/>
      <point x="432" y="1272" type="qcurve"/>
      <point x="432" y="1215"/>
      <point x="508" y="1152"/>
      <point x="592" y="1152" type="qcurve"/>
      <point x="648" y="1152"/>
      <point x="763" y="1202"/>
      <point x="840" y="1274"/>
      <point x="840" y="1308" type="qcurve"/>
      <point x="864" y="1148" type="line"/>
      <point x="834" y="1082"/>
      <point x="673" y="952"/>
      <point x="532" y="952" type="qcurve"/>
      <point x="367" y="952"/>
      <point x="188" y="1123"/>
      <point x="188" y="1264" type="qcurve"/>
      <point x="188" y="1417"/>
      <point x="423" y="1584"/>
      <point x="660" y="1584" type="qcurve"/>
    </contour>
  </outline>
</glyph>
<glyph name="logicalnot" format="2">
  <advance width="1520"/>
  <unicode hex="00AC"/>
  <outline>
    <contour>
      <point x="1336" y="1108" type="line"/>
      <point x="1336" y="872" type="line"/>
      <point x="188" y="872" type="line"/>
      <point x="188" y="1108" type="line"/>
    </contour>
    <contour>
      <point x="1336" y="1000" type="line"/>
      <point x="1336" y="516" type="line"/>
      <point x="1060" y="516" type="line"/>
      <point x="1060" y="1000" type="line"/>
    </contour>
  </outline>
</glyph>
<glyph name="registered" format="2">
  <advance width="1888"/>
  <unicode hex="00AE"/>
  <outline>
    <contour>
      <point x="664" y="916" type="line"/>
      <point x="664" y="1654" type="line"/>
      <point x="1038" y="1654" type="line"/>
      <point x="1083" y="1654"/>
      <point x="1189" y="1603"/>
      <point x="1264" y="1498"/>
      <point x="1264" y="1418" type="qcurve"/>
      <point x="1264" y="1337"/>
      <point x="1186" y="1224"/>
      <point x="1075" y="1166"/>
      <point x="1026" y="1166" type="qcurve"/>
      <point x="756" y="1166" type="line"/>
      <point x="756" y="1286" type="line"/>
      <point x="976" y="1286" type="line"/>
      <point x="1009" y="1286"/>
      <point x="1086" y="1352"/>
      <point x="1086" y="1418" type="qcurve"/>
      <point x="1086" y="1486"/>
      <point x="1009" y="1534"/>
      <point x="980" y="1534" type="qcurve"/>
      <point x="826" y="1534" type="line"/>
      <point x="826" y="916" type="line"/>
    </contour>
    <contour>
      <point x="1110" y="1264" type="line"/>
      <point x="1294" y="916" type="line"/>
      <point x="1116" y="916" type="line"/>
      <point x="936" y="1264" type="line"/>
    </contour>
    <contour>
      <point x="944" y="476" type="qcurve"/>
      <point x="778" y="476"/>
      <point x="488" y="600"/>
      <point x="268" y="820"/>
      <point x="144" y="1110"/>
      <point x="144" y="1276" type="qcurve"/>
      <point x="144" y="1442"/>
      <point x="268" y="1732"/>
      <point x="488" y="1952"/>
      <point x="778" y="2076"/>
      <point x="944" y="2076" type="qcurve"/>
      <point x="1110" y="2076"/>
      <point x="1400" y="1952"/>
      <point x="1620" y="1732"/>
      <point x="1744" y="1442"/>
      <point x="1744" y="1276" type="qcurve"/>
      <point x="1744" y="1110"/>
      <point x="1620" y="820"/>
      <point x="1400" y="600"/>
      <point x="1110" y="476"/>
    </contour>
    <contour>
      <point x="944" y="668" type="qcurve"/>
      <point x="1112" y="668"/>
      <point x="1388" y="832"/>
      <point x="1552" y="1108"/>
      <point x="1552" y="1276" type="qcurve"/>
      <point x="1552" y="1444"/>
      <point x="1388" y="1720"/>
      <point x="1112" y="1884"/>
      <point x="944" y="1884" type="qcurve"/>
      <point x="776" y="1884"/>
      <point x="500" y="1720"/>
      <point x="336" y="1444"/>
      <point x="336" y="1276" type="qcurve"/>
      <point x="336" y="1108"/>
      <point x="500" y="832"/>
      <point x="776" y="668"/>
    </contour>
  </outline>
</glyph>
<glyph name="macron" format="2">
  <advance width="1264"/>
  <unicode hex="00AF"/>
  <outline>
    <contour>
      <point x="1100" y="2048" type="line"/>
      <point x="1100" y="1848" type="line"/>
      <point x="164" y="1848" type="line"/>
      <point x="164" y="2048" type="line"/>
    </contour>
  </outline>
</glyph>
<glyph name="degree" format="2">
  <advance width="1280"/>
  <unicode hex="00B0"/>
  <outline>
    <contour>
      <point x="640" y="1144" type="qcurve"/>
      <point x="513" y="1144"/>
      <point x="304" y="1268"/>
      <point x="180" y="1477"/>
      <point x="180" y="1604" type="qcurve"/>
      <point x="180" y="1731"/>
      <point x="304" y="1940"/>
      <point x="513" y="2064"/>
      <point x="640" y="2064" type="qcurve"/>
      <point x="767" y="2064"/>
      <point x="976" y="1940"/>
      <point x="1100" y="1731"/>
      <point x="1100" y="1604" type="qcurve"/>
      <point x="1100" y="1477"/>
      <point x="976" y="1268"/>
      <point x="767" y="1144"/>
    </contour>
    <contour>
      <point x="640" y="1344" type="qcurve"/>
      <point x="712" y="1344"/>
      <point x="830" y="1414"/>
      <point x="900" y="1532"/>
      <point x="900" y="1604" type="qcurve"/>
      <point x="900" y="1676"/>
      <point x="830" y="1794"/>
      <point x="712" y="1864"/>
      <point x="640" y="1864" type="qcurve"/>
      <point x="568" y="1864"/>
      <point x="450" y="1794"/>
      <point x="380" y="1676"/>
      <point x="380" y="1604" type="qcurve"/>
      <point x="380" y="1532"/>
      <point x="450" y="1414"/>
      <point x="568" y="1344"/>
    </contour>
  </outline>
</glyph>
<glyph name="plusminus" format="2">
  <advance width="1856"/>
  <unicode hex="00B1"/>
  <outline>
    <contour>
      <point x="284" y="96" type="line"/>
      <point x="284" y="320" type="line"/>
      <point x="1572" y="320" type="line"/>
      <point x="1572" y="96" type="line"/>
    </contour>
    <contour>
      <point x="284" y="904" type="line"/>
      <point x="284" y="1128" type="line"/>
      <point x="1572" y="1128" type="line"/>
      <point x="1572" y="904" type="line"/>
    </contour>
    <contour>
      <point x="816" y="496" type="line"/>
      <point x="816" y="1536" type="line"/>
      <point x="1040" y="1536" type="line"/>
      <point x="1040" y="496" type="line"/>
    </contour>
  </outline>
</glyph>
<glyph name="twosuperior" format="2">
  <advance width="1184"/>
  <unicode hex="00B2"/>
  <outline>
    <contour>
      <point x="140" y="1024" type="line"/>
      <point x="140" y="1180" type="line"/>
      <point x="608" y="1596" type="line"/>
      <point x="713" y="1689"/>
      <point x="820" y="1822"/>
      <point x="820" y="1900" type="qcurve"/>
      <point x="820" y="1990"/>
      <point x="682" y="2096"/>
      <point x="580" y="2096" type="qcurve"/>
      <point x="472" y="2096"/>
      <point x="340" y="1981"/>
      <point x="340" y="1888" type="qcurve"/>
      <point x="132" y="1888" type="line"/>
      <point x="132" y="2059"/>
      <point x="386" y="2268"/>
      <point x="584" y="2268" type="qcurve"/>
      <point x="716" y="2268"/>
      <point x="916" y="2173"/>
      <point x="1028" y="2008"/>
      <point x="1028" y="1904" type="qcurve"/>
      <point x="1028" y="1822"/>
      <point x="962" y="1682"/>
      <point x="822" y="1532"/>
      <point x="712" y="1436" type="qcurve"/>
      <point x="452" y="1208" type="line"/>
      <point x="452" y="1200" type="line"/>
      <point x="1064" y="1200" type="line"/>
      <point x="1064" y="1024" type="line"/>
    </contour>
  </outline>
</glyph>
<glyph name="threesuperior" format="2">
  <advance width="1212"/>
  <unicode hex="00B3"/>
  <outline>
    <contour>
      <point x="604" y="1008" type="qcurve"/>
      <point x="466" y="1008"/>
      <point x="249" y="1100"/>
      <point x="122" y="1262"/>
      <point x="120" y="1368" type="qcurve"/>
      <point x="340" y="1368" type="line"/>
      <point x="343" y="1287"/>
      <point x="493" y="1188"/>
      <point x="604" y="1188" type="qcurve"/>
      <point x="721" y="1188"/>
      <point x="872" y="1296"/>
      <point x="872" y="1380" type="qcurve"/>
      <point x="872" y="1464"/>
      <point x="711" y="1572"/>
      <point x="576" y="1572" type="qcurve"/>
      <point x="476" y="1572" type="line"/>
      <point x="476" y="1732" type="line"/>
      <point x="576" y="1732" type="line"/>
      <point x="687" y="1732"/>
      <point x="836" y="1832"/>
      <point x="836" y="1916" type="qcurve"/>
      <point x="836" y="1994"/>
      <point x="710" y="2096"/>
      <point x="608" y="2096" type="qcurve"/>
      <point x="506" y="2096"/>
      <point x="359" y="1996"/>
      <point x="356" y="1912" type="qcurve"/>
      <point x="148" y="1912" type="line"/>
      <point x="150" y="2018"/>
      <point x="273" y="2178"/>
      <point x="480" y="2268"/>
      <point x="608" y="2268" type="qcurve"/>
      <point x="738" y="2268"/>
      <point x="936" y="2180"/>
      <point x="1048" y="2026"/>
      <point x="1048" y="1928" type="qcurve"/>
      <point x="1048" y="1820"/>
      <point x="900" y="1682"/>
      <point x="792" y="1664" type="qcurve"/>
      <point x="792" y="1656" type="line"/>
      <point x="939" y="1635"/>
      <point x="1096" y="1475"/>
      <point x="1096" y="1364" type="qcurve"/>
      <point x="1096" y="1262"/>
      <point x="970" y="1101"/>
      <point x="748" y="1008"/>
    </contour>
  </outline>
</glyph>
<glyph name="acute" format="2">
  <advance width="1400"/>
  <unicode hex="00B4"/>
  <outline>
    <contour>
      <point x="560" y="1744" type="line"/>
      <point x="804" y="2208" type="line"/>
      <point x="1080" y="2208" type="line"/>
      <point x="768" y="1744" type="line"/>
    </contour>
  </outline>
</glyph>
<glyph name="mu" format="2">
  <advance width="1752"/>
  <unicode hex="00B5"/>
  <outline>
    <contour>
      <point x="216" y="-576" type="line"/>
      <point x="216" y="1536" type="line"/>
      <point x="452" y="1536" type="line"/>
      <point x="452" y="628" type="line"/>
      <point x="452" y="503"/>
      <point x="557" y="314"/>
      <point x="748" y="208"/>
      <point x="876" y="208" type="qcurve"/>
      <point x="1004" y="208"/>
      <point x="1195" y="315"/>
      <point x="1300" y="504"/>
      <point x="1300" y="628" type="qcurve"/>
      <point x="1300" y="1536" type="line"/>
      <point x="1536" y="1536" type="line"/>
      <point x="1536" y="0" type="line"/>
      <point x="1300" y="0" type="line"/>
      <point x="1300" y="228" type="line"/>
      <point x="1288" y="228" type="line"/>
      <point x="1226" y="107"/>
      <point x="1004" y="-20"/>
      <point x="876" y="-20" type="qcurve"/>
      <point x="748" y="-20"/>
      <point x="527" y="107"/>
      <point x="464" y="228" type="qcurve"/>
      <point x="452" y="228" type="line"/>
      <point x="452" y="-576" type="line"/>
    </contour>
  </outline>
</glyph>
<glyph name="paragraph" format="2">
  <advance width="1688"/>
  <unicode hex="00B6"/>
  <outline>
    <contour>
      <point x="1440" y="1828" type="line"/>
      <point x="944" y="1828" type="line"/>
      <point x="944" y="760" type="line"/>
      <point x="828" y="760" type="line"/>
      <point x="610" y="760"/>
      <point x="308" y="927"/>
      <point x="152" y="1218"/>
      <point x="152" y="1404" type="qcurve"/>
      <point x="152" y="1588"/>
      <point x="308" y="1879"/>
      <point x="610" y="2048"/>
      <point x="828" y="2048" type="qcurve"/>
      <point x="1440" y="2048" type="line"/>
    </contour>
    <contour>
      <point x="1192" y="0" type="line"/>
      <point x="1192" y="2048" type="line"/>
      <point x="1440" y="2048" type="line"/>
      <point x="1440" y="0" type="line"/>
    </contour>
  </outline>
</glyph>
<glyph name="cedilla" format="2">
  <advance width="752"/>
  <unicode hex="00B8"/>
  <outline>
    <contour>
      <point x="280" y="8" type="line"/>
      <point x="476" y="8" type="line"/>
      <point x="460" y="-72" type="line"/>
      <point x="538" y="-84"/>
      <point x="668" y="-191"/>
      <point x="668" y="-308" type="qcurve"/>
      <point x="668" y="-437"/>
      <point x="455" y="-600"/>
      <point x="248" y="-600" type="qcurve"/>
      <point x="240" y="-444" type="line"/>
      <point x="333" y="-444"/>
      <point x="456" y="-385"/>
      <point x="456" y="-316" type="qcurve"/>
      <point x="456" y="-247"/>
      <point x="354" y="-197"/>
      <point x="240" y="-188" type="qcurve"/>
    </contour>
  </outline>
</glyph>
<glyph name="onesuperior" format="2">
  <advance width="882"/>
  <unicode hex="00B9"/>
  <outline>
    <contour>
      <point x="438" y="1024" type="line"/>
      <point x="438" y="2034" type="line"/>
      <point x="428" y="2034" type="line"/>
      <point x="112" y="1824" type="line"/>
      <point x="112" y="2036" type="line"/>
      <point x="438" y="2252" type="line"/>
      <point x="646" y="2252" type="line"/>
      <point x="646" y="1024" type="line"/>
    </contour>
  </outline>
</glyph>
<glyph name="ordmasculine" format="2">
  <advance width="1264"/>
  <unicode hex="00BA"/>
  <outline>
    <contour>
      <point x="156" y="1436" type="qcurve"/>
      <point x="156" y="1544" type="line"/>
      <point x="156" y="1757"/>
      <point x="413" y="2032"/>
      <point x="632" y="2032" type="qcurve"/>
      <point x="854" y="2032"/>
      <point x="1108" y="1757"/>
      <point x="1108" y="1544" type="qcurve"/>
      <point x="1108" y="1436" type="line"/>
      <point x="1108" y="1223"/>
      <point x="855" y="952"/>
      <point x="636" y="952" type="qcurve"/>
      <point x="414" y="952"/>
      <point x="156" y="1223"/>
    </contour>
    <contour>
      <point x="396" y="1544" type="qcurve"/>
      <point x="396" y="1436" type="line"/>
      <point x="396" y="1313"/>
      <point x="516" y="1152"/>
      <point x="636" y="1152" type="qcurve"/>
      <point x="753" y="1152"/>
      <point x="868" y="1313"/>
      <point x="868" y="1436" type="qcurve"/>
      <point x="868" y="1544" type="line"/>
      <point x="868" y="1664"/>
      <point x="752" y="1828"/>
      <point x="632" y="1828" type="qcurve"/>
      <point x="515" y="1828"/>
      <point x="396" y="1664"/>
    </contour>
  </outline>
</glyph>
<glyph name="questiondown" format="2">
  <advance width="1428"/>
  <unicode hex="00BF"/>
  <outline>
    <contour>
      <point x="776" y="1548" type="qcurve"/>
      <point x="850" y="1548"/>
      <point x="956" y="1442"/>
      <point x="956" y="1368" type="qcurve"/>
      <point x="956" y="1294"/>
      <point x="850" y="1188"/>
      <point x="776" y="1188" type="qcurve"/>
      <point x="702" y="1188"/>
      <point x="596" y="1294"/>
      <point x="596" y="1368" type="qcurve"/>
      <point x="596" y="1442"/>
      <point x="702" y="1548"/>
    </contour>
    <contour>
      <point x="904" y="956" type="line"/>
      <point x="904" y="944" type="line"/>
      <point x="903" y="754"/>
      <point x="826" y="527"/>
      <point x="686" y="388"/>
      <point x="588" y="328" type="qcurve"/>
      <point x="500" y="275"/>
      <point x="380" y="103"/>
      <point x="380" y="-16" type="qcurve"/>
      <point x="380" y="-114"/>
      <point x="472" y="-258"/>
      <point x="626" y="-336"/>
      <point x="720" y="-336" type="qcurve"/>
      <point x="802" y="-336"/>
      <point x="954" y="-268"/>
      <point x="1057" y="-122"/>
      <point x="1064" y="-4" type="qcurve"/>
      <point x="1316" y="-4" type="line"/>
      <point x="1309" y="-174"/>
      <point x="1147" y="-416"/>
      <point x="882" y="-544"/>
      <point x="720" y="-544" type="qcurve"/>
      <point x="544" y="-544"/>
      <point x="283" y="-404"/>
      <point x="140" y="-160"/>
      <point x="140" y="-4" type="qcurve"/>
      <point x="140" y="162"/>
      <point x="288" y="398"/>
      <point x="420" y="478" type="qcurve"/>
      <point x="508" y="533"/>
      <point x="614" y="654"/>
      <point x="662" y="820"/>
      <point x="664" y="944" type="qcurve"/>
      <point x="664" y="956" type="line"/>
    </contour>
  </outline>
</glyph>
<glyph name="Adieresis" format="2">
  <advance width="1904"/>
  <unicode hex="00C4"/>
  <outline>
    <contour>
      <point x="332" y="0" type="line"/>
      <point x="72" y="0" type="line"/>
      <point x="824" y="2048" type="line"/>
      <point x="1080" y="2048" type="line"/>
      <point x="1832" y="0" type="line"/>
      <point x="1572" y="0" type="line"/>
      <point x="960" y="1724" type="line"/>
      <point x="944" y="1724" type="line"/>
    </contour>
    <contour>
      <point x="428" y="800" type="line"/>
      <point x="1476" y="800" type="line"/>
      <point x="1476" y="580" type="line"/>
      <point x="428" y="580" type="line"/>
    </contour>
    <contour>
      <point x="664" y="2304" type="qcurve"/>
      <point x="601" y="2304"/>
      <point x="504" y="2401"/>
      <point x="504" y="2464" type="qcurve"/>
      <point x="504" y="2533"/>
      <point x="601" y="2624"/>
      <point x="664" y="2624" type="qcurve"/>
      <point x="733" y="2624"/>
      <point x="824" y="2533"/>
      <point x="824" y="2464" type="qcurve"/>
      <point x="824" y="2401"/>
      <point x="733" y="2304"/>
    </contour>
    <contour>
      <point x="1240" y="2304" type="qcurve"/>
      <point x="1177" y="2304"/>
      <point x="1080" y="2401"/>
      <point x="1080" y="2464" type="qcurve"/>
      <point x="1080" y="2533"/>
      <point x="1177" y="2624"/>
      <point x="1240" y="2624" type="qcurve"/>
      <point x="1309" y="2624"/>
      <point x="1400" y="2533"/>
      <point x="1400" y="2464" type="qcurve"/>
      <point x="1400" y="2401"/>
      <point x="1309" y="2304"/>
    </contour>
  </outline>
</glyph>
<glyph name="Aring" format="2">
  <advance width="1904"/>
  <unicode hex="00C5"/>
  <outline>
    <contour>
      <point x="332" y="0" type="line"/>
      <point x="72" y="0" type="line"/>
      <point x="824" y="2048" type="line"/>
      <point x="1080" y="2048" type="line"/>
      <point x="1832" y="0" type="line"/>
      <point x="1572" y="0" type="line"/>
      <point x="960" y="1724" type="line"/>
      <point x="944" y="1724" type="line"/>
    </contour>
    <contour>
      <point x="428" y="800" type="line"/>
      <point x="1476" y="800" type="line"/>
      <point x="1476" y="580" type="line"/>
      <point x="428" y="580" type="line"/>
    </contour>
    <contour>
      <point x="952" y="2188" type="qcurve"/>
      <point x="832" y="2188"/>
      <point x="662" y="2358"/>
      <point x="662" y="2478" type="qcurve"/>
      <point x="662" y="2598"/>
      <point x="832" y="2768"/>
      <point x="952" y="2768" type="qcurve"/>
      <point x="1072" y="2768"/>
      <point x="1242" y="2598"/>
      <point x="1242" y="2478" type="qcurve"/>
      <point x="1242" y="2358"/>
      <point x="1072" y="2188"/>
    </contour>
    <contour>
      <point x="952" y="2332" type="qcurve"/>
      <point x="1014" y="2332"/>
      <point x="1096" y="2417"/>
      <point x="1096" y="2478" type="qcurve"/>
      <point x="1096" y="2539"/>
      <point x="1014" y="2624"/>
      <point x="952" y="2624" type="qcurve"/>
      <point x="890" y="2624"/>
      <point x="808" y="2539"/>
      <point x="808" y="2478" type="qcurve"/>
      <point x="808" y="2417"/>
      <point x="890" y="2332"/>
    </contour>
  </outline>
</glyph>
<glyph name="AE" format="2">
  <advance width="2788"/>
  <unicode hex="00C6"/>
  <outline>
    <contour>
      <point x="72" y="0" type="line"/>
      <point x="1064" y="2048" type="line"/>
      <point x="2588" y="2048" type="line"/>
      <point x="2588" y="1828" type="line"/>
      <point x="1600" y="1828" type="line"/>
      <point x="1600" y="1136" type="line"/>
      <point x="2524" y="1136" type="line"/>
      <point x="2524" y="916" type="line"/>
      <point x="1600" y="916" type="line"/>
      <point x="1600" y="220" type="line"/>
      <point x="2604" y="220" type="line"/>
      <point x="2604" y="0" type="line"/>
      <point x="1352" y="0" type="line"/>
      <point x="1352" y="1828" type="line"/>
      <point x="1204" y="1828" type="line"/>
      <point x="344" y="0" type="line"/>
    </contour>
    <contour>
      <point x="508" y="580" type="line"/>
      <point x="508" y="800" type="line"/>
      <point x="1476" y="800" type="line"/>
      <point x="1476" y="580" type="line"/>
    </contour>
  </outline>
</glyph>
<glyph name="multiply" format="2">
  <advance width="1856"/>
  <unicode hex="00D7"/>
  <outline>
    <contour>
      <point x="1416" y="160" type="line"/>
      <point x="288" y="1288" type="line"/>
      <point x="440" y="1440" type="line"/>
      <point x="1568" y="312" type="line"/>
    </contour>
    <contour>
      <point x="440" y="160" type="line"/>
      <point x="288" y="312" type="line"/>
      <point x="1416" y="1440" type="line"/>
      <point x="1568" y="1288" type="line"/>
    </contour>
  </outline>
</glyph>
<glyph name="Thorn" format="2">
  <advance width="1776"/>
  <unicode hex="00DE"/>
  <outline>
    <contour>
      <point x="232" y="2048" type="line"/>
      <point x="480" y="2048" type="line"/>
      <point x="480" y="0" type="line"/>
      <point x="232" y="0" type="line"/>
    </contour>
    <contour>
      <point x="348" y="1624" type="line"/>
      <point x="876" y="1624" type="line"/>
      <point x="1094" y="1624"/>
      <point x="1396" y="1465"/>
      <point x="1552" y="1198"/>
      <point x="1552" y="1036" type="qcurve"/>
      <point x="1552" y="874"/>
      <point x="1396" y="607"/>
      <point x="1094" y="448"/>
      <point x="876" y="448" type="qcurve"/>
      <point x="348" y="448" type="line"/>
      <point x="348" y="668" type="line"/>
      <point x="876" y="668" type="line"/>
      <point x="1018" y="668"/>
      <point x="1214" y="753"/>
      <point x="1316" y="916"/>
      <point x="1316" y="1032" type="qcurve"/>
      <point x="1316" y="1148"/>
      <point x="1214" y="1315"/>
      <point x="1018" y="1404"/>
      <point x="876" y="1404" type="qcurve"/>
      <point x="348" y="1404" type="line"/>
    </contour>
  </outline>
</glyph>
<glyph name="germandbls" format="2">
  <advance width="1716"/>
  <unicode hex="00DF"/>
  <outline>
    <contour>
      <point x="248" y="0" type="line"/>
      <point x="248" y="1524" type="line"/>
      <point x="248" y="1695"/>
      <point x="399" y="1943"/>
      <point x="666" y="2076"/>
      <point x="840" y="2076" type="qcurve"/>
      <point x="1010" y="2076"/>
      <point x="1280" y="1948"/>
      <point x="1436" y="1712"/>
      <point x="1436" y="1548" type="qcurve"/>
      <point x="1436" y="1373"/>
      <point x="1256" y="1134"/>
      <point x="1112" y="1084" type="qcurve"/>
      <point x="1112" y="1064" type="line"/>
      <point x="1307" y="1045"/>
      <point x="1556" y="778"/>
      <point x="1556" y="564" type="qcurve"/>
      <point x="1556" y="402"/>
      <point x="1408" y="147"/>
      <point x="1140" y="0"/>
      <point x="960" y="0" type="qcurve"/>
      <point x="736" y="0" type="line"/>
      <point x="736" y="220" type="line"/>
      <point x="964" y="220" type="line"/>
      <point x="1073" y="220"/>
      <point x="1232" y="308"/>
      <point x="1320" y="464"/>
      <point x="1320" y="564" type="qcurve"/>
      <point x="1320" y="722"/>
      <point x="1106" y="928"/>
      <point x="924" y="928" type="qcurve"/>
      <point x="744" y="928" type="line"/>
      <point x="744" y="1152" type="line"/>
      <point x="872" y="1152" type="line"/>
      <point x="973" y="1152"/>
      <point x="1120" y="1255"/>
      <point x="1200" y="1420"/>
      <point x="1200" y="1512" type="qcurve"/>
      <point x="1200" y="1656"/>
      <point x="1009" y="1856"/>
      <point x="844" y="1856" type="qcurve"/>
      <point x="689" y="1856"/>
      <point x="484" y="1671"/>
      <point x="484" y="1524" type="qcurve"/>
      <point x="484" y="0" type="line"/>
    </contour>
  </outline>
</glyph>
<glyph name="adieresis" format="2">
  <advance width="1588"/>
  <unicode hex="00E4"/>
  <outline>
    <contour>
      <point x="668" y="-36" type="qcurve"/>
      <point x="522" y="-36"/>
      <point x="284" y="75"/>
      <point x="144" y="286"/>
      <point x="144" y="436" type="qcurve"/>
      <point x="144" y="568"/>
      <point x="248" y="733"/>
      <point x="422" y="827"/>
      <point x="633" y="874"/>
      <point x="740" y="888" type="qcurve"/>
      <point x="880" y="906"/>
      <point x="1055" y="925"/>
      <point x="1136" y="971"/>
      <point x="1136" y="1028" type="qcurve"/>
      <point x="1136" y="1036" type="line"/>
      <point x="1136" y="1184"/>
      <point x="929" y="1348"/>
      <point x="766" y="1348" type="qcurve"/>
      <point x="597" y="1348"/>
      <point x="424" y="1200"/>
      <point x="412" y="1116" type="qcurve"/>
      <point x="188" y="1116" type="line"/>
      <point x="196" y="1221"/>
      <point x="308" y="1385"/>
      <point x="479" y="1497"/>
      <point x="671" y="1556"/>
      <point x="758" y="1556" type="qcurve"/>
      <point x="832" y="1556"/>
      <point x="1038" y="1521"/>
      <point x="1239" y="1413"/>
      <point x="1372" y="1195"/>
      <point x="1372" y="1012" type="qcurve"/>
      <point x="1372" y="0" type="line"/>
      <point x="1136" y="0" type="line"/>
      <point x="1136" y="208" type="line"/>
      <point x="1124" y="208" type="line"/>
      <point x="1100" y="158"/>
      <point x="988" y="44"/>
      <point x="802" y="-36"/>
    </contour>
    <contour>
      <point x="704" y="176" type="qcurve"/>
      <point x="844" y="176"/>
      <point x="1037" y="286"/>
      <point x="1136" y="460"/>
      <point x="1136" y="556" type="qcurve"/>
      <point x="1136" y="772" type="line"/>
      <point x="1121" y="754"/>
      <point x="1020" y="725"/>
      <point x="889" y="704"/>
      <point x="766" y="689"/>
      <point x="728" y="684" type="qcurve"/>
      <point x="636" y="672"/>
      <point x="477" y="619"/>
      <point x="380" y="514"/>
      <point x="380" y="424" type="qcurve"/>
      <point x="380" y="301"/>
      <point x="563" y="176"/>
    </contour>
    <contour>
      <point x="532" y="1792" type="qcurve"/>
      <point x="469" y="1792"/>
      <point x="372" y="1889"/>
      <point x="372" y="1952" type="qcurve"/>
      <point x="372" y="2021"/>
      <point x="469" y="2112"/>
      <point x="532" y="2112" type="qcurve"/>
      <point x="601" y="2112"/>
      <point x="692" y="2021"/>
      <point x="692" y="1952" type="qcurve"/>
      <point x="692" y="1889"/>
      <point x="601" y="1792"/>
    </contour>
    <contour>
      <point x="1108" y="1792" type="qcurve"/>
      <point x="1045" y="1792"/>
      <point x="948" y="1889"/>
      <point x="948" y="1952" type="qcurve"/>
      <point x="948" y="2021"/>
      <point x="1045" y="2112"/>
      <point x="1108" y="2112" type="qcurve"/>
      <point x="1177" y="2112"/>
      <point x="1268" y="2021"/>
      <point x="1268" y="1952" type="qcurve"/>
      <point x="1268" y="1889"/>
      <point x="1177" y="1792"/>
    </contour>
  </outline>
</glyph>
<glyph name="aring" format="2">
  <advance width="1588"/>
  <unicode hex="00E5"/>
  <outline>
    <contour>
      <point x="668" y="-36" type="qcurve"/>
      <point x="522" y="-36"/>
      <point x="284" y="75"/>
      <point x="144" y="286"/>
      <point x="144" y="436" type="qcurve"/>
      <point x="144" y="568"/>
      <point x="248" y="733"/>
      <point x="422" y="827"/>
      <point x="633" y="874"/>
      <point x="740" y="888" type="qcurve"/>
      <point x="880" y="906"/>
      <point x="1055" y="925"/>
      <point x="1136" y="971"/>
      <point x="1136" y="1028" type="qcurve"/>
      <point x="1136" y="1036" type="line"/>
      <point x="1136" y="1184"/>
      <point x="929" y="1348"/>
      <point x="766" y="1348" type="qcurve"/>
      <point x="597" y="1348"/>
      <point x="424" y="1200"/>
      <point x="412" y="1116" type="qcurve"/>
      <point x="188" y="1116" type="line"/>
      <point x="196" y="1221"/>
      <point x="308" y="1385"/>
      <point x="479" y="1497"/>
      <point x="671" y="1556"/>
      <point x="758" y="1556" type="qcurve"/>
      <point x="832" y="1556"/>
      <point x="1038" y="1521"/>
      <point x="1239" y="1413"/>
      <point x="1372" y="1195"/>
      <point x="1372" y="1012" type="qcurve"/>
      <point x="1372" y="0" type="line"/>
      <point x="1136" y="0" type="line"/>
      <point x="1136" y="208" type="line"/>
      <point x="1124" y="208" type="line"/>
      <point x="1100" y="158"/>
      <point x="988" y="44"/>
      <point x="802" y="-36"/>
    </contour>
    <contour>
      <point x="704" y="176" type="qcurve"/>
      <point x="844" y="176"/>
      <point x="1037" y="286"/>
      <point x="1136" y="460"/>
      <point x="1136" y="556" type="qcurve"/>
      <point x="1136" y="772" type="line"/>
      <point x="1121" y="754"/>
      <point x="1020" y="725"/>
      <point x="889" y="704"/>
      <point x="766" y="689"/>
      <point x="728" y="684" type="qcurve"/>
      <point x="636" y="672"/>
      <point x="477" y="619"/>
      <point x="380" y="514"/>
      <point x="380" y="424" type="qcurve"/>
      <point x="380" y="301"/>
      <point x="563" y="176"/>
    </contour>
    <contour>
      <point x="820" y="1708" type="qcurve"/>
      <point x="718" y="1708"/>
      <point x="553" y="1798"/>
      <point x="456" y="1952"/>
      <point x="456" y="2048" type="qcurve"/>
      <point x="456" y="2144"/>
      <point x="553" y="2304"/>
      <point x="718" y="2400"/>
      <point x="820" y="2400" type="qcurve"/>
      <point x="922" y="2400"/>
      <point x="1085" y="2304"/>
      <point x="1180" y="2144"/>
      <point x="1180" y="2048" type="qcurve"/>
      <point x="1180" y="1952"/>
      <point x="1085" y="1798"/>
      <point x="922" y="1708"/>
    </contour>
    <contour>
      <point x="820" y="1860" type="qcurve"/>
      <point x="904" y="1860"/>
      <point x="1012" y="1976"/>
      <point x="1012" y="2048" type="qcurve"/>
      <point x="1012" y="2123"/>
      <point x="904" y="2244"/>
      <point x="820" y="2244" type="qcurve"/>
      <point x="736" y="2244"/>
      <point x="628" y="2123"/>
      <point x="628" y="2048" type="qcurve"/>
      <point x="628" y="1976"/>
      <point x="736" y="1860"/>
    </contour>
  </outline>
</glyph>
<glyph name="ae" format="2">
  <advance width="2604"/>
  <unicode hex="00E6"/>
  <outline>
    <contour>
      <point x="1824" y="-32" type="qcurve"/>
      <point x="1569" y="-32"/>
      <point x="1231" y="219"/>
      <point x="1192" y="420" type="qcurve"/>
      <point x="1236" y="1184" type="line"/>
      <point x="1311" y="1358"/>
      <point x="1596" y="1556"/>
      <point x="1800" y="1556" type="qcurve"/>
      <point x="1920" y="1556"/>
      <point x="2154" y="1476"/>
      <point x="2346" y="1297"/>
      <point x="2460" y="1003"/>
      <point x="2460" y="788" type="qcurve"/>
      <point x="2460" y="688" type="line"/>
      <point x="1276" y="688" type="line"/>
      <point x="1276" y="892" type="line"/>
      <point x="2220" y="892" type="line"/>
      <point x="2220" y="1022"/>
      <point x="2117" y="1226"/>
      <point x="1928" y="1344"/>
      <point x="1800" y="1344" type="qcurve"/>
      <point x="1659" y="1344"/>
      <point x="1454" y="1205"/>
      <point x="1344" y="982"/>
      <point x="1344" y="856" type="qcurve"/>
      <point x="1344" y="720" type="line"/>
      <point x="1344" y="546"/>
      <point x="1466" y="305"/>
      <point x="1682" y="180"/>
      <point x="1824" y="180" type="qcurve"/>
      <point x="1917" y="180"/>
      <point x="2068" y="233"/>
      <point x="2178" y="340"/>
      <point x="2208" y="420" type="qcurve"/>
      <point x="2456" y="420" type="line"/>
      <point x="2400" y="240"/>
      <point x="2230" y="65"/>
      <point x="1980" y="-32"/>
    </contour>
    <contour>
      <point x="704" y="176" type="qcurve"/>
      <point x="844" y="176"/>
      <point x="1037" y="286"/>
      <point x="1136" y="460"/>
      <point x="1136" y="556" type="qcurve"/>
      <point x="1136" y="772" type="line"/>
      <point x="1121" y="754"/>
      <point x="1020" y="725"/>
      <point x="889" y="704"/>
      <point x="766" y="689"/>
      <point x="728" y="684" type="qcurve"/>
      <point x="636" y="672"/>
      <point x="477" y="619"/>
      <point x="380" y="514"/>
      <point x="380" y="424" type="qcurve"/>
      <point x="380" y="301"/>
      <point x="563" y="176"/>
    </contour>
    <contour>
      <point x="668" y="-36" type="qcurve"/>
      <point x="522" y="-36"/>
      <point x="284" y="75"/>
      <point x="144" y="286"/>
      <point x="144" y="436" type="qcurve"/>
      <point x="144" y="568"/>
      <point x="249" y="733"/>
      <point x="422" y="828"/>
      <point x="634" y="875"/>
      <point x="740" y="888" type="qcurve"/>
      <point x="880" y="906"/>
      <point x="1055" y="926"/>
      <point x="1136" y="972"/>
      <point x="1136" y="1028" type="qcurve"/>
      <point x="1136" y="1036" type="line"/>
      <point x="1136" y="1183"/>
      <point x="974" y="1348"/>
      <point x="812" y="1348" type="qcurve"/>
      <point x="644" y="1348"/>
      <point x="451" y="1200"/>
      <point x="442" y="1116" type="qcurve"/>
      <point x="198" y="1116" type="line"/>
      <point x="248" y="1336"/>
      <point x="449" y="1493"/>
      <point x="688" y="1556"/>
      <point x="804" y="1556" type="qcurve"/>
      <point x="866" y="1556"/>
      <point x="1022" y="1533"/>
      <point x="1180" y="1465"/>
      <point x="1310" y="1331"/>
      <point x="1344" y="1220" type="qcurve"/>
      <point x="1252" y="280" type="line"/>
      <point x="1232" y="280" type="line"/>
      <point x="1202" y="194"/>
      <point x="1037" y="50"/>
      <point x="802" y="-36"/>
    </contour>
  </outline>
</glyph>
<glyph name="edieresis" format="2">
  <advance width="1640"/>
  <unicode hex="00EB"/>
  <outline>
    <contour>
      <point x="860" y="-32" type="qcurve"/>
      <point x="638" y="-32"/>
      <point x="317" y="165"/>
      <point x="144" y="520"/>
      <point x="144" y="756" type="qcurve"/>
      <point x="144" y="992"/>
      <point x="317" y="1353"/>
      <point x="628" y="1556"/>
      <point x="836" y="1556" type="qcurve"/>
      <point x="956" y="1556"/>
      <point x="1190" y="1476"/>
      <point x="1382" y="1297"/>
      <point x="1496" y="1003"/>
      <point x="1496" y="788" type="qcurve"/>
      <point x="1496" y="688" type="line"/>
      <point x="312" y="688" type="line"/>
      <point x="312" y="892" type="line"/>
      <point x="1256" y="892" type="line"/>
      <point x="1256" y="1022"/>
      <point x="1153" y="1226"/>
      <point x="964" y="1344"/>
      <point x="836" y="1344" type="qcurve"/>
      <point x="695" y="1344"/>
      <point x="490" y="1205"/>
      <point x="380" y="983"/>
      <point x="380" y="856" type="qcurve"/>
      <point x="380" y="720" type="line"/>
      <point x="380" y="546"/>
      <point x="501" y="305"/>
      <point x="717" y="180"/>
      <point x="860" y="180" type="qcurve"/>
      <point x="953" y="180"/>
      <point x="1104" y="233"/>
      <point x="1214" y="340"/>
      <point x="1244" y="420" type="qcurve"/>
      <point x="1472" y="356" type="line"/>
      <point x="1436" y="240"/>
      <point x="1266" y="65"/>
      <point x="1016" y="-32"/>
    </contour>
    <contour>
      <point x="536" y="1792" type="qcurve"/>
      <point x="473" y="1792"/>
      <point x="376" y="1889"/>
      <point x="376" y="1952" type="qcurve"/>
      <point x="376" y="2021"/>
      <point x="473" y="2112"/>
      <point x="536" y="2112" type="qcurve"/>
      <point x="605" y="2112"/>
      <point x="696" y="2021"/>
      <point x="696" y="1952" type="qcurve"/>
      <point x="696" y="1889"/>
      <point x="605" y="1792"/>
    </contour>
    <contour>
      <point x="1112" y="1792" type="qcurve"/>
      <point x="1049" y="1792"/>
      <point x="952" y="1889"/>
      <point x="952" y="1952" type="qcurve"/>
      <point x="952" y="2021"/>
      <point x="1049" y="2112"/>
      <point x="1112" y="2112" type="qcurve"/>
      <point x="1181" y="2112"/>
      <point x="1272" y="2021"/>
      <point x="1272" y="1952" type="qcurve"/>
      <point x="1272" y="1889"/>
      <point x="1181" y="1792"/>
    </contour>
  </outline>
</glyph>
<glyph name="idieresis" format="2">
  <advance width="668"/>
  <unicode hex="00EF"/>
  <outline>
    <contour>
      <point x="216" y="0" type="line"/>
      <point x="216" y="1536" type="line"/>
      <point x="452" y="1536" type="line"/>
      <point x="452" y="0" type="line"/>
    </contour>
    <contour>
      <point x="48" y="1792" type="qcurve"/>
      <point x="-15" y="1792"/>
      <point x="-112" y="1889"/>
      <point x="-112" y="1952" type="qcurve"/>
      <point x="-112" y="2021"/>
      <point x="-15" y="2112"/>
      <point x="48" y="2112" type="qcurve"/>
      <point x="117" y="2112"/>
      <point x="208" y="2021"/>
      <point x="208" y="1952" type="qcurve"/>
      <point x="208" y="1889"/>
      <point x="117" y="1792"/>
    </contour>
    <contour>
      <point x="624" y="1792" type="qcurve"/>
      <point x="561" y="1792"/>
      <point x="464" y="1889"/>
      <point x="464" y="1952" type="qcurve"/>
      <point x="464" y="2021"/>
      <point x="561" y="2112"/>
      <point x="624" y="2112" type="qcurve"/>
      <point x="693" y="2112"/>
      <point x="784" y="2021"/>
      <point x="784" y="1952" type="qcurve"/>
      <point x="784" y="1889"/>
      <point x="693" y="1792"/>
    </contour>
  </outline>
</glyph>
<glyph name="eth" format="2">
  <advance width="1632"/>
  <unicode hex="00F0"/>
  <outline>
    <contour>
      <point x="1328" y="1948" type="line"/>
      <point x="508" y="1552" type="line"/>
      <point x="440" y="1700" type="line"/>
      <point x="1260" y="2096" type="line"/>
    </contour>
    <contour>
      <point x="816" y="-32" type="qcurve"/>
      <point x="610" y="-32"/>
      <point x="308" y="158"/>
      <point x="144" y="490"/>
      <point x="144" y="704" type="qcurve"/>
      <point x="144" y="922"/>
      <point x="308" y="1254"/>
      <point x="586" y="1440"/>
      <point x="756" y="1440" type="qcurve"/>
      <point x="872" y="1440"/>
      <point x="1046" y="1360"/>
      <point x="1166" y="1240"/>
      <point x="1200" y="1180" type="qcurve"/>
      <point x="1220" y="1180" type="line"/>
      <point x="1176" y="1304"/>
      <point x="1000" y="1596"/>
      <point x="694" y="1886"/>
      <point x="456" y="2008" type="qcurve"/>
      <point x="560" y="2176" type="line"/>
      <point x="728" y="2089"/>
      <point x="1057" y="1819"/>
      <point x="1327" y="1460"/>
      <point x="1488" y="1015"/>
      <point x="1488" y="752" type="qcurve"/>
      <point x="1488" y="504"/>
      <point x="1320" y="153"/>
      <point x="1018" y="-32"/>
    </contour>
    <contour>
      <point x="816" y="180" type="qcurve"/>
      <point x="962" y="180"/>
      <point x="1160" y="316"/>
      <point x="1260" y="546"/>
      <point x="1260" y="688" type="qcurve"/>
      <point x="1260" y="818"/>
      <point x="1170" y="1074"/>
      <point x="974" y="1244"/>
      <point x="816" y="1244" type="qcurve"/>
      <point x="670" y="1244"/>
      <point x="476" y="1094"/>
      <point x="380" y="848"/>
      <point x="380" y="704" type="qcurve"/>
      <point x="380" y="568"/>
      <point x="470" y="329"/>
      <point x="662" y="180"/>
    </contour>
  </outline>
</glyph>
<glyph name="odieresis" format="2">
  <advance width="1680"/>
  <unicode hex="00F6"/>
  <outline>
    <contour>
      <point x="840" y="-32" type="qcurve"/>
      <point x="632" y="-32"/>
      <point x="319" y="166"/>
      <point x="144" y="522"/>
      <point x="144" y="760" type="qcurve"/>
      <point x="144" y="1000"/>
      <point x="319" y="1358"/>
      <point x="632" y="1556"/>
      <point x="840" y="1556" type="qcurve"/>
      <point x="1048" y="1556"/>
      <point x="1361" y="1358"/>
      <point x="1536" y="1000"/>
      <point x="1536" y="760" type="qcurve"/>
      <point x="1536" y="522"/>
      <point x="1361" y="166"/>
      <point x="1048" y="-32"/>
    </contour>
    <contour>
      <point x="840" y="180" type="qcurve"/>
      <point x="998" y="180"/>
      <point x="1202" y="342"/>
      <point x="1300" y="606"/>
      <point x="1300" y="760" type="qcurve"/>
      <point x="1300" y="914"/>
      <point x="1202" y="1180"/>
      <point x="998" y="1344"/>
      <point x="840" y="1344" type="qcurve"/>
      <point x="682" y="1344"/>
      <point x="478" y="1180"/>
      <point x="380" y="914"/>
      <point x="380" y="760" type="qcurve"/>
      <point x="380" y="606"/>
      <point x="478" y="342"/>
      <point x="682" y="180"/>
    </contour>
    <contour>
      <point x="552" y="1792" type="qcurve"/>
      <point x="489" y="1792"/>
      <point x="392" y="1889"/>
      <point x="392" y="1952" type="qcurve"/>
      <point x="392" y="2021"/>
      <point x="489" y="2112"/>
      <point x="552" y="2112" type="qcurve"/>
      <point x="621" y="2112"/>
      <point x="712" y="2021"/>
      <point x="712" y="1952" type="qcurve"/>
      <point x="712" y="1889"/>
      <point x="621" y="1792"/>
    </contour>
    <contour>
      <point x="1128" y="1792" type="qcurve"/>
      <point x="1065" y="1792"/>
      <point x="968" y="1889"/>
      <point x="968" y="1952" type="qcurve"/>
      <point x="968" y="2021"/>
      <point x="1065" y="2112"/>
      <point x="1128" y="2112" type="qcurve"/>
      <point x="1197" y="2112"/>
      <point x="1288" y="2021"/>
      <point x="1288" y="1952" type="qcurve"/>
      <point x="1288" y="1889"/>
      <point x="1197" y="1792"/>
    </contour>
  </outline>
</glyph>
<glyph name="divide" format="2">
  <advance width="1856"/>
  <unicode hex="00F7"/>
  <outline>
    <contour>
      <point x="1568" y="912" type="line"/>
      <point x="1568" y="688" type="line"/>
      <point x="288" y="688" type="line"/>
      <point x="288" y="912" type="line"/>
    </contour>
    <contour>
      <point x="928" y="104" type="qcurve"/>
      <point x="853" y="104"/>
      <point x="748" y="209"/>
      <point x="748" y="284" type="qcurve"/>
      <point x="748" y="356"/>
      <point x="853" y="460"/>
      <point x="928" y="460" type="qcurve"/>
      <point x="1000" y="460"/>
      <point x="1104" y="356"/>
      <point x="1104" y="284" type="qcurve"/>
      <point x="1104" y="209"/>
      <point x="1000" y="104"/>
    </contour>
    <contour>
      <point x="928" y="1140" type="qcurve"/>
      <point x="853" y="1140"/>
      <point x="748" y="1245"/>
      <point x="748" y="1320" type="qcurve"/>
      <point x="748" y="1392"/>
      <point x="853" y="1496"/>
      <point x="928" y="1496" type="qcurve"/>
      <point x="1000" y="1496"/>
      <point x="1104" y="1392"/>
      <point x="1104" y="1320" type="qcurve"/>
      <point x="1104" y="1245"/>
      <point x="1000" y="1140"/>
    </contour>
  </outline>
</glyph>
<glyph name="oslash" format="2">
  <advance width="1680"/>
  <unicode hex="00F8"/>
  <outline>
    <contour>
      <point x="380" y="-84" type="line"/>
      <point x="228" y="20" type="line"/>
      <point x="1300" y="1608" type="line"/>
      <point x="1452" y="1504" type="line"/>
    </contour>
    <contour>
      <point x="840" y="-32" type="qcurve"/>
      <point x="632" y="-32"/>
      <point x="319" y="166"/>
      <point x="144" y="522"/>
      <point x="144" y="760" type="qcurve"/>
      <point x="144" y="1000"/>
      <point x="319" y="1358"/>
      <point x="632" y="1556"/>
      <point x="840" y="1556" type="qcurve"/>
      <point x="1048" y="1556"/>
      <point x="1361" y="1358"/>
      <point x="1536" y="1000"/>
      <point x="1536" y="760" type="qcurve"/>
      <point x="1536" y="522"/>
      <point x="1361" y="166"/>
      <point x="1048" y="-32"/>
    </contour>
    <contour>
      <point x="840" y="180" type="qcurve"/>
      <point x="998" y="180"/>
      <point x="1202" y="342"/>
      <point x="1300" y="606"/>
      <point x="1300" y="760" type="qcurve"/>
      <point x="1300" y="914"/>
      <point x="1202" y="1180"/>
      <point x="998" y="1344"/>
      <point x="840" y="1344" type="qcurve"/>
      <point x="682" y="1344"/>
      <point x="478" y="1180"/>
      <point x="380" y="914"/>
      <point x="380" y="760" type="qcurve"/>
      <point x="380" y="606"/>
      <point x="478" y="342"/>
      <point x="682" y="180"/>
    </contour>
  </outline>
</glyph>
<glyph name="thorn" format="2">
  <advance width="1716"/>
  <unicode hex="00FE"/>
  <outline>
    <contour>
      <point x="216" y="2048" type="line"/>
      <point x="452" y="2048" type="line"/>
      <point x="452" y="1172" type="line"/>
      <point x="392" y="784" type="line"/>
      <point x="452" y="288" type="line"/>
      <point x="452" y="-576" type="line"/>
      <point x="216" y="-576" type="line"/>
    </contour>
    <contour>
      <point x="356" y="1292" type="line"/>
      <point x="472" y="1292" type="line"/>
      <point x="498" y="1332"/>
      <point x="591" y="1457"/>
      <point x="766" y="1556"/>
      <point x="916" y="1556" type="qcurve"/>
      <point x="1110" y="1556"/>
      <point x="1406" y="1362"/>
      <point x="1572" y="1006"/>
      <point x="1572" y="764" type="qcurve"/>
      <point x="1572" y="520"/>
      <point x="1406" y="163"/>
      <point x="1112" y="-32"/>
      <point x="920" y="-32" type="qcurve"/>
      <point x="772" y="-32"/>
      <point x="594" y="67"/>
      <point x="498" y="194"/>
      <point x="472" y="236" type="qcurve"/>
      <point x="356" y="236" type="line"/>
    </contour>
    <contour>
      <point x="1336" y="768" type="qcurve"/>
      <point x="1336" y="930"/>
      <point x="1237" y="1191"/>
      <point x="1038" y="1344"/>
      <point x="888" y="1344" type="qcurve"/>
      <point x="744" y="1344"/>
      <point x="548" y="1199"/>
      <point x="448" y="940"/>
      <point x="448" y="768" type="qcurve"/>
      <point x="448" y="594"/>
      <point x="550" y="329"/>
      <point x="746" y="180"/>
      <point x="888" y="180" type="qcurve"/>
      <point x="1036" y="180"/>
      <point x="1235" y="337"/>
      <point x="1336" y="604"/>
    </contour>
  </outline>
</glyph>
<glyph name="ydieresis" format="2">
  <advance width="1568"/>
  <unicode hex="00FF"/>
  <outline>
    <contour>
      <point x="368" y="-576" type="qcurve"/>
      <point x="308" y="-576"/>
      <point x="214" y="-557"/>
      <point x="196" y="-548" type="qcurve"/>
      <point x="256" y="-340" type="line"/>
      <point x="342" y="-362"/>
      <point x="474" y="-350"/>
      <point x="577" y="-245"/>
      <point x="620" y="-128" type="qcurve"/>
      <point x="664" y="-8" type="line"/>
      <point x="96" y="1536" type="line"/>
      <point x="352" y="1536" type="line"/>
      <point x="776" y="312" type="line"/>
      <point x="792" y="312" type="line"/>
      <point x="1216" y="1536" type="line"/>
      <point x="1472" y="1536" type="line"/>
      <point x="820" y="-224" type="line"/>
      <point x="776" y="-343"/>
      <point x="646" y="-500"/>
      <point x="475" y="-576"/>
    </contour>
    <contour>
      <point x="496" y="1792" type="qcurve"/>
      <point x="433" y="1792"/>
      <point x="336" y="1889"/>
      <point x="336" y="1952" type="qcurve"/>
      <point x="336" y="2021"/>
      <point x="433" y="2112"/>
      <point x="496" y="2112" type="qcurve"/>
      <point x="565" y="2112"/>
      <point x="656" y="2021"/>
      <point x="656" y="1952" type="qcurve"/>
      <point x="656" y="1889"/>
      <point x="565" y="1792"/>
    </contour>
    <contour>
      <point x="1072" y="1792" type="qcurve"/>
      <point x="1009" y="1792"/>
      <point x="912" y="1889"/>
      <point x="912" y="1952" type="qcurve"/>
      <point x="912" y="2021"/>
      <point x="1009" y="2112"/>
      <point x="1072" y="2112" type="qcurve"/>
      <point x="1141" y="2112"/>
      <point x="1232" y="2021"/>
      <point x="1232" y="1952" type="qcurve"/>
      <point x="1232" y="1889"/>
      <point x="1141" y="1792"/>
    </contour>
  </outline>
</glyph>
<glyph name="Hbar" format="2">
  <advance width="2188"/>
  <unicode hex="0126"/>
  <outline>
    <contour>
      <point x="2052" y="1616" type="line"/>
      <point x="2052" y="1408" type="line"/>
      <point x="136" y="1408" type="line"/>
      <point x="136" y="1616" type="line"/>
    </contour>
    <contour>
      <point x="300" y="0" type="line"/>
      <point x="300" y="2048" type="line"/>
      <point x="548" y="2048" type="line"/>
      <point x="548" y="1136" type="line"/>
      <point x="1640" y="1136" type="line"/>
      <point x="1640" y="2048" type="line"/>
      <point x="1888" y="2048" type="line"/>
      <point x="1888" y="0" type="line"/>
      <point x="1640" y="0" type="line"/>
      <point x="1640" y="916" type="line"/>
      <point x="548" y="916" type="line"/>
      <point x="548" y="0" type="line"/>
    </contour>
  </outline>
</glyph>
<glyph name="dotlessi" format="2">
  <advance width="668"/>
  <unicode hex="0131"/>
  <outline>
    <contour>
      <point x="216" y="0" type="line"/>
      <point x="216" y="1536" type="line"/>
      <point x="452" y="1536" type="line"/>
      <point x="452" y="0" type="line"/>
    </contour>
  </outline>
</glyph>
<glyph name="kgreenlandic" format="2">
  <advance width="1776"/>
  <unicode hex="0138"/>
  <outline>
    <contour>
      <point x="516" y="1536" type="line"/>
      <point x="516" y="0" type="line"/>
      <point x="240" y="0" type="line"/>
      <point x="240" y="1536" type="line"/>
    </contour>
    <contour>
      <point x="1534" y="1536" type="line"/>
      <point x="778" y="658" type="line"/>
      <point x="424" y="658" type="line"/>
      <point x="380" y="894" type="line"/>
      <point x="654" y="894" type="line"/>
      <point x="1202" y="1536" type="line"/>
    </contour>
    <contour>
      <point x="1188" y="0" type="line"/>
      <point x="616" y="668" type="line"/>
      <point x="792" y="864" type="line"/>
      <point x="1536" y="0" type="line"/>
    </contour>
  </outline>
</glyph>
<glyph name="Lslash" format="2">
  <advance width="1584"/>
  <unicode hex="0141"/>
  <outline>
    <contour>
      <point x="872" y="1280" type="line"/>
      <point x="872" y="1100" type="line"/>
      <point x="60" y="844" type="line"/>
      <point x="60" y="1024" type="line"/>
    </contour>
    <contour>
      <point x="248" y="0" type="line"/>
      <point x="248" y="2048" type="line"/>
      <point x="496" y="2048" type="line"/>
      <point x="496" y="220" type="line"/>
      <point x="1448" y="220" type="line"/>
      <point x="1448" y="0" type="line"/>
    </contour>
  </outline>
</glyph>
<glyph name="Eng" format="2">
  <advance width="2120"/>
  <unicode hex="014A"/>
  <outline>
    <contour>
      <point x="1632" y="0" type="line"/>
      <point x="1872" y="0" type="line"/>
      <point x="1872" y="-164" type="line"/>
      <point x="1872" y="-296"/>
      <point x="1761" y="-480"/>
      <point x="1576" y="-576"/>
      <point x="1464" y="-576" type="qcurve"/>
      <point x="1428" y="-576"/>
      <point x="1355" y="-573"/>
      <point x="1328" y="-564" type="qcurve"/>
      <point x="1328" y="-360" type="line"/>
      <point x="1343" y="-363"/>
      <point x="1383" y="-368"/>
      <point x="1404" y="-368" type="qcurve"/>
      <point x="1500" y="-368"/>
      <point x="1632" y="-280"/>
      <point x="1632" y="-160" type="qcurve"/>
    </contour>
    <contour>
      <point x="1872" y="2048" type="line"/>
      <point x="1872" y="0" type="line"/>
      <point x="1632" y="0" type="line"/>
      <point x="516" y="1608" type="line"/>
      <point x="496" y="1608" type="line"/>
      <point x="496" y="0" type="line"/>
      <point x="248" y="0" type="line"/>
      <point x="248" y="2048" type="line"/>
      <point x="488" y="2048" type="line"/>
      <point x="1608" y="436" type="line"/>
      <point x="1628" y="436" type="line"/>
      <point x="1628" y="2048" type="line"/>
    </contour>
  </outline>
</glyph>
<glyph name="eng" format="2">
  <advance width="1648"/>
  <unicode hex="014B"/>
  <outline>
    <contour>
      <point x="1196" y="0" type="line"/>
      <point x="1432" y="0" type="line"/>
      <point x="1432" y="-164" type="line"/>
      <point x="1432" y="-362"/>
      <point x="1200" y="-576"/>
      <point x="1032" y="-576" type="qcurve"/>
      <point x="996" y="-576"/>
      <point x="923" y="-573"/>
      <point x="896" y="-564" type="qcurve"/>
      <point x="896" y="-364" type="line"/>
      <point x="911" y="-367"/>
      <point x="951" y="-372"/>
      <point x="972" y="-372" type="qcurve"/>
      <point x="1068" y="-372"/>
      <point x="1196" y="-284"/>
      <point x="1196" y="-164" type="qcurve"/>
    </contour>
    <contour>
      <point x="452" y="924" type="qcurve"/>
      <point x="452" y="0" type="line"/>
      <point x="216" y="0" type="line"/>
      <point x="216" y="1536" type="line"/>
      <point x="444" y="1536" type="line"/>
      <point x="444" y="1296" type="line"/>
      <point x="464" y="1296" type="line"/>
      <point x="518" y="1413"/>
      <point x="738" y="1556"/>
      <point x="912" y="1556" type="qcurve"/>
      <point x="1068" y="1556"/>
      <point x="1302" y="1429"/>
      <point x="1432" y="1172"/>
      <point x="1432" y="976" type="qcurve"/>
      <point x="1432" y="0" type="line"/>
      <point x="1196" y="0" type="line"/>
      <point x="1196" y="960" type="line"/>
      <point x="1196" y="1141"/>
      <point x="1008" y="1344"/>
      <point x="844" y="1344" type="qcurve"/>
      <point x="731" y="1344"/>
      <point x="554" y="1246"/>
      <point x="452" y="1058"/>
    </contour>
  </outline>
</glyph>
<glyph name="OE" format="2">
  <advance width="2684"/>
  <unicode hex="0152"/>
  <outline>
    <contour>
      <point x="1072" y="0" type="line"/>
      <point x="802" y="0"/>
      <point x="395" y="257"/>
      <point x="168" y="718"/>
      <point x="168" y="1024" type="qcurve"/>
      <point x="168" y="1332"/>
      <point x="395" y="1793"/>
      <point x="802" y="2048"/>
      <point x="1072" y="2048" type="qcurve"/>
      <point x="2484" y="2048" type="line"/>
      <point x="2484" y="1828" type="line"/>
      <point x="1496" y="1828" type="line"/>
      <point x="1496" y="1136" type="line"/>
      <point x="2420" y="1136" type="line"/>
      <point x="2420" y="916" type="line"/>
      <point x="1496" y="916" type="line"/>
      <point x="1496" y="220" type="line"/>
      <point x="2500" y="220" type="line"/>
      <point x="2500" y="0" type="line"/>
    </contour>
    <contour>
      <point x="1248" y="220" type="line"/>
      <point x="1248" y="1828" type="line"/>
      <point x="1072" y="1828" type="line"/>
      <point x="874" y="1828"/>
      <point x="575" y="1628"/>
      <point x="408" y="1266"/>
      <point x="408" y="1024" type="qcurve"/>
      <point x="408" y="784"/>
      <point x="575" y="422"/>
      <point x="874" y="220"/>
      <point x="1072" y="220" type="qcurve"/>
    </contour>
  </outline>
</glyph>
<glyph name="tbar" format="2">
  <advance width="1024"/>
  <unicode hex="0167"/>
  <outline>
    <contour>
      <point x="88" y="840" type="line"/>
      <point x="88" y="1024" type="line"/>
      <point x="884" y="1024" type="line"/>
      <point x="884" y="840" type="line"/>
    </contour>
    <contour>
      <point x="884" y="1536" type="line"/>
      <point x="884" y="1336" type="line"/>
      <point x="88" y="1336" type="line"/>
      <point x="88" y="1536" type="line"/>
    </contour>
    <contour>
      <point x="320" y="1904" type="line"/>
      <point x="556" y="1904" type="line"/>
      <point x="556" y="440" type="line"/>
      <point x="556" y="340"/>
      <point x="615" y="241"/>
      <point x="708" y="208"/>
      <point x="760" y="208" type="qcurve"/>
      <point x="799" y="208"/>
      <point x="849" y="217"/>
      <point x="864" y="220" type="qcurve"/>
      <point x="912" y="8" type="line"/>
      <point x="888" y="-1"/>
      <point x="802" y="-20"/>
      <point x="736" y="-20" type="qcurve"/>
      <point x="636" y="-20"/>
      <point x="445" y="66"/>
      <point x="320" y="242"/>
      <point x="320" y="376" type="qcurve"/>
    </contour>
  </outline>
</glyph>
<glyph name="Ydieresis" format="2">
  <advance width="1872"/>
  <unicode hex="0178"/>
  <outline>
    <contour>
      <point x="72" y="2048" type="line"/>
      <point x="356" y="2048" type="line"/>
      <point x="924" y="1092" type="line"/>
      <point x="948" y="1092" type="line"/>
      <point x="1516" y="2048" type="line"/>
      <point x="1800" y="2048" type="line"/>
      <point x="1060" y="844" type="line"/>
      <point x="1060" y="0" type="line"/>
      <point x="812" y="0" type="line"/>
      <point x="812" y="844" type="line"/>
    </contour>
    <contour>
      <point x="648" y="2304" type="qcurve"/>
      <point x="585" y="2304"/>
      <point x="488" y="2401"/>
      <point x="488" y="2464" type="qcurve"/>
      <point x="488" y="2533"/>
      <point x="585" y="2624"/>
      <point x="648" y="2624" type="qcurve"/>
      <point x="717" y="2624"/>
      <point x="808" y="2533"/>
      <point x="808" y="2464" type="qcurve"/>
      <point x="808" y="2401"/>
      <point x="717" y="2304"/>
    </contour>
    <contour>
      <point x="1224" y="2304" type="qcurve"/>
      <point x="1161" y="2304"/>
      <point x="1064" y="2401"/>
      <point x="1064" y="2464" type="qcurve"/>
      <point x="1064" y="2533"/>
      <point x="1161" y="2624"/>
      <point x="1224" y="2624" type="qcurve"/>
      <point x="1293" y="2624"/>
      <point x="1384" y="2533"/>
      <point x="1384" y="2464" type="qcurve"/>
      <point x="1384" y="2401"/>
      <point x="1293" y="2304"/>
    </contour>
  </outline>
</glyph>
<glyph name="longs" format="2">
  <advance width="752"/>
  <unicode hex="017F"/>
  <outline>
    <contour>
      <point x="316" y="0" type="line"/>
      <point x="40" y="0" type="line"/>
      <point x="40" y="1642" type="line"/>
      <point x="40" y="1885"/>
      <point x="294" y="2142"/>
      <point x="516" y="2142" type="qcurve"/>
      <point x="564" y="2142"/>
      <point x="664" y="2126"/>
      <point x="712" y="2114" type="qcurve"/>
      <point x="680" y="1910" type="line"/>
      <point x="656" y="1916"/>
      <point x="596" y="1922"/>
      <point x="560" y="1922" type="qcurve"/>
      <point x="440" y="1922"/>
      <point x="316" y="1774"/>
      <point x="316" y="1642" type="qcurve"/>
    </contour>
  </outline>
</glyph>
<glyph name="Bhook" format="2">
  <advance width="2260"/>
  <unicode hex="0181"/>
  <outline>
    <contour>
      <point x="744" y="1828" type="line"/>
      <point x="548" y="1828" type="line"/>
      <point x="468" y="1828"/>
      <point x="391" y="1757"/>
      <point x="368" y="1644"/>
      <point x="368" y="1580" type="qcurve"/>
      <point x="368" y="1504" type="line"/>
      <point x="136" y="1504" type="line"/>
      <point x="136" y="1640" type="line"/>
      <point x="136" y="1808"/>
      <point x="346" y="2048"/>
      <point x="544" y="2048" type="qcurve"/>
      <point x="744" y="2048" type="line"/>
    </contour>
    <contour>
      <point x="676" y="0" type="line"/>
      <point x="676" y="2048" type="line"/>
      <point x="1392" y="2048" type="line"/>
      <point x="1606" y="2048"/>
      <point x="1884" y="1901"/>
      <point x="2020" y="1654"/>
      <point x="2020" y="1504" type="qcurve"/>
      <point x="2020" y="1372"/>
      <point x="1927" y="1200"/>
      <point x="1776" y="1100"/>
      <point x="1688" y="1076" type="qcurve"/>
      <point x="1688" y="1056" type="line"/>
      <point x="1782" y="1050"/>
      <point x="1972" y="930"/>
      <point x="2100" y="706"/>
      <point x="2100" y="544" type="qcurve"/>
      <point x="2100" y="390"/>
      <point x="1960" y="144"/>
      <point x="1658" y="0"/>
      <point x="1416" y="0" type="qcurve"/>
    </contour>
    <contour>
      <point x="924" y="220" type="line"/>
      <point x="1416" y="220" type="line"/>
      <point x="1659" y="220"/>
      <point x="1864" y="409"/>
      <point x="1864" y="544" type="qcurve"/>
      <point x="1864" y="648"/>
      <point x="1758" y="825"/>
      <point x="1562" y="932"/>
      <point x="1428" y="932" type="qcurve"/>
      <point x="924" y="932" type="line"/>
    </contour>
    <contour>
      <point x="924" y="1148" type="line"/>
      <point x="1384" y="1148" type="line"/>
      <point x="1496" y="1148"/>
      <point x="1677" y="1236"/>
      <point x="1784" y="1396"/>
      <point x="1784" y="1504" type="qcurve"/>
      <point x="1784" y="1639"/>
      <point x="1596" y="1828"/>
      <point x="1392" y="1828" type="qcurve"/>
      <point x="924" y="1828" type="line"/>
    </contour>
  </outline>
</glyph>
<glyph name="Btopbar" format="2">
  <advance width="1840"/>
  <unicode hex="0182"/>
  <outline>
    <contour>
      <point x="248" y="0" type="line"/>
      <point x="248" y="2048" type="line"/>
      <point x="1484" y="2048" type="line"/>
      <point x="1484" y="1828" type="line"/>
      <point x="496" y="1828" type="line"/>
      <point x="496" y="1188" type="line"/>
      <point x="1016" y="1188" type="line"/>
      <point x="1236" y="1188"/>
      <point x="1539" y="1044"/>
      <point x="1696" y="782"/>
      <point x="1696" y="604" type="qcurve"/>
      <point x="1696" y="426"/>
      <point x="1539" y="154"/>
      <point x="1236" y="0"/>
      <point x="1016" y="0" type="qcurve"/>
    </contour>
    <contour>
      <point x="496" y="216" type="line"/>
      <point x="1016" y="216" type="line"/>
      <point x="1156" y="216"/>
      <point x="1351" y="329"/>
      <point x="1452" y="508"/>
      <point x="1452" y="608" type="qcurve"/>
      <point x="1452" y="755"/>
      <point x="1226" y="968"/>
      <point x="1016" y="968" type="qcurve"/>
      <point x="496" y="968" type="line"/>
    </contour>
  </outline>
</glyph>
<glyph name="Tonesix" format="2">
  <advance width="2012"/>
  <unicode hex="0184"/>
  <outline>
    <contour>
      <point x="756" y="2048" type="line"/>
      <point x="756" y="1828" type="line"/>
      <point x="28" y="1828" type="line"/>
      <point x="28" y="2048" type="line"/>
    </contour>
    <contour>
      <point x="692" y="1188" type="line"/>
      <point x="1276" y="1188" type="line"/>
      <point x="1496" y="1188"/>
      <point x="1799" y="1044"/>
      <point x="1956" y="782"/>
      <point x="1956" y="604" type="qcurve"/>
      <point x="1956" y="426"/>
      <point x="1799" y="154"/>
      <point x="1496" y="0"/>
      <point x="1276" y="0" type="qcurve"/>
      <point x="508" y="0" type="line"/>
      <point x="508" y="2048" type="line"/>
      <point x="756" y="2048" type="line"/>
      <point x="756" y="216" type="line"/>
      <point x="1276" y="216" type="line"/>
      <point x="1416" y="216"/>
      <point x="1611" y="329"/>
      <point x="1712" y="508"/>
      <point x="1712" y="608" type="qcurve"/>
      <point x="1712" y="755"/>
      <point x="1486" y="968"/>
      <point x="1276" y="968" type="qcurve"/>
      <point x="692" y="968" type="line"/>
    </contour>
  </outline>
</glyph>
<glyph name="tonesix" format="2">
  <advance width="1776"/>
  <unicode hex="0185"/>
  <outline>
    <contour>
      <point x="328" y="2112" type="line"/>
      <point x="392" y="2112" type="line"/>
      <point x="392" y="1440" type="line"/>
      <point x="328" y="1440" type="line"/>
      <point x="104" y="1720" type="line"/>
      <point x="104" y="1832" type="line"/>
    </contour>
    <contour>
      <point x="488" y="1292" type="line"/>
      <point x="604" y="1292" type="line"/>
      <point x="630" y="1332"/>
      <point x="723" y="1457"/>
      <point x="898" y="1556"/>
      <point x="1048" y="1556" type="qcurve"/>
      <point x="1242" y="1556"/>
      <point x="1538" y="1362"/>
      <point x="1704" y="1006"/>
      <point x="1704" y="764" type="qcurve"/>
      <point x="1704" y="520"/>
      <point x="1538" y="163"/>
      <point x="1244" y="-32"/>
      <point x="1052" y="-32" type="qcurve"/>
      <point x="904" y="-32"/>
      <point x="726" y="67"/>
      <point x="630" y="194"/>
      <point x="604" y="236" type="qcurve"/>
      <point x="488" y="236" type="line"/>
    </contour>
    <contour>
      <point x="1468" y="768" type="qcurve"/>
      <point x="1468" y="930"/>
      <point x="1369" y="1191"/>
      <point x="1170" y="1344"/>
      <point x="1020" y="1344" type="qcurve"/>
      <point x="876" y="1344"/>
      <point x="680" y="1199"/>
      <point x="580" y="940"/>
      <point x="580" y="768" type="qcurve"/>
      <point x="580" y="594"/>
      <point x="682" y="329"/>
      <point x="878" y="180"/>
      <point x="1020" y="180" type="qcurve"/>
      <point x="1168" y="180"/>
      <point x="1367" y="337"/>
      <point x="1468" y="604"/>
    </contour>
    <contour>
      <point x="348" y="2048" type="line"/>
      <point x="584" y="2048" type="line"/>
      <point x="584" y="1172" type="line"/>
      <point x="504" y="784" type="line"/>
      <point x="576" y="288" type="line"/>
      <point x="576" y="0" type="line"/>
      <point x="348" y="0" type="line"/>
    </contour>
  </outline>
</glyph>
<glyph name="Oopen" format="2">
  <advance width="2048"/>
  <unicode hex="0186"/>
  <outline>
    <contour>
      <point x="152" y="640" type="qcurve"/>
      <point x="400" y="640" type="line"/>
      <point x="423" y="534"/>
      <point x="531" y="371"/>
      <point x="686" y="260"/>
      <point x="874" y="204"/>
      <point x="976" y="204" type="qcurve"/>
      <point x="1162" y="204"/>
      <point x="1463" y="392"/>
      <point x="1640" y="758"/>
      <point x="1640" y="1024" type="qcurve"/>
      <point x="1640" y="1290"/>
      <point x="1463" y="1656"/>
      <point x="1162" y="1844"/>
      <point x="976" y="1844" type="qcurve"/>
      <point x="874" y="1844"/>
      <point x="686" y="1788"/>
      <point x="531" y="1677"/>
      <point x="423" y="1515"/>
      <point x="400" y="1408" type="qcurve"/>
      <point x="152" y="1408" type="line"/>
      <point x="181" y="1566"/>
      <point x="328" y="1813"/>
      <point x="548" y="1986"/>
      <point x="822" y="2076"/>
      <point x="976" y="2076" type="qcurve"/>
      <point x="1238" y="2076"/>
      <point x="1646" y="1820"/>
      <point x="1880" y="1348"/>
      <point x="1880" y="1024" type="qcurve"/>
      <point x="1880" y="700"/>
      <point x="1646" y="228"/>
      <point x="1238" y="-28"/>
      <point x="976" y="-28" type="qcurve"/>
      <point x="822" y="-28"/>
      <point x="548" y="62"/>
      <point x="328" y="235"/>
      <point x="181" y="483"/>
    </contour>
  </outline>
</glyph>
<glyph name="Chook" format="2">
  <advance width="2172"/>
  <unicode hex="0187"/>
  <outline>
    <contour>
      <point x="1896" y="1408" type="line"/>
      <point x="1660" y="1408" type="line"/>
      <point x="1660" y="1664" type="line"/>
      <point x="1660" y="1796"/>
      <point x="1767" y="1980"/>
      <point x="1948" y="2076"/>
      <point x="2060" y="2076" type="qcurve"/>
      <point x="2096" y="2076"/>
      <point x="2169" y="2073"/>
      <point x="2196" y="2064" type="qcurve"/>
      <point x="2196" y="1864" type="line"/>
      <point x="2181" y="1867"/>
      <point x="2141" y="1872"/>
      <point x="2120" y="1872" type="qcurve"/>
      <point x="2056" y="1872"/>
      <point x="1955" y="1835"/>
      <point x="1896" y="1744"/>
      <point x="1896" y="1664" type="qcurve"/>
    </contour>
    <contour>
      <point x="1896" y="1408" type="qcurve"/>
      <point x="1648" y="1408" type="line"/>
      <point x="1626" y="1515"/>
      <point x="1517" y="1677"/>
      <point x="1362" y="1788"/>
      <point x="1174" y="1844"/>
      <point x="1072" y="1844" type="qcurve"/>
      <point x="886" y="1844"/>
      <point x="585" y="1656"/>
      <point x="408" y="1290"/>
      <point x="408" y="1024" type="qcurve"/>
      <point x="408" y="758"/>
      <point x="585" y="392"/>
      <point x="886" y="204"/>
      <point x="1072" y="204" type="qcurve"/>
      <point x="1174" y="204"/>
      <point x="1362" y="260"/>
      <point x="1517" y="371"/>
      <point x="1626" y="534"/>
      <point x="1648" y="640" type="qcurve"/>
      <point x="1896" y="640" type="line"/>
      <point x="1868" y="483"/>
      <point x="1720" y="235"/>
      <point x="1500" y="62"/>
      <point x="1227" y="-28"/>
      <point x="1072" y="-28" type="qcurve"/>
      <point x="810" y="-28"/>
      <point x="402" y="228"/>
      <point x="168" y="700"/>
      <point x="168" y="1024" type="qcurve"/>
      <point x="168" y="1348"/>
      <point x="402" y="1820"/>
      <point x="810" y="2076"/>
      <point x="1072" y="2076" type="qcurve"/>
      <point x="1227" y="2076"/>
      <point x="1500" y="1986"/>
      <point x="1720" y="1813"/>
      <point x="1868" y="1566"/>
    </contour>
  </outline>
</glyph>
<glyph name="chook" format="2">
  <advance width="1720"/>
  <unicode hex="0188"/>
  <outline>
    <contour>
      <point x="1444" y="1076" type="line"/>
      <point x="1208" y="1076" type="line"/>
      <point x="1208" y="1276" type="line"/>
      <point x="1208" y="1408"/>
      <point x="1315" y="1592"/>
      <point x="1496" y="1688"/>
      <point x="1608" y="1688" type="qcurve"/>
      <point x="1644" y="1688"/>
      <point x="1717" y="1685"/>
      <point x="1744" y="1676" type="qcurve"/>
      <point x="1744" y="1476" type="line"/>
      <point x="1729" y="1479"/>
      <point x="1689" y="1484"/>
      <point x="1668" y="1484" type="qcurve"/>
      <point x="1572" y="1484"/>
      <point x="1444" y="1396"/>
      <point x="1444" y="1276" type="qcurve"/>
    </contour>
    <contour>
      <point x="840" y="-32" type="qcurve"/>
      <point x="624" y="-32"/>
      <point x="312" y="172"/>
      <point x="144" y="530"/>
      <point x="144" y="760" type="qcurve"/>
      <point x="144" y="994"/>
      <point x="317" y="1353"/>
      <point x="628" y="1556"/>
      <point x="836" y="1556" type="qcurve"/>
      <point x="998" y="1556"/>
      <point x="1258" y="1436"/>
      <point x="1424" y="1220"/>
      <point x="1444" y="1076" type="qcurve"/>
      <point x="1208" y="1076" type="line"/>
      <point x="1181" y="1181"/>
      <point x="996" y="1344"/>
      <point x="840" y="1344" type="qcurve"/>
      <point x="702" y="1344"/>
      <point x="495" y="1201"/>
      <point x="380" y="942"/>
      <point x="380" y="768" type="qcurve"/>
      <point x="380" y="590"/>
      <point x="493" y="326"/>
      <point x="700" y="180"/>
      <point x="840" y="180" type="qcurve"/>
      <point x="978" y="180"/>
      <point x="1175" y="322"/>
      <point x="1208" y="448" type="qcurve"/>
      <point x="1444" y="448" type="line"/>
      <point x="1424" y="312"/>
      <point x="1267" y="95"/>
      <point x="1010" y="-32"/>
    </contour>
  </outline>
</glyph>
<glyph name="Dhook" format="2">
  <advance width="2468"/>
  <unicode hex="018A"/>
  <outline>
    <contour>
      <point x="136" y="1504" type="line"/>
      <point x="136" y="1640" type="line"/>
      <point x="136" y="1808"/>
      <point x="346" y="2048"/>
      <point x="544" y="2048" type="qcurve"/>
      <point x="744" y="2048" type="line"/>
      <point x="744" y="1828" type="line"/>
      <point x="548" y="1828" type="line"/>
      <point x="468" y="1828"/>
      <point x="391" y="1757"/>
      <point x="368" y="1644"/>
      <point x="368" y="1580" type="qcurve"/>
      <point x="368" y="1504" type="line"/>
    </contour>
    <contour>
      <point x="1324" y="0" type="qcurve"/>
      <point x="692" y="0" type="line"/>
      <point x="692" y="2048" type="line"/>
      <point x="1352" y="2048" type="line"/>
      <point x="1650" y="2048"/>
      <point x="2074" y="1803"/>
      <point x="2300" y="1346"/>
      <point x="2300" y="1028" type="qcurve"/>
      <point x="2300" y="708"/>
      <point x="2072" y="247"/>
      <point x="1636" y="0"/>
    </contour>
    <contour>
      <point x="940" y="220" type="line"/>
      <point x="1308" y="220" type="line"/>
      <point x="1562" y="220"/>
      <point x="1896" y="416"/>
      <point x="2060" y="778"/>
      <point x="2060" y="1028" type="qcurve"/>
      <point x="2060" y="1276"/>
      <point x="1898" y="1635"/>
      <point x="1576" y="1828"/>
      <point x="1336" y="1828" type="qcurve"/>
      <point x="940" y="1828" type="line"/>
    </contour>
  </outline>
</glyph>
<glyph name="Dtopbar" format="2">
  <advance width="1776"/>
  <unicode hex="018B"/>
  <outline>
    <contour>
      <point x="1612" y="0" type="line"/>
      <point x="848" y="0" type="line"/>
      <point x="628" y="0"/>
      <point x="323" y="154"/>
      <point x="164" y="426"/>
      <point x="164" y="604" type="qcurve"/>
      <point x="164" y="782"/>
      <point x="323" y="1048"/>
      <point x="628" y="1196"/>
      <point x="848" y="1196" type="qcurve"/>
      <point x="1328" y="1196" type="line"/>
      <point x="1328" y="1772" type="line"/>
      <point x="380" y="1772" type="line"/>
      <point x="380" y="2004" type="line"/>
      <point x="1612" y="2004" type="line"/>
    </contour>
    <contour>
      <point x="1328" y="228" type="line"/>
      <point x="1328" y="964" type="line"/>
      <point x="848" y="964" type="line"/>
      <point x="635" y="964"/>
      <point x="452" y="755"/>
      <point x="452" y="608" type="qcurve"/>
      <point x="452" y="508"/>
      <point x="532" y="335"/>
      <point x="706" y="228"/>
      <point x="848" y="228" type="qcurve"/>
    </contour>
  </outline>
</glyph>
<glyph name="dtopbar" format="2">
  <advance width="1748"/>
  <unicode hex="018C"/>
  <outline>
    <contour>
      <point x="348" y="2048" type="line"/>
      <point x="1296" y="2048" type="line"/>
      <point x="1296" y="1828" type="line"/>
      <point x="348" y="1828" type="line"/>
    </contour>
    <contour>
      <point x="1500" y="0" type="line"/>
      <point x="1272" y="0" type="line"/>
      <point x="1272" y="236" type="line"/>
      <point x="1244" y="236" type="line"/>
      <point x="1218" y="194"/>
      <point x="1122" y="67"/>
      <point x="944" y="-32"/>
      <point x="796" y="-32" type="qcurve"/>
      <point x="604" y="-32"/>
      <point x="310" y="163"/>
      <point x="144" y="520"/>
      <point x="144" y="764" type="qcurve"/>
      <point x="144" y="1006"/>
      <point x="310" y="1362"/>
      <point x="606" y="1556"/>
      <point x="800" y="1556" type="qcurve"/>
      <point x="950" y="1556"/>
      <point x="1125" y="1457"/>
      <point x="1218" y="1332"/>
      <point x="1244" y="1292" type="qcurve"/>
      <point x="1264" y="1292" type="line"/>
      <point x="1264" y="2048" type="line"/>
      <point x="1500" y="2048" type="line"/>
    </contour>
    <contour>
      <point x="1268" y="768" type="qcurve"/>
      <point x="1268" y="940"/>
      <point x="1168" y="1199"/>
      <point x="972" y="1344"/>
      <point x="828" y="1344" type="qcurve"/>
      <point x="678" y="1344"/>
      <point x="479" y="1191"/>
      <point x="380" y="930"/>
      <point x="380" y="768" type="qcurve"/>
      <point x="380" y="604"/>
      <point x="481" y="337"/>
      <point x="680" y="180"/>
      <point x="828" y="180" type="qcurve"/>
      <point x="970" y="180"/>
      <point x="1166" y="329"/>
      <point x="1268" y="594"/>
    </contour>
  </outline>
</glyph>
<glyph name="deltaturned" format="2">
  <advance width="1520"/>
  <unicode hex="018D"/>
  <outline>
    <contour>
      <point x="1236" y="-516" type="line"/>
      <point x="260" y="-516" type="line"/>
      <point x="260" y="-304" type="line"/>
      <point x="868" y="-304" type="line"/>
      <point x="852" y="-282"/>
      <point x="757" y="-188"/>
      <point x="644" y="-84"/>
      <point x="600" y="-48" type="qcurve"/>
      <point x="452" y="80"/>
      <point x="225" y="331"/>
      <point x="96" y="600"/>
      <point x="96" y="756" type="qcurve"/>
      <point x="96" y="784" type="line"/>
      <point x="96" y="1012"/>
      <point x="253" y="1360"/>
      <point x="550" y="1556"/>
      <point x="760" y="1556" type="qcurve"/>
      <point x="970" y="1556"/>
      <point x="1269" y="1360"/>
      <point x="1428" y="1012"/>
      <point x="1428" y="784" type="qcurve"/>
      <point x="1428" y="756" type="line"/>
      <point x="1428" y="592"/>
      <point x="1281" y="313"/>
      <point x="1004" y="128"/>
      <point x="808" y="104" type="qcurve"/>
      <point x="787" y="101"/>
      <point x="775" y="100"/>
      <point x="760" y="100" type="qcurve"/>
      <point x="820" y="45"/>
      <point x="946" y="-68"/>
      <point x="1071" y="-181"/>
      <point x="1187" y="-295"/>
      <point x="1236" y="-352" type="qcurve"/>
    </contour>
    <contour>
      <point x="1152" y="756" type="qcurve"/>
      <point x="1152" y="784" type="line"/>
      <point x="1152" y="942"/>
      <point x="1071" y="1192"/>
      <point x="898" y="1336"/>
      <point x="760" y="1336" type="qcurve"/>
      <point x="624" y="1336"/>
      <point x="451" y="1192"/>
      <point x="368" y="942"/>
      <point x="368" y="784" type="qcurve"/>
      <point x="368" y="756" type="line"/>
      <point x="368" y="594"/>
      <point x="520" y="351"/>
      <point x="616" y="288" type="qcurve"/>
      <point x="643" y="279"/>
      <point x="700" y="272"/>
      <point x="736" y="272" type="qcurve"/>
      <point x="880" y="272"/>
      <point x="1064" y="407"/>
      <point x="1152" y="628"/>
    </contour>
  </outline>
</glyph>
<glyph name="Ereversed" format="2">
  <advance width="1684"/>
  <unicode hex="018E"/>
  <outline>
    <contour>
      <point x="1436" y="2048" type="line"/>
      <point x="1436" y="0" type="line"/>
      <point x="200" y="0" type="line"/>
      <point x="200" y="220" type="line"/>
      <point x="1188" y="220" type="line"/>
      <point x="1188" y="912" type="line"/>
      <point x="264" y="912" type="line"/>
      <point x="264" y="1132" type="line"/>
      <point x="1188" y="1132" type="line"/>
      <point x="1188" y="1828" type="line"/>
      <point x="184" y="1828" type="line"/>
      <point x="184" y="2048" type="line"/>
    </contour>
  </outline>
</glyph>
<glyph name="Schwa" format="2">
  <advance width="2032"/>
  <unicode hex="018F"/>
  <outline>
    <contour>
      <point x="986" y="-28" type="qcurve"/>
      <point x="748" y="-28"/>
      <point x="389" y="188"/>
      <point x="188" y="599"/>
      <point x="188" y="892" type="qcurve"/>
      <point x="188" y="1064" type="line"/>
      <point x="1672" y="1064" type="line"/>
      <point x="1672" y="848" type="line"/>
      <point x="472" y="848" type="line"/>
      <point x="472" y="804" type="line"/>
      <point x="472" y="608"/>
      <point x="598" y="340"/>
      <point x="827" y="204"/>
      <point x="982" y="204" type="qcurve"/>
      <point x="1168" y="204"/>
      <point x="1426" y="389"/>
      <point x="1560" y="721"/>
      <point x="1560" y="940" type="qcurve"/>
      <point x="1560" y="1100" type="line"/>
      <point x="1560" y="1335"/>
      <point x="1415" y="1665"/>
      <point x="1130" y="1840"/>
      <point x="920" y="1840" type="qcurve"/>
      <point x="847" y="1840"/>
      <point x="690" y="1818"/>
      <point x="529" y="1772"/>
      <point x="448" y="1736" type="qcurve"/>
      <point x="380" y="1944" type="line"/>
      <point x="441" y="1983"/>
      <point x="621" y="2042"/>
      <point x="831" y="2076"/>
      <point x="936" y="2076" type="qcurve"/>
      <point x="1215" y="2076"/>
      <point x="1624" y="1838"/>
      <point x="1848" y="1401"/>
      <point x="1848" y="1100" type="qcurve"/>
      <point x="1848" y="940" type="line"/>
      <point x="1848" y="663"/>
      <point x="1637" y="225"/>
      <point x="1250" y="-28"/>
    </contour>
  </outline>
</glyph>
<glyph name="Eopen" format="2">
  <advance width="1776"/>
  <unicode hex="0190"/>
  <outline>
    <contour>
      <point x="1112" y="980" type="line"/>
      <point x="880" y="980" type="line"/>
      <point x="680" y="980"/>
      <point x="371" y="1107"/>
      <point x="196" y="1346"/>
      <point x="196" y="1514" type="qcurve"/>
      <point x="196" y="1690"/>
      <point x="382" y="1942"/>
      <point x="698" y="2076"/>
      <point x="894" y="2076" type="qcurve"/>
      <point x="1096" y="2076"/>
      <point x="1407" y="1942"/>
      <point x="1584" y="1694"/>
      <point x="1584" y="1524" type="qcurve"/>
      <point x="1300" y="1524" type="line"/>
      <point x="1300" y="1665"/>
      <point x="1086" y="1844"/>
      <point x="894" y="1844" type="qcurve"/>
      <point x="690" y="1844"/>
      <point x="480" y="1656"/>
      <point x="480" y="1504" type="qcurve"/>
      <point x="480" y="1415"/>
      <point x="561" y="1256"/>
      <point x="740" y="1156"/>
      <point x="888" y="1156" type="qcurve"/>
      <point x="1112" y="1156" type="line"/>
    </contour>
    <contour>
      <point x="880" y="1100" type="qcurve"/>
      <point x="1112" y="1100" type="line"/>
      <point x="1112" y="928" type="line"/>
      <point x="888" y="928" type="line"/>
      <point x="744" y="928"/>
      <point x="550" y="848"/>
      <point x="452" y="686"/>
      <point x="452" y="564" type="qcurve"/>
      <point x="452" y="434"/>
      <point x="567" y="274"/>
      <point x="762" y="200"/>
      <point x="882" y="200" type="qcurve"/>
      <point x="1107" y="200"/>
      <point x="1328" y="409"/>
      <point x="1328" y="556" type="qcurve"/>
      <point x="1612" y="556" type="line"/>
      <point x="1612" y="352"/>
      <point x="1408" y="94"/>
      <point x="1076" y="-28"/>
      <point x="884" y="-28" type="qcurve"/>
      <point x="694" y="-28"/>
      <point x="366" y="90"/>
      <point x="164" y="342"/>
      <point x="164" y="544" type="qcurve"/>
      <point x="164" y="823"/>
      <point x="544" y="1100"/>
    </contour>
  </outline>
</glyph>
<glyph name="Fhook" format="2">
  <advance width="1652"/>
  <unicode hex="0191"/>
  <outline>
    <contour>
      <point x="248" y="0" type="line"/>
      <point x="496" y="0" type="line"/>
      <point x="496" y="-164" type="line"/>
      <point x="496" y="-263"/>
      <point x="436" y="-416"/>
      <point x="319" y="-522"/>
      <point x="144" y="-576"/>
      <point x="28" y="-576" type="qcurve"/>
      <point x="16" y="-576"/>
      <point x="-3" y="-573"/>
      <point x="-48" y="-564" type="qcurve"/>
      <point x="-48" y="-360" type="line"/>
      <point x="-33" y="-363"/>
      <point x="7" y="-368"/>
      <point x="28" y="-368" type="qcurve"/>
      <point x="124" y="-368"/>
      <point x="248" y="-280"/>
      <point x="248" y="-160" type="qcurve"/>
    </contour>
    <contour>
      <point x="248" y="0" type="line"/>
      <point x="248" y="2048" type="line"/>
      <point x="1476" y="2048" type="line"/>
      <point x="1476" y="1828" type="line"/>
      <point x="496" y="1828" type="line"/>
      <point x="496" y="1136" type="line"/>
      <point x="1384" y="1136" type="line"/>
      <point x="1384" y="916" type="line"/>
      <point x="496" y="916" type="line"/>
      <point x="496" y="0" type="line"/>
    </contour>
  </outline>
</glyph>
<glyph name="florin" format="2">
  <advance width="1088"/>
  <unicode hex="0192"/>
  <outline>
    <contour>
      <point x="912" y="1488" type="line"/>
      <point x="912" y="1284" type="line"/>
      <point x="632" y="1284" type="line"/>
      <point x="632" y="-100" type="line"/>
      <point x="632" y="-331"/>
      <point x="406" y="-576"/>
      <point x="196" y="-576" type="qcurve"/>
      <point x="154" y="-576"/>
      <point x="79" y="-568"/>
      <point x="40" y="-556" type="qcurve"/>
      <point x="60" y="-340" type="line"/>
      <point x="81" y="-349"/>
      <point x="178" y="-356"/>
      <point x="196" y="-356" type="qcurve"/>
      <point x="277" y="-356"/>
      <point x="384" y="-220"/>
      <point x="384" y="-100" type="qcurve"/>
      <point x="384" y="1284" type="line"/>
      <point x="136" y="1284" type="line"/>
      <point x="136" y="1488" type="line"/>
      <point x="384" y="1488" type="line"/>
      <point x="384" y="1640" type="line"/>
      <point x="384" y="1883"/>
      <point x="626" y="2140"/>
      <point x="812" y="2140" type="qcurve"/>
      <point x="869" y="2140"/>
      <point x="1009" y="2119"/>
      <point x="1048" y="2104" type="qcurve"/>
      <point x="988" y="1888" type="line"/>
      <point x="967" y="1894"/>
      <point x="912" y="1904"/>
      <point x="876" y="1904" type="qcurve"/>
      <point x="756" y="1904"/>
      <point x="632" y="1772"/>
      <point x="632" y="1640" type="qcurve"/>
      <point x="632" y="1488" type="line"/>
    </contour>
  </outline>
</glyph>
<glyph name="Ghook" format="2">
  <advance width="2176"/>
  <unicode hex="0193"/>
  <unicode hex="E004"/>
  <outline>
    <contour>
      <point x="1924" y="1408" type="line"/>
      <point x="1672" y="1408" type="line"/>
      <point x="1684" y="1624" type="line"/>
      <point x="1690" y="1723"/>
      <point x="1745" y="1876"/>
      <point x="1846" y="1982"/>
      <point x="1992" y="2036"/>
      <point x="2088" y="2036" type="qcurve"/>
      <point x="2124" y="2036"/>
      <point x="2197" y="2033"/>
      <point x="2224" y="2024" type="qcurve"/>
      <point x="2224" y="1824" type="line"/>
      <point x="2209" y="1827"/>
      <point x="2169" y="1832"/>
      <point x="2148" y="1832" type="qcurve"/>
      <point x="2084" y="1832"/>
      <point x="1983" y="1795"/>
      <point x="1924" y="1704"/>
      <point x="1924" y="1624" type="qcurve"/>
    </contour>
    <contour>
      <point x="1080" y="-28" type="qcurve"/>
      <point x="808" y="-28"/>
      <point x="397" y="228"/>
      <point x="168" y="700"/>
      <point x="168" y="1024" type="qcurve"/>
      <point x="168" y="1267"/>
      <point x="302" y="1656"/>
      <point x="545" y="1930"/>
      <point x="876" y="2076"/>
      <point x="1072" y="2076" type="qcurve"/>
      <point x="1234" y="2076"/>
      <point x="1518" y="1979"/>
      <point x="1745" y="1802"/>
      <point x="1896" y="1557"/>
      <point x="1924" y="1408" type="qcurve"/>
      <point x="1668" y="1408" type="line"/>
      <point x="1637" y="1509"/>
      <point x="1527" y="1670"/>
      <point x="1373" y="1784"/>
      <point x="1183" y="1844"/>
      <point x="1072" y="1844" type="qcurve"/>
      <point x="890" y="1844"/>
      <point x="588" y="1656"/>
      <point x="408" y="1290"/>
      <point x="408" y="1024" type="qcurve"/>
      <point x="408" y="758"/>
      <point x="586" y="392"/>
      <point x="890" y="204"/>
      <point x="1080" y="204" type="qcurve"/>
      <point x="1263" y="204"/>
      <point x="1540" y="365"/>
      <point x="1696" y="648"/>
      <point x="1696" y="830" type="qcurve"/>
      <point x="1728" y="804" type="line"/>
      <point x="1136" y="804" type="line"/>
      <point x="1136" y="1024" type="line"/>
      <point x="1936" y="1024" type="line"/>
      <point x="1936" y="0" type="line"/>
      <point x="1728" y="0" type="line"/>
      <point x="1698" y="250" type="line"/>
      <point x="1688" y="250" type="line"/>
      <point x="1571" y="116"/>
      <point x="1283" y="-28"/>
    </contour>
  </outline>
</glyph>
<glyph name="Gamma" format="2">
  <advance width="1776"/>
  <unicode hex="0194"/>
  <outline>
    <contour>
      <point x="28" y="2048" type="line"/>
      <point x="296" y="2048" type="line"/>
      <point x="996" y="388" type="line"/>
      <point x="1074" y="204"/>
      <point x="1193" y="-42"/>
      <point x="1260" y="-208"/>
      <point x="1260" y="-272" type="qcurve"/>
      <point x="1260" y="-380"/>
      <point x="1171" y="-530"/>
      <point x="1004" y="-608"/>
      <point x="888" y="-608" type="qcurve"/>
      <point x="714" y="-608"/>
      <point x="516" y="-434"/>
      <point x="516" y="-272" type="qcurve"/>
      <point x="516" y="-231"/>
      <point x="539" y="-141"/>
      <point x="583" y="-32"/>
      <point x="646" y="104"/>
      <point x="725" y="278"/>
      <point x="772" y="388" type="qcurve"/>
      <point x="1480" y="2048" type="line"/>
      <point x="1748" y="2048" type="line"/>
      <point x="932" y="156" type="line"/>
      <point x="882" y="40"/>
      <point x="808" y="-121"/>
      <point x="768" y="-232"/>
      <point x="768" y="-272" type="qcurve"/>
      <point x="768" y="-320"/>
      <point x="834" y="-384"/>
      <point x="888" y="-384" type="qcurve"/>
      <point x="942" y="-384"/>
      <point x="1008" y="-317"/>
      <point x="1008" y="-272" type="qcurve"/>
      <point x="1008" y="-232"/>
      <point x="971" y="-125"/>
      <point x="900" y="36"/>
      <point x="848" y="156" type="qcurve"/>
    </contour>
  </outline>
</glyph>
<glyph name="hv" format="2">
  <advance width="2664"/>
  <unicode hex="0195"/>
  <outline>
    <contour>
      <point x="216" y="0" type="line"/>
      <point x="216" y="2048" type="line"/>
      <point x="452" y="2048" type="line"/>
      <point x="452" y="1296" type="line"/>
      <point x="472" y="1296" type="line"/>
      <point x="526" y="1415"/>
      <point x="743" y="1556"/>
      <point x="924" y="1556" type="qcurve"/>
      <point x="1081" y="1556"/>
      <point x="1317" y="1431"/>
      <point x="1448" y="1174"/>
      <point x="1448" y="976" type="qcurve"/>
      <point x="1448" y="768" type="line"/>
      <point x="1212" y="768" type="line"/>
      <point x="1212" y="960" type="line"/>
      <point x="1212" y="1143"/>
      <point x="1023" y="1344"/>
      <point x="856" y="1344" type="qcurve"/>
      <point x="740" y="1344"/>
      <point x="557" y="1246"/>
      <point x="452" y="1058"/>
      <point x="452" y="924" type="qcurve"/>
      <point x="452" y="0" type="line"/>
    </contour>
    <contour>
      <point x="1724" y="-28" type="qcurve"/>
      <point x="1582" y="-28"/>
      <point x="1349" y="105"/>
      <point x="1212" y="387"/>
      <point x="1212" y="608" type="qcurve"/>
      <point x="1212" y="768" type="line"/>
      <point x="1448" y="768" type="line"/>
      <point x="1448" y="608" type="line"/>
      <point x="1448" y="428"/>
      <point x="1544" y="244"/>
      <point x="1681" y="180"/>
      <point x="1740" y="180" type="qcurve"/>
      <point x="1865" y="180"/>
      <point x="2080" y="400"/>
      <point x="2212" y="904"/>
      <point x="2212" y="1328" type="qcurve"/>
      <point x="2212" y="1536" type="line"/>
      <point x="2448" y="1536" type="line"/>
      <point x="2448" y="1328" type="line"/>
      <point x="2448" y="848"/>
      <point x="2256" y="250"/>
      <point x="1928" y="-28"/>
    </contour>
  </outline>
</glyph>
<glyph name="Khook" format="2">
  <advance width="1892"/>
  <unicode hex="0198"/>
  <outline>
    <contour>
      <point x="248" y="0" type="line"/>
      <point x="248" y="2048" type="line"/>
      <point x="496" y="2048" type="line"/>
      <point x="496" y="1032" type="line"/>
      <point x="520" y="1032" type="line"/>
      <point x="1332" y="1928" type="line"/>
      <point x="1412" y="2016"/>
      <point x="1598" y="2084"/>
      <point x="1786" y="2054"/>
      <point x="1868" y="1996" type="qcurve"/>
      <point x="1768" y="1812" type="line"/>
      <point x="1702" y="1854"/>
      <point x="1565" y="1835"/>
      <point x="1488" y="1752" type="qcurve"/>
      <point x="904" y="1124" type="line"/>
      <point x="1764" y="0" type="line"/>
      <point x="1464" y="0" type="line"/>
      <point x="752" y="952" type="line"/>
      <point x="496" y="664" type="line"/>
      <point x="496" y="0" type="line"/>
    </contour>
  </outline>
</glyph>
<glyph name="khook" format="2">
  <advance width="1500"/>
  <unicode hex="0199"/>
  <outline>
    <contour>
      <point x="1176" y="0" type="line"/>
      <point x="636" y="708" type="line"/>
      <point x="452" y="508" type="line"/>
      <point x="452" y="0" type="line"/>
      <point x="216" y="0" type="line"/>
      <point x="216" y="1600" type="line"/>
      <point x="452" y="1600" type="line"/>
      <point x="452" y="844" type="line"/>
      <point x="472" y="844" type="line"/>
      <point x="1096" y="1536" type="line"/>
      <point x="1396" y="1536" type="line"/>
      <point x="792" y="880" type="line"/>
      <point x="1460" y="0" type="line"/>
    </contour>
    <contour>
      <point x="452" y="1464" type="line"/>
      <point x="216" y="1464" type="line"/>
      <point x="216" y="1664" type="line"/>
      <point x="216" y="1763"/>
      <point x="277" y="1916"/>
      <point x="387" y="2022"/>
      <point x="532" y="2076"/>
      <point x="616" y="2076" type="qcurve"/>
      <point x="652" y="2076"/>
      <point x="725" y="2073"/>
      <point x="752" y="2064" type="qcurve"/>
      <point x="752" y="1864" type="line"/>
      <point x="737" y="1867"/>
      <point x="697" y="1872"/>
      <point x="676" y="1872" type="qcurve"/>
      <point x="580" y="1872"/>
      <point x="452" y="1784"/>
      <point x="452" y="1664" type="qcurve"/>
    </contour>
  </outline>
</glyph>
<glyph name="lambdastroke" format="2">
  <advance width="1776"/>
  <unicode hex="019B"/>
  <outline>
    <contour>
      <point x="944" y="1952" type="line"/>
      <point x="944" y="1716" type="line"/>
      <point x="268" y="1460" type="line"/>
      <point x="268" y="1692" type="line"/>
    </contour>
    <contour>
      <point x="848" y="1088" type="line"/>
      <point x="456" y="0" type="line"/>
      <point x="152" y="0" type="line"/>
      <point x="728" y="1516" type="line"/>
      <point x="920" y="1504" type="line"/>
    </contour>
    <contour>
      <point x="474" y="2076" type="qcurve"/>
      <point x="626" y="2076"/>
      <point x="776" y="1956"/>
      <point x="818" y="1848" type="qcurve"/>
      <point x="1408" y="324" type="line"/>
      <point x="1425" y="280"/>
      <point x="1461" y="231"/>
      <point x="1506" y="212"/>
      <point x="1536" y="212" type="qcurve"/>
      <point x="1548" y="212"/>
      <point x="1575" y="212"/>
      <point x="1584" y="212" type="qcurve"/>
      <point x="1592" y="-8" type="line"/>
      <point x="1577" y="-14"/>
      <point x="1517" y="-24"/>
      <point x="1484" y="-24" type="qcurve"/>
      <point x="1402" y="-24"/>
      <point x="1282" y="11"/>
      <point x="1184" y="128"/>
      <point x="1136" y="252" type="qcurve"/>
      <point x="712" y="1344" type="line"/>
      <point x="558" y="1728" type="line"/>
      <point x="528" y="1803"/>
      <point x="452" y="1856"/>
      <point x="402" y="1856" type="qcurve"/>
      <point x="389" y="1856"/>
      <point x="349" y="1855"/>
      <point x="338" y="1852" type="qcurve"/>
      <point x="338" y="2060" type="line"/>
      <point x="355" y="2066"/>
      <point x="443" y="2076"/>
    </contour>
  </outline>
</glyph>
<glyph name="Mturned" format="2">
  <advance width="2544"/>
  <unicode hex="019C"/>
  <outline>
    <contour>
      <point x="2044" y="292" type="line"/>
      <point x="2044" y="2048" type="line"/>
      <point x="2316" y="2048" type="line"/>
      <point x="2316" y="0" type="line"/>
      <point x="2056" y="0" type="line"/>
    </contour>
    <contour>
      <point x="2064" y="692" type="qcurve"/>
      <point x="2192" y="696" type="line"/>
      <point x="2192" y="488"/>
      <point x="2078" y="161"/>
      <point x="1828" y="-28"/>
      <point x="1624" y="-28" type="qcurve"/>
      <point x="1478" y="-28"/>
      <point x="1258" y="90"/>
      <point x="1136" y="368"/>
      <point x="1136" y="608" type="qcurve"/>
      <point x="1136" y="2048" type="line"/>
      <point x="1408" y="2048" type="line"/>
      <point x="1408" y="608" type="line"/>
      <point x="1408" y="444"/>
      <point x="1485" y="267"/>
      <point x="1604" y="200"/>
      <point x="1668" y="200" type="qcurve"/>
      <point x="1816" y="200"/>
      <point x="1989" y="331"/>
      <point x="2064" y="554"/>
    </contour>
    <contour>
      <point x="1160" y="692" type="qcurve"/>
      <point x="1288" y="696" type="line"/>
      <point x="1288" y="488"/>
      <point x="1172" y="161"/>
      <point x="920" y="-28"/>
      <point x="716" y="-28" type="qcurve"/>
      <point x="568" y="-28"/>
      <point x="349" y="92"/>
      <point x="228" y="370"/>
      <point x="228" y="608" type="qcurve"/>
      <point x="228" y="2048" type="line"/>
      <point x="504" y="2048" type="line"/>
      <point x="504" y="608" type="line"/>
      <point x="504" y="444"/>
      <point x="579" y="267"/>
      <point x="696" y="200"/>
      <point x="760" y="200" type="qcurve"/>
      <point x="908" y="200"/>
      <point x="1083" y="331"/>
      <point x="1160" y="554"/>
    </contour>
  </outline>
</glyph>
<glyph name="Nhookleft" format="2">
  <advance width="2132"/>
  <unicode hex="019D"/>
  <outline>
    <contour>
      <point x="260" y="0" type="line"/>
      <point x="508" y="0" type="line"/>
      <point x="508" y="-164" type="line"/>
      <point x="508" y="-263"/>
      <point x="444" y="-416"/>
      <point x="332" y="-522"/>
      <point x="184" y="-576"/>
      <point x="100" y="-576" type="qcurve"/>
      <point x="64" y="-576"/>
      <point x="-9" y="-573"/>
      <point x="-36" y="-564" type="qcurve"/>
      <point x="-36" y="-360" type="line"/>
      <point x="-21" y="-363"/>
      <point x="19" y="-368"/>
      <point x="40" y="-368" type="qcurve"/>
      <point x="136" y="-368"/>
      <point x="260" y="-280"/>
      <point x="260" y="-160" type="qcurve"/>
    </contour>
    <contour>
      <point x="1884" y="2048" type="line"/>
      <point x="1884" y="0" type="line"/>
      <point x="1644" y="0" type="line"/>
      <point x="528" y="1608" type="line"/>
      <point x="508" y="1608" type="line"/>
      <point x="508" y="0" type="line"/>
      <point x="260" y="0" type="line"/>
      <point x="260" y="2048" type="line"/>
      <point x="500" y="2048" type="line"/>
      <point x="1620" y="436" type="line"/>
      <point x="1640" y="436" type="line"/>
      <point x="1640" y="2048" type="line"/>
    </contour>
  </outline>
</glyph>
<glyph name="ohorn" format="2">
  <advance width="1684"/>
  <unicode hex="01A1"/>
  <outline>
    <contour>
      <point x="1464" y="1652" type="qcurve"/>
      <point x="1684" y="1652" type="line"/>
      <point x="1684" y="1424"/>
      <point x="1485" y="1156"/>
      <point x="1236" y="1156" type="qcurve"/>
      <point x="1236" y="1324" type="line"/>
      <point x="1336" y="1324"/>
      <point x="1433" y="1406"/>
      <point x="1464" y="1554"/>
    </contour>
    <contour>
      <point x="840" y="-32" type="qcurve"/>
      <point x="632" y="-32"/>
      <point x="319" y="166"/>
      <point x="144" y="522"/>
      <point x="144" y="760" type="qcurve"/>
      <point x="144" y="1000"/>
      <point x="319" y="1358"/>
      <point x="632" y="1556"/>
      <point x="840" y="1556" type="qcurve"/>
      <point x="1048" y="1556"/>
      <point x="1361" y="1358"/>
      <point x="1536" y="1000"/>
      <point x="1536" y="760" type="qcurve"/>
      <point x="1536" y="522"/>
      <point x="1361" y="166"/>
      <point x="1048" y="-32"/>
    </contour>
    <contour>
      <point x="840" y="180" type="qcurve"/>
      <point x="998" y="180"/>
      <point x="1202" y="342"/>
      <point x="1300" y="606"/>
      <point x="1300" y="760" type="qcurve"/>
      <point x="1300" y="914"/>
      <point x="1202" y="1180"/>
      <point x="998" y="1344"/>
      <point x="840" y="1344" type="qcurve"/>
      <point x="682" y="1344"/>
      <point x="478" y="1180"/>
      <point x="380" y="914"/>
      <point x="380" y="760" type="qcurve"/>
      <point x="380" y="606"/>
      <point x="478" y="342"/>
      <point x="682" y="180"/>
    </contour>
  </outline>
</glyph>
<glyph name="Oi" format="2">
  <advance width="2432"/>
  <unicode hex="01A2"/>
  <outline>
    <contour>
      <point x="1712" y="1044" type="line"/>
      <point x="1712" y="272" type="line"/>
      <point x="1651" y="177"/>
      <point x="1442" y="43"/>
      <point x="1174" y="-28"/>
      <point x="1024" y="-28" type="qcurve"/>
      <point x="822" y="-28"/>
      <point x="504" y="106"/>
      <point x="283" y="357"/>
      <point x="168" y="711"/>
      <point x="168" y="932" type="qcurve"/>
      <point x="168" y="1104" type="line"/>
      <point x="452" y="1108" type="line"/>
      <point x="452" y="932" type="line"/>
      <point x="452" y="701"/>
      <point x="583" y="374"/>
      <point x="845" y="200"/>
      <point x="1040" y="200" type="qcurve"/>
      <point x="1162" y="200"/>
      <point x="1373" y="271"/>
      <point x="1440" y="344" type="qcurve"/>
      <point x="1440" y="1044" type="line"/>
    </contour>
    <contour>
      <point x="1712" y="1776" type="qcurve"/>
      <point x="1712" y="1020" type="line"/>
      <point x="1440" y="1020" type="line"/>
      <point x="1440" y="1700" type="line"/>
      <point x="1382" y="1767"/>
      <point x="1171" y="1844"/>
      <point x="1044" y="1844" type="qcurve"/>
      <point x="850" y="1844"/>
      <point x="586" y="1679"/>
      <point x="452" y="1355"/>
      <point x="452" y="1116" type="qcurve"/>
      <point x="452" y="956" type="line"/>
      <point x="168" y="956" type="line"/>
      <point x="168" y="1116" type="line"/>
      <point x="168" y="1341"/>
      <point x="287" y="1697"/>
      <point x="515" y="1946"/>
      <point x="841" y="2076"/>
      <point x="1048" y="2076" type="qcurve"/>
      <point x="1191" y="2076"/>
      <point x="1450" y="2002"/>
      <point x="1654" y="1867"/>
    </contour>
    <contour>
      <point x="2184" y="2048" type="line"/>
      <point x="2184" y="-576" type="line"/>
      <point x="1908" y="-576" type="line"/>
      <point x="1908" y="1776" type="line"/>
      <point x="1588" y="1660" type="line"/>
      <point x="1588" y="1892" type="line"/>
      <point x="1972" y="2048" type="line"/>
    </contour>
  </outline>
</glyph>
<glyph name="oi" format="2">
  <advance width="1776"/>
  <unicode hex="01A3"/>
  <outline>
    <contour>
      <point x="764" y="192" type="qcurve"/>
      <point x="827" y="192"/>
      <point x="922" y="225"/>
      <point x="964" y="252" type="qcurve"/>
      <point x="964" y="748" type="line"/>
      <point x="1240" y="748" type="line"/>
      <point x="1240" y="188" type="line"/>
      <point x="1186" y="124"/>
      <point x="1041" y="27"/>
      <point x="860" y="-28"/>
      <point x="752" y="-28" type="qcurve"/>
      <point x="536" y="-28"/>
      <point x="244" y="179"/>
      <point x="96" y="518"/>
      <point x="96" y="716" type="qcurve"/>
      <point x="96" y="772" type="line"/>
      <point x="96" y="990"/>
      <point x="242" y="1346"/>
      <point x="538" y="1556"/>
      <point x="764" y="1556" type="qcurve"/>
      <point x="868" y="1556"/>
      <point x="1045" y="1505"/>
      <point x="1188" y="1410"/>
      <point x="1240" y="1344" type="qcurve"/>
      <point x="1240" y="700" type="line"/>
      <point x="964" y="700" type="line"/>
      <point x="964" y="1272" type="line"/>
      <point x="925" y="1302"/>
      <point x="822" y="1336"/>
      <point x="756" y="1336" type="qcurve"/>
      <point x="606" y="1336"/>
      <point x="439" y="1176"/>
      <point x="372" y="918"/>
      <point x="372" y="772" type="qcurve"/>
      <point x="372" y="716" type="line"/>
      <point x="372" y="550"/>
      <point x="468" y="316"/>
      <point x="644" y="192"/>
    </contour>
    <contour>
      <point x="1680" y="1536" type="line"/>
      <point x="1680" y="-576" type="line"/>
      <point x="1408" y="-576" type="line"/>
      <point x="1408" y="1180" type="line"/>
      <point x="1108" y="1004" type="line"/>
      <point x="1108" y="1352" type="line"/>
      <point x="1464" y="1536" type="line"/>
    </contour>
  </outline>
</glyph>
<glyph name="Phook" format="2">
  <advance width="2216"/>
  <unicode hex="01A4"/>
  <outline>
    <contour>
      <point x="368" y="1504" type="line"/>
      <point x="136" y="1504" type="line"/>
      <point x="136" y="1640" type="line"/>
      <point x="136" y="1808"/>
      <point x="346" y="2048"/>
      <point x="544" y="2048" type="qcurve"/>
      <point x="1368" y="2048" type="line"/>
      <point x="1609" y="2048"/>
      <point x="1916" y="1875"/>
      <point x="2064" y="1581"/>
      <point x="2064" y="1400" type="qcurve"/>
      <point x="2064" y="1219"/>
      <point x="1917" y="923"/>
      <point x="1611" y="748"/>
      <point x="1372" y="748" type="qcurve"/>
      <point x="924" y="748" type="line"/>
      <point x="924" y="0" type="line"/>
      <point x="676" y="0" type="line"/>
      <point x="676" y="1828" type="line"/>
      <point x="548" y="1828" type="line"/>
      <point x="468" y="1828"/>
      <point x="391" y="1757"/>
      <point x="368" y="1644"/>
      <point x="368" y="1580" type="qcurve"/>
    </contour>
    <contour>
      <point x="924" y="968" type="line"/>
      <point x="1364" y="968" type="line"/>
      <point x="1529" y="968"/>
      <point x="1729" y="1082"/>
      <point x="1820" y="1277"/>
      <point x="1820" y="1400" type="qcurve"/>
      <point x="1820" y="1523"/>
      <point x="1729" y="1717"/>
      <point x="1527" y="1828"/>
      <point x="1360" y="1828" type="qcurve"/>
      <point x="924" y="1828" type="line"/>
    </contour>
  </outline>
</glyph>
<glyph name="phook" format="2">
  <advance width="1716"/>
  <unicode hex="01A5"/>
  <outline>
    <contour>
      <point x="444" y="1536" type="qcurve"/>
      <point x="216" y="1536" type="line"/>
      <point x="216" y="1711"/>
      <point x="425" y="1900"/>
      <point x="608" y="1900" type="qcurve"/>
      <point x="655" y="1900"/>
      <point x="728" y="1893"/>
      <point x="744" y="1888" type="qcurve"/>
      <point x="744" y="1688" type="line"/>
      <point x="725" y="1692"/>
      <point x="685" y="1696"/>
      <point x="668" y="1696" type="qcurve"/>
      <point x="562" y="1696"/>
      <point x="444" y="1614"/>
    </contour>
    <contour>
      <point x="216" y="-576" type="line"/>
      <point x="216" y="1536" type="line"/>
      <point x="444" y="1536" type="line"/>
      <point x="444" y="1292" type="line"/>
      <point x="472" y="1292" type="line"/>
      <point x="498" y="1332"/>
      <point x="591" y="1457"/>
      <point x="766" y="1556"/>
      <point x="916" y="1556" type="qcurve"/>
      <point x="1110" y="1556"/>
      <point x="1406" y="1362"/>
      <point x="1572" y="1006"/>
      <point x="1572" y="764" type="qcurve"/>
      <point x="1572" y="520"/>
      <point x="1406" y="163"/>
      <point x="1112" y="-32"/>
      <point x="920" y="-32" type="qcurve"/>
      <point x="772" y="-32"/>
      <point x="594" y="67"/>
      <point x="498" y="194"/>
      <point x="472" y="236" type="qcurve"/>
      <point x="452" y="236" type="line"/>
      <point x="452" y="-576" type="line"/>
    </contour>
    <contour>
      <point x="448" y="768" type="qcurve"/>
      <point x="448" y="594"/>
      <point x="550" y="329"/>
      <point x="746" y="180"/>
      <point x="888" y="180" type="qcurve"/>
      <point x="1036" y="180"/>
      <point x="1235" y="337"/>
      <point x="1336" y="604"/>
      <point x="1336" y="768" type="qcurve"/>
      <point x="1336" y="930"/>
      <point x="1237" y="1191"/>
      <point x="1038" y="1344"/>
      <point x="888" y="1344" type="qcurve"/>
      <point x="744" y="1344"/>
      <point x="548" y="1199"/>
      <point x="448" y="940"/>
    </contour>
  </outline>
</glyph>
